G04 (created by PCBNEW-RS274X (2011-01-22 BZR 2754)-stable) date 24.05.2012 00:25:01*
G01*
G70*
G90*
%MOIN*%
G04 Gerber Fmt 3.4, Leading zero omitted, Abs format*
%FSLAX34Y34*%
G04 APERTURE LIST*
%ADD10C,0.006000*%
%ADD11C,0.015000*%
%ADD12C,0.005000*%
%ADD13C,0.010000*%
%ADD14C,0.012000*%
%ADD15C,0.008000*%
%ADD16C,0.019700*%
%ADD17C,0.002600*%
%ADD18C,0.000100*%
%ADD19C,0.003500*%
%ADD20C,0.011300*%
%ADD21C,0.003000*%
G04 APERTURE END LIST*
G54D10*
G54D11*
X22183Y-64331D02*
X96593Y-64331D01*
X96593Y-14724D02*
X22223Y-14724D01*
X96593Y-64331D02*
X96593Y-14724D01*
X22183Y-14724D02*
X22183Y-64331D01*
X22183Y-14724D02*
X22223Y-14724D01*
X22183Y-64331D02*
X22183Y-14724D01*
G54D12*
X45447Y-60516D02*
X51353Y-60516D01*
X45447Y-62484D02*
X51353Y-62484D01*
X45447Y-63075D02*
X51353Y-63075D01*
G54D11*
X45447Y-59531D02*
X51353Y-59531D01*
G54D12*
X49384Y-62091D02*
X49581Y-61894D01*
X49581Y-61894D02*
X49188Y-61894D01*
X49188Y-61894D02*
X49384Y-62091D01*
X50961Y-61500D02*
X50949Y-61614D01*
X50916Y-61725D01*
X50862Y-61827D01*
X50789Y-61916D01*
X50700Y-61989D01*
X50599Y-62044D01*
X50488Y-62078D01*
X50374Y-62090D01*
X50260Y-62080D01*
X50149Y-62047D01*
X50047Y-61994D01*
X49957Y-61922D01*
X49883Y-61833D01*
X49827Y-61732D01*
X49792Y-61622D01*
X49780Y-61508D01*
X49789Y-61394D01*
X49821Y-61283D01*
X49874Y-61180D01*
X49945Y-61090D01*
X50033Y-61015D01*
X50134Y-60959D01*
X50244Y-60923D01*
X50358Y-60910D01*
X50472Y-60918D01*
X50583Y-60949D01*
X50686Y-61002D01*
X50777Y-61073D01*
X50852Y-61160D01*
X50909Y-61260D01*
X50946Y-61370D01*
X50960Y-61484D01*
X50961Y-61500D01*
X50747Y-61047D02*
X49925Y-61874D01*
X49992Y-61953D02*
X50818Y-61126D01*
G54D13*
X49385Y-62484D02*
X49385Y-63075D01*
G54D12*
X49384Y-61106D02*
X49384Y-62091D01*
G54D13*
X47416Y-62484D02*
X47416Y-63075D01*
G54D12*
X48023Y-61953D02*
X48849Y-61126D01*
X48778Y-61047D02*
X47956Y-61874D01*
X46054Y-61957D02*
X46881Y-61126D01*
X46881Y-61126D02*
X46877Y-61126D01*
X46794Y-61039D02*
X45983Y-61858D01*
X48992Y-61500D02*
X48980Y-61614D01*
X48947Y-61725D01*
X48893Y-61827D01*
X48820Y-61916D01*
X48731Y-61989D01*
X48630Y-62044D01*
X48519Y-62078D01*
X48405Y-62090D01*
X48291Y-62080D01*
X48180Y-62047D01*
X48078Y-61994D01*
X47988Y-61922D01*
X47914Y-61833D01*
X47858Y-61732D01*
X47823Y-61622D01*
X47811Y-61508D01*
X47820Y-61394D01*
X47852Y-61283D01*
X47905Y-61180D01*
X47976Y-61090D01*
X48064Y-61015D01*
X48165Y-60959D01*
X48275Y-60923D01*
X48389Y-60910D01*
X48503Y-60918D01*
X48614Y-60949D01*
X48717Y-61002D01*
X48808Y-61073D01*
X48883Y-61160D01*
X48940Y-61260D01*
X48977Y-61370D01*
X48991Y-61484D01*
X48992Y-61500D01*
X47023Y-61500D02*
X47011Y-61614D01*
X46978Y-61725D01*
X46924Y-61827D01*
X46851Y-61916D01*
X46762Y-61989D01*
X46661Y-62044D01*
X46550Y-62078D01*
X46436Y-62090D01*
X46322Y-62080D01*
X46211Y-62047D01*
X46109Y-61994D01*
X46019Y-61922D01*
X45945Y-61833D01*
X45889Y-61732D01*
X45854Y-61622D01*
X45842Y-61508D01*
X45851Y-61394D01*
X45883Y-61283D01*
X45936Y-61180D01*
X46007Y-61090D01*
X46095Y-61015D01*
X46196Y-60959D01*
X46306Y-60923D01*
X46420Y-60910D01*
X46534Y-60918D01*
X46645Y-60949D01*
X46748Y-61002D01*
X46839Y-61073D01*
X46914Y-61160D01*
X46971Y-61260D01*
X47008Y-61370D01*
X47022Y-61484D01*
X47023Y-61500D01*
G54D13*
X45448Y-59532D02*
X45448Y-63076D01*
X51353Y-63076D02*
X51353Y-59532D01*
X40603Y-20189D02*
X33597Y-20189D01*
X33577Y-20110D02*
X33577Y-17473D01*
X33578Y-17040D02*
X33578Y-16410D01*
X33597Y-16410D02*
X40603Y-16410D01*
X40623Y-16410D02*
X40623Y-20110D01*
X41981Y-19598D02*
X41981Y-18890D01*
X40918Y-19638D02*
X40643Y-19638D01*
X40918Y-18850D02*
X40643Y-18850D01*
X32219Y-18890D02*
X32219Y-19598D01*
X33282Y-18850D02*
X33557Y-18850D01*
X33282Y-19638D02*
X33557Y-19638D01*
X37926Y-20858D02*
X36274Y-20858D01*
X37926Y-20858D02*
X37926Y-20189D01*
X36274Y-20859D02*
X36274Y-20190D01*
G54D12*
X33187Y-19240D02*
X33179Y-19320D01*
X33155Y-19398D01*
X33117Y-19470D01*
X33065Y-19533D01*
X33003Y-19585D01*
X32931Y-19624D01*
X32853Y-19648D01*
X32772Y-19656D01*
X32692Y-19649D01*
X32614Y-19626D01*
X32542Y-19588D01*
X32479Y-19537D01*
X32426Y-19475D01*
X32387Y-19404D01*
X32363Y-19326D01*
X32354Y-19245D01*
X32360Y-19165D01*
X32383Y-19087D01*
X32420Y-19015D01*
X32471Y-18951D01*
X32533Y-18898D01*
X32604Y-18858D01*
X32681Y-18833D01*
X32762Y-18824D01*
X32842Y-18830D01*
X32920Y-18852D01*
X32993Y-18888D01*
X33057Y-18939D01*
X33110Y-19000D01*
X33150Y-19071D01*
X33176Y-19148D01*
X33186Y-19229D01*
X33187Y-19240D01*
X33360Y-19240D02*
X32179Y-19240D01*
X32770Y-18650D02*
X32770Y-19831D01*
X41847Y-19240D02*
X41839Y-19320D01*
X41815Y-19398D01*
X41777Y-19470D01*
X41725Y-19533D01*
X41663Y-19585D01*
X41591Y-19624D01*
X41513Y-19648D01*
X41432Y-19656D01*
X41352Y-19649D01*
X41274Y-19626D01*
X41202Y-19588D01*
X41139Y-19537D01*
X41086Y-19475D01*
X41047Y-19404D01*
X41023Y-19326D01*
X41014Y-19245D01*
X41020Y-19165D01*
X41043Y-19087D01*
X41080Y-19015D01*
X41131Y-18951D01*
X41193Y-18898D01*
X41264Y-18858D01*
X41341Y-18833D01*
X41422Y-18824D01*
X41502Y-18830D01*
X41580Y-18852D01*
X41653Y-18888D01*
X41717Y-18939D01*
X41770Y-19000D01*
X41810Y-19071D01*
X41836Y-19148D01*
X41846Y-19229D01*
X41847Y-19240D01*
X42021Y-19240D02*
X40840Y-19240D01*
X41430Y-18650D02*
X41430Y-19831D01*
G54D13*
X40881Y-19598D02*
X40914Y-19644D01*
X40951Y-19688D01*
X40991Y-19728D01*
X41035Y-19764D01*
X41082Y-19797D01*
X41132Y-19825D01*
X41183Y-19849D01*
X41237Y-19868D01*
X41292Y-19883D01*
X41349Y-19892D01*
X41405Y-19897D01*
X41461Y-19897D01*
X41518Y-19891D01*
X41574Y-19881D01*
X41629Y-19866D01*
X41683Y-19846D01*
X41735Y-19822D01*
X41784Y-19793D01*
X41830Y-19760D01*
X41874Y-19723D01*
X41914Y-19683D01*
X41950Y-19639D01*
X41980Y-19597D01*
X41979Y-18890D02*
X41946Y-18844D01*
X41909Y-18800D01*
X41869Y-18760D01*
X41825Y-18724D01*
X41778Y-18691D01*
X41728Y-18663D01*
X41677Y-18639D01*
X41623Y-18620D01*
X41568Y-18605D01*
X41511Y-18596D01*
X41455Y-18591D01*
X41399Y-18591D01*
X41342Y-18597D01*
X41286Y-18607D01*
X41231Y-18622D01*
X41177Y-18642D01*
X41125Y-18666D01*
X41076Y-18695D01*
X41030Y-18728D01*
X40986Y-18765D01*
X40946Y-18805D01*
X40910Y-18849D01*
X40880Y-18891D01*
X33319Y-18890D02*
X33286Y-18844D01*
X33249Y-18800D01*
X33209Y-18760D01*
X33165Y-18724D01*
X33118Y-18691D01*
X33068Y-18663D01*
X33017Y-18639D01*
X32963Y-18620D01*
X32908Y-18605D01*
X32851Y-18596D01*
X32795Y-18591D01*
X32739Y-18591D01*
X32682Y-18597D01*
X32626Y-18607D01*
X32571Y-18622D01*
X32517Y-18642D01*
X32465Y-18666D01*
X32416Y-18695D01*
X32370Y-18728D01*
X32326Y-18765D01*
X32286Y-18805D01*
X32250Y-18849D01*
X32220Y-18891D01*
X32221Y-19598D02*
X32254Y-19644D01*
X32291Y-19688D01*
X32331Y-19728D01*
X32375Y-19764D01*
X32422Y-19797D01*
X32472Y-19825D01*
X32523Y-19849D01*
X32577Y-19868D01*
X32632Y-19883D01*
X32689Y-19892D01*
X32745Y-19897D01*
X32801Y-19897D01*
X32858Y-19891D01*
X32914Y-19881D01*
X32969Y-19866D01*
X33023Y-19846D01*
X33075Y-19822D01*
X33124Y-19793D01*
X33170Y-19760D01*
X33214Y-19723D01*
X33254Y-19683D01*
X33290Y-19639D01*
X33320Y-19597D01*
X33578Y-17041D02*
X33560Y-17042D01*
X33541Y-17045D01*
X33523Y-17049D01*
X33505Y-17055D01*
X33487Y-17062D01*
X33470Y-17070D01*
X33455Y-17081D01*
X33440Y-17092D01*
X33426Y-17105D01*
X33413Y-17119D01*
X33402Y-17134D01*
X33391Y-17149D01*
X33383Y-17166D01*
X33376Y-17184D01*
X33370Y-17202D01*
X33366Y-17220D01*
X33363Y-17239D01*
X33362Y-17257D01*
X33363Y-17275D01*
X33366Y-17294D01*
X33370Y-17312D01*
X33376Y-17330D01*
X33383Y-17348D01*
X33391Y-17364D01*
X33402Y-17380D01*
X33413Y-17395D01*
X33426Y-17409D01*
X33440Y-17422D01*
X33455Y-17433D01*
X33471Y-17444D01*
X33487Y-17452D01*
X33505Y-17459D01*
X33523Y-17465D01*
X33541Y-17469D01*
X33560Y-17472D01*
X33578Y-17473D01*
G54D11*
X42889Y-47524D02*
X42889Y-45476D01*
X45960Y-42957D02*
X43204Y-42957D01*
X43204Y-42957D02*
X43204Y-45476D01*
X43204Y-45476D02*
X42889Y-45476D01*
X42889Y-47524D02*
X43204Y-47524D01*
X43204Y-47524D02*
X43204Y-50201D01*
X43204Y-50201D02*
X45960Y-50201D01*
X45960Y-50201D02*
X45960Y-42957D01*
X42889Y-42642D02*
X42889Y-45476D01*
X42889Y-50516D02*
X42889Y-47524D01*
X42889Y-42641D02*
X46275Y-42641D01*
X46275Y-42641D02*
X46275Y-50515D01*
X46275Y-50515D02*
X42889Y-50515D01*
X27111Y-45676D02*
X27111Y-47724D01*
X24040Y-50243D02*
X26796Y-50243D01*
X26796Y-50243D02*
X26796Y-47724D01*
X26796Y-47724D02*
X27111Y-47724D01*
X27111Y-45676D02*
X26796Y-45676D01*
X26796Y-45676D02*
X26796Y-42999D01*
X26796Y-42999D02*
X24040Y-42999D01*
X24040Y-42999D02*
X24040Y-50243D01*
X27111Y-50558D02*
X27111Y-47724D01*
X27111Y-42684D02*
X27111Y-45676D01*
X27111Y-50559D02*
X23725Y-50559D01*
X23725Y-50559D02*
X23725Y-42685D01*
X23725Y-42685D02*
X27111Y-42685D01*
X88876Y-25535D02*
X88876Y-38606D01*
X88876Y-38606D02*
X88640Y-38606D01*
X88640Y-38606D02*
X88640Y-40417D01*
X88640Y-25535D02*
X88640Y-38606D01*
X88876Y-53528D02*
X88876Y-40378D01*
X88876Y-40378D02*
X88640Y-40378D01*
X88640Y-53528D02*
X88640Y-40378D01*
X91790Y-56717D02*
X91790Y-22307D01*
X92026Y-22071D02*
X92026Y-56953D01*
X88876Y-53529D02*
X88876Y-56679D01*
X88876Y-56718D02*
X91790Y-56718D01*
X91790Y-22307D02*
X88876Y-22307D01*
X88876Y-22307D02*
X88876Y-25535D01*
X88640Y-56954D02*
X88640Y-53529D01*
X88640Y-22070D02*
X88640Y-25496D01*
X88640Y-22071D02*
X92026Y-22071D01*
X92026Y-56993D02*
X88640Y-56993D01*
X37775Y-61200D02*
X37745Y-61505D01*
X37656Y-61800D01*
X37511Y-62071D01*
X37317Y-62309D01*
X37080Y-62505D01*
X36810Y-62651D01*
X36516Y-62742D01*
X36210Y-62774D01*
X35905Y-62747D01*
X35610Y-62660D01*
X35338Y-62517D01*
X35099Y-62325D01*
X34901Y-62089D01*
X34753Y-61820D01*
X34660Y-61527D01*
X34626Y-61221D01*
X34651Y-60916D01*
X34736Y-60621D01*
X34877Y-60347D01*
X35068Y-60106D01*
X35302Y-59907D01*
X35570Y-59757D01*
X35862Y-59662D01*
X36168Y-59626D01*
X36473Y-59649D01*
X36769Y-59732D01*
X37043Y-59871D01*
X37286Y-60060D01*
X37487Y-60293D01*
X37638Y-60560D01*
X37735Y-60852D01*
X37774Y-61157D01*
X37775Y-61200D01*
X36987Y-59625D02*
X36987Y-59231D01*
X37184Y-59428D02*
X36791Y-59428D01*
X48669Y-56000D02*
X48631Y-56382D01*
X48520Y-56750D01*
X48340Y-57089D01*
X48097Y-57387D01*
X47801Y-57632D01*
X47463Y-57815D01*
X47095Y-57928D01*
X46713Y-57968D01*
X46332Y-57934D01*
X45963Y-57825D01*
X45622Y-57647D01*
X45323Y-57406D01*
X45076Y-57112D01*
X44891Y-56775D01*
X44775Y-56409D01*
X44732Y-56027D01*
X44764Y-55645D01*
X44870Y-55276D01*
X45045Y-54934D01*
X45284Y-54633D01*
X45577Y-54384D01*
X45912Y-54196D01*
X46278Y-54077D01*
X46659Y-54032D01*
X47041Y-54061D01*
X47412Y-54165D01*
X47755Y-54338D01*
X48057Y-54575D01*
X48308Y-54866D01*
X48498Y-55200D01*
X48620Y-55564D01*
X48668Y-55946D01*
X48669Y-56000D01*
X47487Y-53638D02*
X47487Y-53244D01*
X47684Y-53441D02*
X47291Y-53441D01*
X31600Y-52600D02*
X31600Y-60600D01*
X29600Y-60600D02*
X29600Y-52600D01*
X29600Y-52600D02*
X31600Y-52600D01*
X31100Y-52600D02*
X31100Y-53100D01*
X31100Y-53100D02*
X30100Y-53100D01*
X30100Y-53100D02*
X30100Y-52600D01*
X31600Y-60600D02*
X29600Y-60600D01*
X58400Y-35000D02*
X58400Y-35000D01*
X58400Y-35000D02*
X58400Y-35500D01*
X58400Y-35500D02*
X57400Y-35500D01*
X57400Y-35500D02*
X57400Y-35000D01*
X58900Y-35000D02*
X58900Y-44000D01*
X58900Y-44000D02*
X56900Y-44000D01*
X56900Y-44000D02*
X56900Y-35000D01*
X56900Y-35000D02*
X58900Y-35000D01*
X32600Y-32700D02*
X32600Y-32700D01*
X32600Y-32700D02*
X33100Y-32700D01*
X33100Y-32700D02*
X33100Y-33700D01*
X33100Y-33700D02*
X32600Y-33700D01*
X32600Y-32200D02*
X41600Y-32200D01*
X41600Y-32200D02*
X41600Y-34200D01*
X41600Y-34200D02*
X32600Y-34200D01*
X32600Y-34200D02*
X32600Y-32200D01*
X76400Y-35000D02*
X76400Y-35000D01*
X76400Y-35000D02*
X76400Y-35500D01*
X76400Y-35500D02*
X75400Y-35500D01*
X75400Y-35500D02*
X75400Y-35000D01*
X76900Y-35000D02*
X76900Y-44000D01*
X76900Y-44000D02*
X74900Y-44000D01*
X74900Y-44000D02*
X74900Y-35000D01*
X74900Y-35000D02*
X76900Y-35000D01*
X67400Y-19400D02*
X67400Y-19400D01*
X67400Y-19400D02*
X67400Y-19900D01*
X67400Y-19900D02*
X66400Y-19900D01*
X66400Y-19900D02*
X66400Y-19400D01*
X67900Y-19400D02*
X67900Y-28400D01*
X67900Y-28400D02*
X65900Y-28400D01*
X65900Y-28400D02*
X65900Y-19400D01*
X65900Y-19400D02*
X67900Y-19400D01*
X76400Y-50600D02*
X76400Y-50600D01*
X76400Y-50600D02*
X76400Y-51100D01*
X76400Y-51100D02*
X75400Y-51100D01*
X75400Y-51100D02*
X75400Y-50600D01*
X76900Y-50600D02*
X76900Y-59600D01*
X76900Y-59600D02*
X74900Y-59600D01*
X74900Y-59600D02*
X74900Y-50600D01*
X74900Y-50600D02*
X76900Y-50600D01*
X67400Y-35000D02*
X67400Y-35000D01*
X67400Y-35000D02*
X67400Y-35500D01*
X67400Y-35500D02*
X66400Y-35500D01*
X66400Y-35500D02*
X66400Y-35000D01*
X67900Y-35000D02*
X67900Y-44000D01*
X67900Y-44000D02*
X65900Y-44000D01*
X65900Y-44000D02*
X65900Y-35000D01*
X65900Y-35000D02*
X67900Y-35000D01*
X58400Y-19400D02*
X58400Y-19400D01*
X58400Y-19400D02*
X58400Y-19900D01*
X58400Y-19900D02*
X57400Y-19900D01*
X57400Y-19900D02*
X57400Y-19400D01*
X58900Y-19400D02*
X58900Y-28400D01*
X58900Y-28400D02*
X56900Y-28400D01*
X56900Y-28400D02*
X56900Y-19400D01*
X56900Y-19400D02*
X58900Y-19400D01*
X76400Y-19400D02*
X76400Y-19400D01*
X76400Y-19400D02*
X76400Y-19900D01*
X76400Y-19900D02*
X75400Y-19900D01*
X75400Y-19900D02*
X75400Y-19400D01*
X76900Y-19400D02*
X76900Y-28400D01*
X76900Y-28400D02*
X74900Y-28400D01*
X74900Y-28400D02*
X74900Y-19400D01*
X74900Y-19400D02*
X76900Y-19400D01*
X67400Y-50600D02*
X67400Y-50600D01*
X67400Y-50600D02*
X67400Y-51100D01*
X67400Y-51100D02*
X66400Y-51100D01*
X66400Y-51100D02*
X66400Y-50600D01*
X67900Y-50600D02*
X67900Y-59600D01*
X67900Y-59600D02*
X65900Y-59600D01*
X65900Y-59600D02*
X65900Y-50600D01*
X65900Y-50600D02*
X67900Y-50600D01*
G54D12*
X59988Y-59584D02*
X59988Y-57772D01*
X59988Y-57772D02*
X61484Y-57772D01*
X61484Y-57772D02*
X61484Y-59584D01*
X62193Y-63560D02*
X63964Y-63560D01*
X63964Y-63560D02*
X63964Y-60883D01*
X63964Y-60883D02*
X62193Y-60883D01*
X58807Y-60883D02*
X56996Y-60883D01*
X56996Y-60883D02*
X56996Y-63560D01*
X56996Y-63560D02*
X58807Y-63560D01*
X62193Y-59584D02*
X62193Y-64977D01*
X58807Y-59623D02*
X58807Y-64977D01*
X58807Y-64977D02*
X62193Y-64977D01*
X58807Y-59584D02*
X62193Y-59584D01*
G54D10*
X22600Y-58300D02*
X23600Y-58300D01*
X23600Y-58300D02*
X23600Y-60300D01*
X23600Y-60300D02*
X22600Y-60300D01*
X22600Y-60300D02*
X22600Y-58300D01*
X22600Y-55700D02*
X23600Y-55700D01*
X23600Y-55700D02*
X23600Y-57700D01*
X23600Y-57700D02*
X22600Y-57700D01*
X22600Y-57700D02*
X22600Y-55700D01*
X22600Y-53100D02*
X23600Y-53100D01*
X23600Y-53100D02*
X23600Y-55100D01*
X23600Y-55100D02*
X22600Y-55100D01*
X22600Y-55100D02*
X22600Y-53100D01*
G54D14*
X42500Y-55000D02*
X42500Y-57000D01*
X41500Y-55000D02*
X41500Y-57000D01*
X40500Y-55000D02*
X40500Y-57000D01*
X43000Y-57000D02*
X39500Y-57000D01*
X39500Y-57000D02*
X39500Y-63000D01*
X39500Y-63000D02*
X43500Y-63000D01*
X43000Y-57000D02*
X43500Y-57000D01*
X40000Y-60000D02*
X43500Y-60000D01*
X40000Y-60000D02*
X39500Y-60000D01*
X43500Y-57000D02*
X43500Y-63000D01*
G54D10*
X38780Y-49590D02*
X38330Y-49590D01*
X38780Y-47410D02*
X38340Y-47410D01*
X38780Y-49590D02*
X38780Y-47410D01*
X37900Y-50060D02*
X37900Y-50490D01*
X35690Y-50070D02*
X35690Y-50490D01*
X35680Y-50490D02*
X37900Y-50500D01*
X35700Y-46520D02*
X37870Y-46510D01*
X35270Y-47210D02*
X35270Y-50040D01*
X37880Y-46520D02*
X37880Y-46930D01*
X35520Y-46970D02*
X38300Y-46970D01*
X38320Y-50050D02*
X38320Y-47010D01*
X35270Y-50050D02*
X38270Y-50050D01*
X34820Y-47380D02*
X34820Y-49600D01*
X34820Y-49600D02*
X35270Y-49600D01*
X35274Y-47200D02*
X35504Y-46970D01*
X34822Y-47380D02*
X35274Y-47380D01*
X35700Y-46970D02*
X35700Y-46518D01*
X35870Y-47374D02*
X35866Y-47410D01*
X35855Y-47445D01*
X35838Y-47478D01*
X35815Y-47506D01*
X35787Y-47529D01*
X35754Y-47547D01*
X35719Y-47558D01*
X35683Y-47561D01*
X35647Y-47558D01*
X35612Y-47548D01*
X35580Y-47531D01*
X35551Y-47508D01*
X35527Y-47480D01*
X35510Y-47448D01*
X35499Y-47413D01*
X35495Y-47376D01*
X35498Y-47341D01*
X35508Y-47305D01*
X35524Y-47273D01*
X35547Y-47244D01*
X35575Y-47220D01*
X35607Y-47202D01*
X35642Y-47191D01*
X35679Y-47187D01*
X35714Y-47189D01*
X35749Y-47199D01*
X35782Y-47216D01*
X35811Y-47238D01*
X35835Y-47266D01*
X35853Y-47298D01*
X35865Y-47333D01*
X35869Y-47369D01*
X35870Y-47374D01*
G54D15*
X42650Y-39400D02*
X42623Y-39671D01*
X42544Y-39933D01*
X42416Y-40174D01*
X42243Y-40386D01*
X42032Y-40560D01*
X41792Y-40690D01*
X41531Y-40771D01*
X41259Y-40799D01*
X40988Y-40775D01*
X40726Y-40698D01*
X40484Y-40571D01*
X40271Y-40400D01*
X40095Y-40190D01*
X39964Y-39951D01*
X39881Y-39691D01*
X39851Y-39419D01*
X39873Y-39148D01*
X39949Y-38885D01*
X40074Y-38642D01*
X40243Y-38428D01*
X40452Y-38251D01*
X40690Y-38118D01*
X40950Y-38033D01*
X41221Y-38001D01*
X41493Y-38022D01*
X41756Y-38095D01*
X42000Y-38218D01*
X42215Y-38387D01*
X42394Y-38593D01*
X42528Y-38831D01*
X42615Y-39090D01*
X42649Y-39361D01*
X42650Y-39400D01*
G54D12*
X60950Y-21650D02*
X60949Y-21659D01*
X60946Y-21669D01*
X60941Y-21677D01*
X60935Y-21685D01*
X60927Y-21691D01*
X60919Y-21696D01*
X60910Y-21698D01*
X60900Y-21699D01*
X60891Y-21699D01*
X60882Y-21696D01*
X60873Y-21691D01*
X60866Y-21685D01*
X60859Y-21678D01*
X60855Y-21669D01*
X60852Y-21660D01*
X60851Y-21650D01*
X60851Y-21641D01*
X60854Y-21632D01*
X60858Y-21623D01*
X60865Y-21616D01*
X60872Y-21609D01*
X60880Y-21605D01*
X60890Y-21602D01*
X60899Y-21601D01*
X60908Y-21601D01*
X60918Y-21604D01*
X60926Y-21608D01*
X60934Y-21614D01*
X60940Y-21622D01*
X60945Y-21630D01*
X60948Y-21639D01*
X60949Y-21649D01*
X60950Y-21650D01*
X60900Y-21200D02*
X60900Y-21600D01*
X60900Y-21600D02*
X60300Y-21600D01*
X60300Y-21600D02*
X60300Y-21200D01*
X60300Y-20800D02*
X60300Y-20400D01*
X60300Y-20400D02*
X60900Y-20400D01*
X60900Y-20400D02*
X60900Y-20800D01*
X78300Y-21700D02*
X78299Y-21709D01*
X78296Y-21719D01*
X78291Y-21727D01*
X78285Y-21735D01*
X78277Y-21741D01*
X78269Y-21746D01*
X78260Y-21748D01*
X78250Y-21749D01*
X78241Y-21749D01*
X78232Y-21746D01*
X78223Y-21741D01*
X78216Y-21735D01*
X78209Y-21728D01*
X78205Y-21719D01*
X78202Y-21710D01*
X78201Y-21700D01*
X78201Y-21691D01*
X78204Y-21682D01*
X78208Y-21673D01*
X78215Y-21666D01*
X78222Y-21659D01*
X78230Y-21655D01*
X78240Y-21652D01*
X78249Y-21651D01*
X78258Y-21651D01*
X78268Y-21654D01*
X78276Y-21658D01*
X78284Y-21664D01*
X78290Y-21672D01*
X78295Y-21680D01*
X78298Y-21689D01*
X78299Y-21699D01*
X78300Y-21700D01*
X78700Y-21700D02*
X78300Y-21700D01*
X78300Y-21700D02*
X78300Y-21100D01*
X78300Y-21100D02*
X78700Y-21100D01*
X79100Y-21100D02*
X79500Y-21100D01*
X79500Y-21100D02*
X79500Y-21700D01*
X79500Y-21700D02*
X79100Y-21700D01*
X69950Y-37250D02*
X69949Y-37259D01*
X69946Y-37269D01*
X69941Y-37277D01*
X69935Y-37285D01*
X69927Y-37291D01*
X69919Y-37296D01*
X69910Y-37298D01*
X69900Y-37299D01*
X69891Y-37299D01*
X69882Y-37296D01*
X69873Y-37291D01*
X69866Y-37285D01*
X69859Y-37278D01*
X69855Y-37269D01*
X69852Y-37260D01*
X69851Y-37250D01*
X69851Y-37241D01*
X69854Y-37232D01*
X69858Y-37223D01*
X69865Y-37216D01*
X69872Y-37209D01*
X69880Y-37205D01*
X69890Y-37202D01*
X69899Y-37201D01*
X69908Y-37201D01*
X69918Y-37204D01*
X69926Y-37208D01*
X69934Y-37214D01*
X69940Y-37222D01*
X69945Y-37230D01*
X69948Y-37239D01*
X69949Y-37249D01*
X69950Y-37250D01*
X69900Y-36800D02*
X69900Y-37200D01*
X69900Y-37200D02*
X69300Y-37200D01*
X69300Y-37200D02*
X69300Y-36800D01*
X69300Y-36400D02*
X69300Y-36000D01*
X69300Y-36000D02*
X69900Y-36000D01*
X69900Y-36000D02*
X69900Y-36400D01*
X69950Y-21650D02*
X69949Y-21659D01*
X69946Y-21669D01*
X69941Y-21677D01*
X69935Y-21685D01*
X69927Y-21691D01*
X69919Y-21696D01*
X69910Y-21698D01*
X69900Y-21699D01*
X69891Y-21699D01*
X69882Y-21696D01*
X69873Y-21691D01*
X69866Y-21685D01*
X69859Y-21678D01*
X69855Y-21669D01*
X69852Y-21660D01*
X69851Y-21650D01*
X69851Y-21641D01*
X69854Y-21632D01*
X69858Y-21623D01*
X69865Y-21616D01*
X69872Y-21609D01*
X69880Y-21605D01*
X69890Y-21602D01*
X69899Y-21601D01*
X69908Y-21601D01*
X69918Y-21604D01*
X69926Y-21608D01*
X69934Y-21614D01*
X69940Y-21622D01*
X69945Y-21630D01*
X69948Y-21639D01*
X69949Y-21649D01*
X69950Y-21650D01*
X69900Y-21200D02*
X69900Y-21600D01*
X69900Y-21600D02*
X69300Y-21600D01*
X69300Y-21600D02*
X69300Y-21200D01*
X69300Y-20800D02*
X69300Y-20400D01*
X69300Y-20400D02*
X69900Y-20400D01*
X69900Y-20400D02*
X69900Y-20800D01*
X78200Y-35700D02*
X78199Y-35709D01*
X78196Y-35719D01*
X78191Y-35727D01*
X78185Y-35735D01*
X78177Y-35741D01*
X78169Y-35746D01*
X78160Y-35748D01*
X78150Y-35749D01*
X78141Y-35749D01*
X78132Y-35746D01*
X78123Y-35741D01*
X78116Y-35735D01*
X78109Y-35728D01*
X78105Y-35719D01*
X78102Y-35710D01*
X78101Y-35700D01*
X78101Y-35691D01*
X78104Y-35682D01*
X78108Y-35673D01*
X78115Y-35666D01*
X78122Y-35659D01*
X78130Y-35655D01*
X78140Y-35652D01*
X78149Y-35651D01*
X78158Y-35651D01*
X78168Y-35654D01*
X78176Y-35658D01*
X78184Y-35664D01*
X78190Y-35672D01*
X78195Y-35680D01*
X78198Y-35689D01*
X78199Y-35699D01*
X78200Y-35700D01*
X78600Y-35700D02*
X78200Y-35700D01*
X78200Y-35700D02*
X78200Y-35100D01*
X78200Y-35100D02*
X78600Y-35100D01*
X79000Y-35100D02*
X79400Y-35100D01*
X79400Y-35100D02*
X79400Y-35700D01*
X79400Y-35700D02*
X79000Y-35700D01*
X60950Y-37250D02*
X60949Y-37259D01*
X60946Y-37269D01*
X60941Y-37277D01*
X60935Y-37285D01*
X60927Y-37291D01*
X60919Y-37296D01*
X60910Y-37298D01*
X60900Y-37299D01*
X60891Y-37299D01*
X60882Y-37296D01*
X60873Y-37291D01*
X60866Y-37285D01*
X60859Y-37278D01*
X60855Y-37269D01*
X60852Y-37260D01*
X60851Y-37250D01*
X60851Y-37241D01*
X60854Y-37232D01*
X60858Y-37223D01*
X60865Y-37216D01*
X60872Y-37209D01*
X60880Y-37205D01*
X60890Y-37202D01*
X60899Y-37201D01*
X60908Y-37201D01*
X60918Y-37204D01*
X60926Y-37208D01*
X60934Y-37214D01*
X60940Y-37222D01*
X60945Y-37230D01*
X60948Y-37239D01*
X60949Y-37249D01*
X60950Y-37250D01*
X60900Y-36800D02*
X60900Y-37200D01*
X60900Y-37200D02*
X60300Y-37200D01*
X60300Y-37200D02*
X60300Y-36800D01*
X60300Y-36400D02*
X60300Y-36000D01*
X60300Y-36000D02*
X60900Y-36000D01*
X60900Y-36000D02*
X60900Y-36400D01*
X69950Y-52850D02*
X69949Y-52859D01*
X69946Y-52869D01*
X69941Y-52877D01*
X69935Y-52885D01*
X69927Y-52891D01*
X69919Y-52896D01*
X69910Y-52898D01*
X69900Y-52899D01*
X69891Y-52899D01*
X69882Y-52896D01*
X69873Y-52891D01*
X69866Y-52885D01*
X69859Y-52878D01*
X69855Y-52869D01*
X69852Y-52860D01*
X69851Y-52850D01*
X69851Y-52841D01*
X69854Y-52832D01*
X69858Y-52823D01*
X69865Y-52816D01*
X69872Y-52809D01*
X69880Y-52805D01*
X69890Y-52802D01*
X69899Y-52801D01*
X69908Y-52801D01*
X69918Y-52804D01*
X69926Y-52808D01*
X69934Y-52814D01*
X69940Y-52822D01*
X69945Y-52830D01*
X69948Y-52839D01*
X69949Y-52849D01*
X69950Y-52850D01*
X69900Y-52400D02*
X69900Y-52800D01*
X69900Y-52800D02*
X69300Y-52800D01*
X69300Y-52800D02*
X69300Y-52400D01*
X69300Y-52000D02*
X69300Y-51600D01*
X69300Y-51600D02*
X69900Y-51600D01*
X69900Y-51600D02*
X69900Y-52000D01*
X77900Y-49200D02*
X77899Y-49209D01*
X77896Y-49219D01*
X77891Y-49227D01*
X77885Y-49235D01*
X77877Y-49241D01*
X77869Y-49246D01*
X77860Y-49248D01*
X77850Y-49249D01*
X77841Y-49249D01*
X77832Y-49246D01*
X77823Y-49241D01*
X77816Y-49235D01*
X77809Y-49228D01*
X77805Y-49219D01*
X77802Y-49210D01*
X77801Y-49200D01*
X77801Y-49191D01*
X77804Y-49182D01*
X77808Y-49173D01*
X77815Y-49166D01*
X77822Y-49159D01*
X77830Y-49155D01*
X77840Y-49152D01*
X77849Y-49151D01*
X77858Y-49151D01*
X77868Y-49154D01*
X77876Y-49158D01*
X77884Y-49164D01*
X77890Y-49172D01*
X77895Y-49180D01*
X77898Y-49189D01*
X77899Y-49199D01*
X77900Y-49200D01*
X77400Y-49200D02*
X77800Y-49200D01*
X77800Y-49200D02*
X77800Y-49800D01*
X77800Y-49800D02*
X77400Y-49800D01*
X77000Y-49800D02*
X76600Y-49800D01*
X76600Y-49800D02*
X76600Y-49200D01*
X76600Y-49200D02*
X77000Y-49200D01*
X33500Y-30900D02*
X33499Y-30909D01*
X33496Y-30919D01*
X33491Y-30927D01*
X33485Y-30935D01*
X33477Y-30941D01*
X33469Y-30946D01*
X33460Y-30948D01*
X33450Y-30949D01*
X33441Y-30949D01*
X33432Y-30946D01*
X33423Y-30941D01*
X33416Y-30935D01*
X33409Y-30928D01*
X33405Y-30919D01*
X33402Y-30910D01*
X33401Y-30900D01*
X33401Y-30891D01*
X33404Y-30882D01*
X33408Y-30873D01*
X33415Y-30866D01*
X33422Y-30859D01*
X33430Y-30855D01*
X33440Y-30852D01*
X33449Y-30851D01*
X33458Y-30851D01*
X33468Y-30854D01*
X33476Y-30858D01*
X33484Y-30864D01*
X33490Y-30872D01*
X33495Y-30880D01*
X33498Y-30889D01*
X33499Y-30899D01*
X33500Y-30900D01*
X33900Y-30900D02*
X33500Y-30900D01*
X33500Y-30900D02*
X33500Y-30300D01*
X33500Y-30300D02*
X33900Y-30300D01*
X34300Y-30300D02*
X34700Y-30300D01*
X34700Y-30300D02*
X34700Y-30900D01*
X34700Y-30900D02*
X34300Y-30900D01*
X34300Y-40100D02*
X34299Y-40109D01*
X34296Y-40119D01*
X34291Y-40127D01*
X34285Y-40135D01*
X34277Y-40141D01*
X34269Y-40146D01*
X34260Y-40148D01*
X34250Y-40149D01*
X34241Y-40149D01*
X34232Y-40146D01*
X34223Y-40141D01*
X34216Y-40135D01*
X34209Y-40128D01*
X34205Y-40119D01*
X34202Y-40110D01*
X34201Y-40100D01*
X34201Y-40091D01*
X34204Y-40082D01*
X34208Y-40073D01*
X34215Y-40066D01*
X34222Y-40059D01*
X34230Y-40055D01*
X34240Y-40052D01*
X34249Y-40051D01*
X34258Y-40051D01*
X34268Y-40054D01*
X34276Y-40058D01*
X34284Y-40064D01*
X34290Y-40072D01*
X34295Y-40080D01*
X34298Y-40089D01*
X34299Y-40099D01*
X34300Y-40100D01*
X33800Y-40100D02*
X34200Y-40100D01*
X34200Y-40100D02*
X34200Y-40700D01*
X34200Y-40700D02*
X33800Y-40700D01*
X33400Y-40700D02*
X33000Y-40700D01*
X33000Y-40700D02*
X33000Y-40100D01*
X33000Y-40100D02*
X33400Y-40100D01*
X32400Y-47700D02*
X32399Y-47709D01*
X32396Y-47719D01*
X32391Y-47727D01*
X32385Y-47735D01*
X32377Y-47741D01*
X32369Y-47746D01*
X32360Y-47748D01*
X32350Y-47749D01*
X32341Y-47749D01*
X32332Y-47746D01*
X32323Y-47741D01*
X32316Y-47735D01*
X32309Y-47728D01*
X32305Y-47719D01*
X32302Y-47710D01*
X32301Y-47700D01*
X32301Y-47691D01*
X32304Y-47682D01*
X32308Y-47673D01*
X32315Y-47666D01*
X32322Y-47659D01*
X32330Y-47655D01*
X32340Y-47652D01*
X32349Y-47651D01*
X32358Y-47651D01*
X32368Y-47654D01*
X32376Y-47658D01*
X32384Y-47664D01*
X32390Y-47672D01*
X32395Y-47680D01*
X32398Y-47689D01*
X32399Y-47699D01*
X32400Y-47700D01*
X31900Y-47700D02*
X32300Y-47700D01*
X32300Y-47700D02*
X32300Y-48300D01*
X32300Y-48300D02*
X31900Y-48300D01*
X31500Y-48300D02*
X31100Y-48300D01*
X31100Y-48300D02*
X31100Y-47700D01*
X31100Y-47700D02*
X31500Y-47700D01*
X40800Y-53400D02*
X40799Y-53409D01*
X40796Y-53419D01*
X40791Y-53427D01*
X40785Y-53435D01*
X40777Y-53441D01*
X40769Y-53446D01*
X40760Y-53448D01*
X40750Y-53449D01*
X40741Y-53449D01*
X40732Y-53446D01*
X40723Y-53441D01*
X40716Y-53435D01*
X40709Y-53428D01*
X40705Y-53419D01*
X40702Y-53410D01*
X40701Y-53400D01*
X40701Y-53391D01*
X40704Y-53382D01*
X40708Y-53373D01*
X40715Y-53366D01*
X40722Y-53359D01*
X40730Y-53355D01*
X40740Y-53352D01*
X40749Y-53351D01*
X40758Y-53351D01*
X40768Y-53354D01*
X40776Y-53358D01*
X40784Y-53364D01*
X40790Y-53372D01*
X40795Y-53380D01*
X40798Y-53389D01*
X40799Y-53399D01*
X40800Y-53400D01*
X40300Y-53400D02*
X40700Y-53400D01*
X40700Y-53400D02*
X40700Y-54000D01*
X40700Y-54000D02*
X40300Y-54000D01*
X39900Y-54000D02*
X39500Y-54000D01*
X39500Y-54000D02*
X39500Y-53400D01*
X39500Y-53400D02*
X39900Y-53400D01*
X38700Y-40600D02*
X38699Y-40609D01*
X38696Y-40619D01*
X38691Y-40627D01*
X38685Y-40635D01*
X38677Y-40641D01*
X38669Y-40646D01*
X38660Y-40648D01*
X38650Y-40649D01*
X38641Y-40649D01*
X38632Y-40646D01*
X38623Y-40641D01*
X38616Y-40635D01*
X38609Y-40628D01*
X38605Y-40619D01*
X38602Y-40610D01*
X38601Y-40600D01*
X38601Y-40591D01*
X38604Y-40582D01*
X38608Y-40573D01*
X38615Y-40566D01*
X38622Y-40559D01*
X38630Y-40555D01*
X38640Y-40552D01*
X38649Y-40551D01*
X38658Y-40551D01*
X38668Y-40554D01*
X38676Y-40558D01*
X38684Y-40564D01*
X38690Y-40572D01*
X38695Y-40580D01*
X38698Y-40589D01*
X38699Y-40599D01*
X38700Y-40600D01*
X38200Y-40600D02*
X38600Y-40600D01*
X38600Y-40600D02*
X38600Y-41200D01*
X38600Y-41200D02*
X38200Y-41200D01*
X37800Y-41200D02*
X37400Y-41200D01*
X37400Y-41200D02*
X37400Y-40600D01*
X37400Y-40600D02*
X37800Y-40600D01*
X42300Y-54000D02*
X42299Y-54009D01*
X42296Y-54019D01*
X42291Y-54027D01*
X42285Y-54035D01*
X42277Y-54041D01*
X42269Y-54046D01*
X42260Y-54048D01*
X42250Y-54049D01*
X42241Y-54049D01*
X42232Y-54046D01*
X42223Y-54041D01*
X42216Y-54035D01*
X42209Y-54028D01*
X42205Y-54019D01*
X42202Y-54010D01*
X42201Y-54000D01*
X42201Y-53991D01*
X42204Y-53982D01*
X42208Y-53973D01*
X42215Y-53966D01*
X42222Y-53959D01*
X42230Y-53955D01*
X42240Y-53952D01*
X42249Y-53951D01*
X42258Y-53951D01*
X42268Y-53954D01*
X42276Y-53958D01*
X42284Y-53964D01*
X42290Y-53972D01*
X42295Y-53980D01*
X42298Y-53989D01*
X42299Y-53999D01*
X42300Y-54000D01*
X42700Y-54000D02*
X42300Y-54000D01*
X42300Y-54000D02*
X42300Y-53400D01*
X42300Y-53400D02*
X42700Y-53400D01*
X43100Y-53400D02*
X43500Y-53400D01*
X43500Y-53400D02*
X43500Y-54000D01*
X43500Y-54000D02*
X43100Y-54000D01*
X30000Y-52100D02*
X29999Y-52109D01*
X29996Y-52119D01*
X29991Y-52127D01*
X29985Y-52135D01*
X29977Y-52141D01*
X29969Y-52146D01*
X29960Y-52148D01*
X29950Y-52149D01*
X29941Y-52149D01*
X29932Y-52146D01*
X29923Y-52141D01*
X29916Y-52135D01*
X29909Y-52128D01*
X29905Y-52119D01*
X29902Y-52110D01*
X29901Y-52100D01*
X29901Y-52091D01*
X29904Y-52082D01*
X29908Y-52073D01*
X29915Y-52066D01*
X29922Y-52059D01*
X29930Y-52055D01*
X29940Y-52052D01*
X29949Y-52051D01*
X29958Y-52051D01*
X29968Y-52054D01*
X29976Y-52058D01*
X29984Y-52064D01*
X29990Y-52072D01*
X29995Y-52080D01*
X29998Y-52089D01*
X29999Y-52099D01*
X30000Y-52100D01*
X30400Y-52100D02*
X30000Y-52100D01*
X30000Y-52100D02*
X30000Y-51500D01*
X30000Y-51500D02*
X30400Y-51500D01*
X30800Y-51500D02*
X31200Y-51500D01*
X31200Y-51500D02*
X31200Y-52100D01*
X31200Y-52100D02*
X30800Y-52100D01*
X81600Y-36550D02*
X81600Y-37450D01*
X81600Y-37450D02*
X82250Y-37450D01*
X82950Y-36550D02*
X83600Y-36550D01*
X83600Y-36550D02*
X83600Y-37450D01*
X83600Y-37450D02*
X82950Y-37450D01*
X82250Y-36550D02*
X81600Y-36550D01*
X81600Y-35550D02*
X81600Y-36450D01*
X81600Y-36450D02*
X82250Y-36450D01*
X82950Y-35550D02*
X83600Y-35550D01*
X83600Y-35550D02*
X83600Y-36450D01*
X83600Y-36450D02*
X82950Y-36450D01*
X82250Y-35550D02*
X81600Y-35550D01*
X81600Y-34550D02*
X81600Y-35450D01*
X81600Y-35450D02*
X82250Y-35450D01*
X82950Y-34550D02*
X83600Y-34550D01*
X83600Y-34550D02*
X83600Y-35450D01*
X83600Y-35450D02*
X82950Y-35450D01*
X82250Y-34550D02*
X81600Y-34550D01*
X81600Y-33550D02*
X81600Y-34450D01*
X81600Y-34450D02*
X82250Y-34450D01*
X82950Y-33550D02*
X83600Y-33550D01*
X83600Y-33550D02*
X83600Y-34450D01*
X83600Y-34450D02*
X82950Y-34450D01*
X82250Y-33550D02*
X81600Y-33550D01*
X81600Y-32550D02*
X81600Y-33450D01*
X81600Y-33450D02*
X82250Y-33450D01*
X82950Y-32550D02*
X83600Y-32550D01*
X83600Y-32550D02*
X83600Y-33450D01*
X83600Y-33450D02*
X82950Y-33450D01*
X82250Y-32550D02*
X81600Y-32550D01*
X81600Y-31550D02*
X81600Y-32450D01*
X81600Y-32450D02*
X82250Y-32450D01*
X82950Y-31550D02*
X83600Y-31550D01*
X83600Y-31550D02*
X83600Y-32450D01*
X83600Y-32450D02*
X82950Y-32450D01*
X82250Y-31550D02*
X81600Y-31550D01*
X81600Y-30550D02*
X81600Y-31450D01*
X81600Y-31450D02*
X82250Y-31450D01*
X82950Y-30550D02*
X83600Y-30550D01*
X83600Y-30550D02*
X83600Y-31450D01*
X83600Y-31450D02*
X82950Y-31450D01*
X82250Y-30550D02*
X81600Y-30550D01*
X81600Y-29550D02*
X81600Y-30450D01*
X81600Y-30450D02*
X82250Y-30450D01*
X82950Y-29550D02*
X83600Y-29550D01*
X83600Y-29550D02*
X83600Y-30450D01*
X83600Y-30450D02*
X82950Y-30450D01*
X82250Y-29550D02*
X81600Y-29550D01*
X81600Y-28550D02*
X81600Y-29450D01*
X81600Y-29450D02*
X82250Y-29450D01*
X82950Y-28550D02*
X83600Y-28550D01*
X83600Y-28550D02*
X83600Y-29450D01*
X83600Y-29450D02*
X82950Y-29450D01*
X82250Y-28550D02*
X81600Y-28550D01*
X81600Y-27550D02*
X81600Y-28450D01*
X81600Y-28450D02*
X82250Y-28450D01*
X82950Y-27550D02*
X83600Y-27550D01*
X83600Y-27550D02*
X83600Y-28450D01*
X83600Y-28450D02*
X82950Y-28450D01*
X82250Y-27550D02*
X81600Y-27550D01*
X81600Y-26550D02*
X81600Y-27450D01*
X81600Y-27450D02*
X82250Y-27450D01*
X82950Y-26550D02*
X83600Y-26550D01*
X83600Y-26550D02*
X83600Y-27450D01*
X83600Y-27450D02*
X82950Y-27450D01*
X82250Y-26550D02*
X81600Y-26550D01*
X81600Y-25550D02*
X81600Y-26450D01*
X81600Y-26450D02*
X82250Y-26450D01*
X82950Y-25550D02*
X83600Y-25550D01*
X83600Y-25550D02*
X83600Y-26450D01*
X83600Y-26450D02*
X82950Y-26450D01*
X82250Y-25550D02*
X81600Y-25550D01*
X81600Y-24550D02*
X81600Y-25450D01*
X81600Y-25450D02*
X82250Y-25450D01*
X82950Y-24550D02*
X83600Y-24550D01*
X83600Y-24550D02*
X83600Y-25450D01*
X83600Y-25450D02*
X82950Y-25450D01*
X82250Y-24550D02*
X81600Y-24550D01*
X81600Y-23550D02*
X81600Y-24450D01*
X81600Y-24450D02*
X82250Y-24450D01*
X82950Y-23550D02*
X83600Y-23550D01*
X83600Y-23550D02*
X83600Y-24450D01*
X83600Y-24450D02*
X82950Y-24450D01*
X82250Y-23550D02*
X81600Y-23550D01*
X81600Y-37550D02*
X81600Y-38450D01*
X81600Y-38450D02*
X82250Y-38450D01*
X82950Y-37550D02*
X83600Y-37550D01*
X83600Y-37550D02*
X83600Y-38450D01*
X83600Y-38450D02*
X82950Y-38450D01*
X82250Y-37550D02*
X81600Y-37550D01*
X81600Y-38550D02*
X81600Y-39450D01*
X81600Y-39450D02*
X82250Y-39450D01*
X82950Y-38550D02*
X83600Y-38550D01*
X83600Y-38550D02*
X83600Y-39450D01*
X83600Y-39450D02*
X82950Y-39450D01*
X82250Y-38550D02*
X81600Y-38550D01*
X46600Y-25350D02*
X46600Y-24450D01*
X46600Y-24450D02*
X45950Y-24450D01*
X45250Y-25350D02*
X44600Y-25350D01*
X44600Y-25350D02*
X44600Y-24450D01*
X44600Y-24450D02*
X45250Y-24450D01*
X45950Y-25350D02*
X46600Y-25350D01*
X46600Y-29050D02*
X46600Y-28150D01*
X46600Y-28150D02*
X45950Y-28150D01*
X45250Y-29050D02*
X44600Y-29050D01*
X44600Y-29050D02*
X44600Y-28150D01*
X44600Y-28150D02*
X45250Y-28150D01*
X45950Y-29050D02*
X46600Y-29050D01*
X41100Y-25350D02*
X41100Y-24450D01*
X41100Y-24450D02*
X40450Y-24450D01*
X39750Y-25350D02*
X39100Y-25350D01*
X39100Y-25350D02*
X39100Y-24450D01*
X39100Y-24450D02*
X39750Y-24450D01*
X40450Y-25350D02*
X41100Y-25350D01*
X41100Y-29050D02*
X41100Y-28150D01*
X41100Y-28150D02*
X40450Y-28150D01*
X39750Y-29050D02*
X39100Y-29050D01*
X39100Y-29050D02*
X39100Y-28150D01*
X39100Y-28150D02*
X39750Y-28150D01*
X40450Y-29050D02*
X41100Y-29050D01*
X35600Y-25350D02*
X35600Y-24450D01*
X35600Y-24450D02*
X34950Y-24450D01*
X34250Y-25350D02*
X33600Y-25350D01*
X33600Y-25350D02*
X33600Y-24450D01*
X33600Y-24450D02*
X34250Y-24450D01*
X34950Y-25350D02*
X35600Y-25350D01*
X35600Y-29050D02*
X35600Y-28150D01*
X35600Y-28150D02*
X34950Y-28150D01*
X34250Y-29050D02*
X33600Y-29050D01*
X33600Y-29050D02*
X33600Y-28150D01*
X33600Y-28150D02*
X34250Y-28150D01*
X34950Y-29050D02*
X35600Y-29050D01*
X30100Y-25350D02*
X30100Y-24450D01*
X30100Y-24450D02*
X29450Y-24450D01*
X28750Y-25350D02*
X28100Y-25350D01*
X28100Y-25350D02*
X28100Y-24450D01*
X28100Y-24450D02*
X28750Y-24450D01*
X29450Y-25350D02*
X30100Y-25350D01*
X30100Y-29050D02*
X30100Y-28150D01*
X30100Y-28150D02*
X29450Y-28150D01*
X28750Y-29050D02*
X28100Y-29050D01*
X28100Y-29050D02*
X28100Y-28150D01*
X28100Y-28150D02*
X28750Y-28150D01*
X29450Y-29050D02*
X30100Y-29050D01*
X34600Y-39950D02*
X34600Y-40850D01*
X34600Y-40850D02*
X35250Y-40850D01*
X35950Y-39950D02*
X36600Y-39950D01*
X36600Y-39950D02*
X36600Y-40850D01*
X36600Y-40850D02*
X35950Y-40850D01*
X35250Y-39950D02*
X34600Y-39950D01*
X34600Y-38550D02*
X34600Y-39450D01*
X34600Y-39450D02*
X35250Y-39450D01*
X35950Y-38550D02*
X36600Y-38550D01*
X36600Y-38550D02*
X36600Y-39450D01*
X36600Y-39450D02*
X35950Y-39450D01*
X35250Y-38550D02*
X34600Y-38550D01*
X36600Y-38350D02*
X36600Y-37450D01*
X36600Y-37450D02*
X35950Y-37450D01*
X35250Y-38350D02*
X34600Y-38350D01*
X34600Y-38350D02*
X34600Y-37450D01*
X34600Y-37450D02*
X35250Y-37450D01*
X35950Y-38350D02*
X36600Y-38350D01*
X37000Y-37450D02*
X37000Y-38350D01*
X37000Y-38350D02*
X37650Y-38350D01*
X38350Y-37450D02*
X39000Y-37450D01*
X39000Y-37450D02*
X39000Y-38350D01*
X39000Y-38350D02*
X38350Y-38350D01*
X37650Y-37450D02*
X37000Y-37450D01*
X81600Y-39550D02*
X81600Y-40450D01*
X81600Y-40450D02*
X82250Y-40450D01*
X82950Y-39550D02*
X83600Y-39550D01*
X83600Y-39550D02*
X83600Y-40450D01*
X83600Y-40450D02*
X82950Y-40450D01*
X82250Y-39550D02*
X81600Y-39550D01*
X81600Y-40550D02*
X81600Y-41450D01*
X81600Y-41450D02*
X82250Y-41450D01*
X82950Y-40550D02*
X83600Y-40550D01*
X83600Y-40550D02*
X83600Y-41450D01*
X83600Y-41450D02*
X82950Y-41450D01*
X82250Y-40550D02*
X81600Y-40550D01*
X81600Y-41550D02*
X81600Y-42450D01*
X81600Y-42450D02*
X82250Y-42450D01*
X82950Y-41550D02*
X83600Y-41550D01*
X83600Y-41550D02*
X83600Y-42450D01*
X83600Y-42450D02*
X82950Y-42450D01*
X82250Y-41550D02*
X81600Y-41550D01*
X81600Y-42550D02*
X81600Y-43450D01*
X81600Y-43450D02*
X82250Y-43450D01*
X82950Y-42550D02*
X83600Y-42550D01*
X83600Y-42550D02*
X83600Y-43450D01*
X83600Y-43450D02*
X82950Y-43450D01*
X82250Y-42550D02*
X81600Y-42550D01*
X81600Y-43550D02*
X81600Y-44450D01*
X81600Y-44450D02*
X82250Y-44450D01*
X82950Y-43550D02*
X83600Y-43550D01*
X83600Y-43550D02*
X83600Y-44450D01*
X83600Y-44450D02*
X82950Y-44450D01*
X82250Y-43550D02*
X81600Y-43550D01*
X32700Y-49450D02*
X32700Y-48550D01*
X32700Y-48550D02*
X32050Y-48550D01*
X31350Y-49450D02*
X30700Y-49450D01*
X30700Y-49450D02*
X30700Y-48550D01*
X30700Y-48550D02*
X31350Y-48550D01*
X32050Y-49450D02*
X32700Y-49450D01*
X81600Y-44550D02*
X81600Y-45450D01*
X81600Y-45450D02*
X82250Y-45450D01*
X82950Y-44550D02*
X83600Y-44550D01*
X83600Y-44550D02*
X83600Y-45450D01*
X83600Y-45450D02*
X82950Y-45450D01*
X82250Y-44550D02*
X81600Y-44550D01*
X81600Y-45550D02*
X81600Y-46450D01*
X81600Y-46450D02*
X82250Y-46450D01*
X82950Y-45550D02*
X83600Y-45550D01*
X83600Y-45550D02*
X83600Y-46450D01*
X83600Y-46450D02*
X82950Y-46450D01*
X82250Y-45550D02*
X81600Y-45550D01*
X81600Y-46550D02*
X81600Y-47450D01*
X81600Y-47450D02*
X82250Y-47450D01*
X82950Y-46550D02*
X83600Y-46550D01*
X83600Y-46550D02*
X83600Y-47450D01*
X83600Y-47450D02*
X82950Y-47450D01*
X82250Y-46550D02*
X81600Y-46550D01*
X81600Y-47550D02*
X81600Y-48450D01*
X81600Y-48450D02*
X82250Y-48450D01*
X82950Y-47550D02*
X83600Y-47550D01*
X83600Y-47550D02*
X83600Y-48450D01*
X83600Y-48450D02*
X82950Y-48450D01*
X82250Y-47550D02*
X81600Y-47550D01*
X81600Y-48550D02*
X81600Y-49450D01*
X81600Y-49450D02*
X82250Y-49450D01*
X82950Y-48550D02*
X83600Y-48550D01*
X83600Y-48550D02*
X83600Y-49450D01*
X83600Y-49450D02*
X82950Y-49450D01*
X82250Y-48550D02*
X81600Y-48550D01*
X81600Y-49550D02*
X81600Y-50450D01*
X81600Y-50450D02*
X82250Y-50450D01*
X82950Y-49550D02*
X83600Y-49550D01*
X83600Y-49550D02*
X83600Y-50450D01*
X83600Y-50450D02*
X82950Y-50450D01*
X82250Y-49550D02*
X81600Y-49550D01*
X81600Y-50550D02*
X81600Y-51450D01*
X81600Y-51450D02*
X82250Y-51450D01*
X82950Y-50550D02*
X83600Y-50550D01*
X83600Y-50550D02*
X83600Y-51450D01*
X83600Y-51450D02*
X82950Y-51450D01*
X82250Y-50550D02*
X81600Y-50550D01*
X81600Y-51550D02*
X81600Y-52450D01*
X81600Y-52450D02*
X82250Y-52450D01*
X82950Y-51550D02*
X83600Y-51550D01*
X83600Y-51550D02*
X83600Y-52450D01*
X83600Y-52450D02*
X82950Y-52450D01*
X82250Y-51550D02*
X81600Y-51550D01*
X81600Y-52550D02*
X81600Y-53450D01*
X81600Y-53450D02*
X82250Y-53450D01*
X82950Y-52550D02*
X83600Y-52550D01*
X83600Y-52550D02*
X83600Y-53450D01*
X83600Y-53450D02*
X82950Y-53450D01*
X82250Y-52550D02*
X81600Y-52550D01*
X81600Y-53550D02*
X81600Y-54450D01*
X81600Y-54450D02*
X82250Y-54450D01*
X82950Y-53550D02*
X83600Y-53550D01*
X83600Y-53550D02*
X83600Y-54450D01*
X83600Y-54450D02*
X82950Y-54450D01*
X82250Y-53550D02*
X81600Y-53550D01*
X81600Y-54550D02*
X81600Y-55450D01*
X81600Y-55450D02*
X82250Y-55450D01*
X82950Y-54550D02*
X83600Y-54550D01*
X83600Y-54550D02*
X83600Y-55450D01*
X83600Y-55450D02*
X82950Y-55450D01*
X82250Y-54550D02*
X81600Y-54550D01*
X28000Y-56050D02*
X28000Y-55150D01*
X28000Y-55150D02*
X27350Y-55150D01*
X26650Y-56050D02*
X26000Y-56050D01*
X26000Y-56050D02*
X26000Y-55150D01*
X26000Y-55150D02*
X26650Y-55150D01*
X27350Y-56050D02*
X28000Y-56050D01*
X28000Y-57050D02*
X28000Y-56150D01*
X28000Y-56150D02*
X27350Y-56150D01*
X26650Y-57050D02*
X26000Y-57050D01*
X26000Y-57050D02*
X26000Y-56150D01*
X26000Y-56150D02*
X26650Y-56150D01*
X27350Y-57050D02*
X28000Y-57050D01*
X28000Y-58050D02*
X28000Y-57150D01*
X28000Y-57150D02*
X27350Y-57150D01*
X26650Y-58050D02*
X26000Y-58050D01*
X26000Y-58050D02*
X26000Y-57150D01*
X26000Y-57150D02*
X26650Y-57150D01*
X27350Y-58050D02*
X28000Y-58050D01*
X33200Y-56150D02*
X33200Y-57050D01*
X33200Y-57050D02*
X33850Y-57050D01*
X34550Y-56150D02*
X35200Y-56150D01*
X35200Y-56150D02*
X35200Y-57050D01*
X35200Y-57050D02*
X34550Y-57050D01*
X33850Y-56150D02*
X33200Y-56150D01*
X33200Y-55150D02*
X33200Y-56050D01*
X33200Y-56050D02*
X33850Y-56050D01*
X34550Y-55150D02*
X35200Y-55150D01*
X35200Y-55150D02*
X35200Y-56050D01*
X35200Y-56050D02*
X34550Y-56050D01*
X33850Y-55150D02*
X33200Y-55150D01*
X33200Y-54150D02*
X33200Y-55050D01*
X33200Y-55050D02*
X33850Y-55050D01*
X34550Y-54150D02*
X35200Y-54150D01*
X35200Y-54150D02*
X35200Y-55050D01*
X35200Y-55050D02*
X34550Y-55050D01*
X33850Y-54150D02*
X33200Y-54150D01*
X38300Y-39900D02*
X38100Y-40200D01*
X38300Y-39200D02*
X38300Y-40225D01*
X38300Y-40225D02*
X37700Y-40225D01*
X37700Y-40225D02*
X37700Y-39200D01*
X37700Y-39200D02*
X38300Y-39200D01*
G54D16*
X31257Y-44100D02*
X31244Y-44227D01*
X31207Y-44350D01*
X31147Y-44463D01*
X31066Y-44562D01*
X30967Y-44644D01*
X30854Y-44705D01*
X30732Y-44743D01*
X30604Y-44756D01*
X30477Y-44745D01*
X30354Y-44709D01*
X30241Y-44649D01*
X30141Y-44569D01*
X30058Y-44471D01*
X29997Y-44358D01*
X29958Y-44236D01*
X29944Y-44109D01*
X29954Y-43982D01*
X29990Y-43859D01*
X30048Y-43745D01*
X30128Y-43644D01*
X30226Y-43561D01*
X30337Y-43498D01*
X30459Y-43459D01*
X30587Y-43444D01*
X30714Y-43453D01*
X30837Y-43488D01*
X30952Y-43546D01*
X31053Y-43625D01*
X31136Y-43722D01*
X31200Y-43833D01*
X31240Y-43955D01*
X31256Y-44082D01*
X31257Y-44100D01*
G54D12*
X29100Y-45600D02*
X29100Y-42600D01*
X29100Y-42600D02*
X32100Y-42600D01*
X32100Y-42600D02*
X32100Y-45600D01*
X29100Y-45600D02*
X32100Y-45600D01*
G54D17*
X30900Y-27700D02*
X26700Y-27700D01*
X26700Y-27700D02*
X26700Y-28000D01*
X30900Y-28000D02*
X26700Y-28000D01*
X30900Y-27700D02*
X30900Y-28000D01*
X30900Y-27500D02*
X30150Y-27500D01*
X30150Y-27500D02*
X30150Y-27700D01*
X30900Y-27700D02*
X30150Y-27700D01*
X30900Y-27500D02*
X30900Y-27700D01*
X29450Y-27500D02*
X29150Y-27500D01*
X29150Y-27500D02*
X29150Y-27700D01*
X29450Y-27700D02*
X29150Y-27700D01*
X29450Y-27500D02*
X29450Y-27700D01*
X30150Y-27500D02*
X29450Y-27500D01*
X29450Y-27500D02*
X29450Y-27700D01*
X30150Y-27700D02*
X29450Y-27700D01*
X30150Y-27500D02*
X30150Y-27700D01*
X28450Y-27500D02*
X28150Y-27500D01*
X28150Y-27500D02*
X28150Y-27700D01*
X28450Y-27700D02*
X28150Y-27700D01*
X28450Y-27500D02*
X28450Y-27700D01*
X27450Y-27500D02*
X26700Y-27500D01*
X26700Y-27500D02*
X26700Y-27700D01*
X27450Y-27700D02*
X26700Y-27700D01*
X27450Y-27500D02*
X27450Y-27700D01*
X29150Y-27500D02*
X28450Y-27500D01*
X28450Y-27500D02*
X28450Y-27700D01*
X29150Y-27700D02*
X28450Y-27700D01*
X29150Y-27500D02*
X29150Y-27700D01*
X28150Y-27500D02*
X27450Y-27500D01*
X27450Y-27500D02*
X27450Y-27700D01*
X28150Y-27700D02*
X27450Y-27700D01*
X28150Y-27500D02*
X28150Y-27700D01*
G54D10*
X26950Y-26300D02*
X26850Y-26400D01*
X26950Y-26300D02*
X30650Y-26300D01*
X30750Y-26400D02*
X30650Y-26300D01*
X26800Y-27550D02*
X26850Y-26400D01*
X30750Y-26400D02*
X30800Y-27550D01*
G54D18*
X30640Y-26540D02*
X30638Y-26553D01*
X30634Y-26566D01*
X30628Y-26578D01*
X30619Y-26589D01*
X30609Y-26598D01*
X30597Y-26604D01*
X30584Y-26608D01*
X30570Y-26609D01*
X30557Y-26608D01*
X30544Y-26604D01*
X30532Y-26598D01*
X30522Y-26590D01*
X30513Y-26579D01*
X30506Y-26567D01*
X30502Y-26554D01*
X30501Y-26540D01*
X30502Y-26528D01*
X30505Y-26515D01*
X30512Y-26503D01*
X30520Y-26492D01*
X30531Y-26483D01*
X30542Y-26476D01*
X30555Y-26472D01*
X30569Y-26471D01*
X30582Y-26472D01*
X30595Y-26475D01*
X30607Y-26481D01*
X30618Y-26490D01*
X30627Y-26500D01*
X30633Y-26512D01*
X30638Y-26525D01*
X30639Y-26539D01*
X30640Y-26540D01*
G54D17*
X30900Y-24000D02*
X26700Y-24000D01*
X26700Y-24000D02*
X26700Y-24300D01*
X30900Y-24300D02*
X26700Y-24300D01*
X30900Y-24000D02*
X30900Y-24300D01*
X30900Y-23800D02*
X30150Y-23800D01*
X30150Y-23800D02*
X30150Y-24000D01*
X30900Y-24000D02*
X30150Y-24000D01*
X30900Y-23800D02*
X30900Y-24000D01*
X29450Y-23800D02*
X29150Y-23800D01*
X29150Y-23800D02*
X29150Y-24000D01*
X29450Y-24000D02*
X29150Y-24000D01*
X29450Y-23800D02*
X29450Y-24000D01*
X30150Y-23800D02*
X29450Y-23800D01*
X29450Y-23800D02*
X29450Y-24000D01*
X30150Y-24000D02*
X29450Y-24000D01*
X30150Y-23800D02*
X30150Y-24000D01*
X28450Y-23800D02*
X28150Y-23800D01*
X28150Y-23800D02*
X28150Y-24000D01*
X28450Y-24000D02*
X28150Y-24000D01*
X28450Y-23800D02*
X28450Y-24000D01*
X27450Y-23800D02*
X26700Y-23800D01*
X26700Y-23800D02*
X26700Y-24000D01*
X27450Y-24000D02*
X26700Y-24000D01*
X27450Y-23800D02*
X27450Y-24000D01*
X29150Y-23800D02*
X28450Y-23800D01*
X28450Y-23800D02*
X28450Y-24000D01*
X29150Y-24000D02*
X28450Y-24000D01*
X29150Y-23800D02*
X29150Y-24000D01*
X28150Y-23800D02*
X27450Y-23800D01*
X27450Y-23800D02*
X27450Y-24000D01*
X28150Y-24000D02*
X27450Y-24000D01*
X28150Y-23800D02*
X28150Y-24000D01*
G54D10*
X26950Y-22600D02*
X26850Y-22700D01*
X26950Y-22600D02*
X30650Y-22600D01*
X30750Y-22700D02*
X30650Y-22600D01*
X26800Y-23850D02*
X26850Y-22700D01*
X30750Y-22700D02*
X30800Y-23850D01*
G54D18*
X30640Y-22840D02*
X30638Y-22853D01*
X30634Y-22866D01*
X30628Y-22878D01*
X30619Y-22889D01*
X30609Y-22898D01*
X30597Y-22904D01*
X30584Y-22908D01*
X30570Y-22909D01*
X30557Y-22908D01*
X30544Y-22904D01*
X30532Y-22898D01*
X30522Y-22890D01*
X30513Y-22879D01*
X30506Y-22867D01*
X30502Y-22854D01*
X30501Y-22840D01*
X30502Y-22828D01*
X30505Y-22815D01*
X30512Y-22803D01*
X30520Y-22792D01*
X30531Y-22783D01*
X30542Y-22776D01*
X30555Y-22772D01*
X30569Y-22771D01*
X30582Y-22772D01*
X30595Y-22775D01*
X30607Y-22781D01*
X30618Y-22790D01*
X30627Y-22800D01*
X30633Y-22812D01*
X30638Y-22825D01*
X30639Y-22839D01*
X30640Y-22840D01*
G54D17*
X36400Y-27700D02*
X32200Y-27700D01*
X32200Y-27700D02*
X32200Y-28000D01*
X36400Y-28000D02*
X32200Y-28000D01*
X36400Y-27700D02*
X36400Y-28000D01*
X36400Y-27500D02*
X35650Y-27500D01*
X35650Y-27500D02*
X35650Y-27700D01*
X36400Y-27700D02*
X35650Y-27700D01*
X36400Y-27500D02*
X36400Y-27700D01*
X34950Y-27500D02*
X34650Y-27500D01*
X34650Y-27500D02*
X34650Y-27700D01*
X34950Y-27700D02*
X34650Y-27700D01*
X34950Y-27500D02*
X34950Y-27700D01*
X35650Y-27500D02*
X34950Y-27500D01*
X34950Y-27500D02*
X34950Y-27700D01*
X35650Y-27700D02*
X34950Y-27700D01*
X35650Y-27500D02*
X35650Y-27700D01*
X33950Y-27500D02*
X33650Y-27500D01*
X33650Y-27500D02*
X33650Y-27700D01*
X33950Y-27700D02*
X33650Y-27700D01*
X33950Y-27500D02*
X33950Y-27700D01*
X32950Y-27500D02*
X32200Y-27500D01*
X32200Y-27500D02*
X32200Y-27700D01*
X32950Y-27700D02*
X32200Y-27700D01*
X32950Y-27500D02*
X32950Y-27700D01*
X34650Y-27500D02*
X33950Y-27500D01*
X33950Y-27500D02*
X33950Y-27700D01*
X34650Y-27700D02*
X33950Y-27700D01*
X34650Y-27500D02*
X34650Y-27700D01*
X33650Y-27500D02*
X32950Y-27500D01*
X32950Y-27500D02*
X32950Y-27700D01*
X33650Y-27700D02*
X32950Y-27700D01*
X33650Y-27500D02*
X33650Y-27700D01*
G54D10*
X32450Y-26300D02*
X32350Y-26400D01*
X32450Y-26300D02*
X36150Y-26300D01*
X36250Y-26400D02*
X36150Y-26300D01*
X32300Y-27550D02*
X32350Y-26400D01*
X36250Y-26400D02*
X36300Y-27550D01*
G54D18*
X36140Y-26540D02*
X36138Y-26553D01*
X36134Y-26566D01*
X36128Y-26578D01*
X36119Y-26589D01*
X36109Y-26598D01*
X36097Y-26604D01*
X36084Y-26608D01*
X36070Y-26609D01*
X36057Y-26608D01*
X36044Y-26604D01*
X36032Y-26598D01*
X36022Y-26590D01*
X36013Y-26579D01*
X36006Y-26567D01*
X36002Y-26554D01*
X36001Y-26540D01*
X36002Y-26528D01*
X36005Y-26515D01*
X36012Y-26503D01*
X36020Y-26492D01*
X36031Y-26483D01*
X36042Y-26476D01*
X36055Y-26472D01*
X36069Y-26471D01*
X36082Y-26472D01*
X36095Y-26475D01*
X36107Y-26481D01*
X36118Y-26490D01*
X36127Y-26500D01*
X36133Y-26512D01*
X36138Y-26525D01*
X36139Y-26539D01*
X36140Y-26540D01*
G54D17*
X36400Y-24000D02*
X32200Y-24000D01*
X32200Y-24000D02*
X32200Y-24300D01*
X36400Y-24300D02*
X32200Y-24300D01*
X36400Y-24000D02*
X36400Y-24300D01*
X36400Y-23800D02*
X35650Y-23800D01*
X35650Y-23800D02*
X35650Y-24000D01*
X36400Y-24000D02*
X35650Y-24000D01*
X36400Y-23800D02*
X36400Y-24000D01*
X34950Y-23800D02*
X34650Y-23800D01*
X34650Y-23800D02*
X34650Y-24000D01*
X34950Y-24000D02*
X34650Y-24000D01*
X34950Y-23800D02*
X34950Y-24000D01*
X35650Y-23800D02*
X34950Y-23800D01*
X34950Y-23800D02*
X34950Y-24000D01*
X35650Y-24000D02*
X34950Y-24000D01*
X35650Y-23800D02*
X35650Y-24000D01*
X33950Y-23800D02*
X33650Y-23800D01*
X33650Y-23800D02*
X33650Y-24000D01*
X33950Y-24000D02*
X33650Y-24000D01*
X33950Y-23800D02*
X33950Y-24000D01*
X32950Y-23800D02*
X32200Y-23800D01*
X32200Y-23800D02*
X32200Y-24000D01*
X32950Y-24000D02*
X32200Y-24000D01*
X32950Y-23800D02*
X32950Y-24000D01*
X34650Y-23800D02*
X33950Y-23800D01*
X33950Y-23800D02*
X33950Y-24000D01*
X34650Y-24000D02*
X33950Y-24000D01*
X34650Y-23800D02*
X34650Y-24000D01*
X33650Y-23800D02*
X32950Y-23800D01*
X32950Y-23800D02*
X32950Y-24000D01*
X33650Y-24000D02*
X32950Y-24000D01*
X33650Y-23800D02*
X33650Y-24000D01*
G54D10*
X32450Y-22600D02*
X32350Y-22700D01*
X32450Y-22600D02*
X36150Y-22600D01*
X36250Y-22700D02*
X36150Y-22600D01*
X32300Y-23850D02*
X32350Y-22700D01*
X36250Y-22700D02*
X36300Y-23850D01*
G54D18*
X36140Y-22840D02*
X36138Y-22853D01*
X36134Y-22866D01*
X36128Y-22878D01*
X36119Y-22889D01*
X36109Y-22898D01*
X36097Y-22904D01*
X36084Y-22908D01*
X36070Y-22909D01*
X36057Y-22908D01*
X36044Y-22904D01*
X36032Y-22898D01*
X36022Y-22890D01*
X36013Y-22879D01*
X36006Y-22867D01*
X36002Y-22854D01*
X36001Y-22840D01*
X36002Y-22828D01*
X36005Y-22815D01*
X36012Y-22803D01*
X36020Y-22792D01*
X36031Y-22783D01*
X36042Y-22776D01*
X36055Y-22772D01*
X36069Y-22771D01*
X36082Y-22772D01*
X36095Y-22775D01*
X36107Y-22781D01*
X36118Y-22790D01*
X36127Y-22800D01*
X36133Y-22812D01*
X36138Y-22825D01*
X36139Y-22839D01*
X36140Y-22840D01*
G54D17*
X41900Y-27700D02*
X37700Y-27700D01*
X37700Y-27700D02*
X37700Y-28000D01*
X41900Y-28000D02*
X37700Y-28000D01*
X41900Y-27700D02*
X41900Y-28000D01*
X41900Y-27500D02*
X41150Y-27500D01*
X41150Y-27500D02*
X41150Y-27700D01*
X41900Y-27700D02*
X41150Y-27700D01*
X41900Y-27500D02*
X41900Y-27700D01*
X40450Y-27500D02*
X40150Y-27500D01*
X40150Y-27500D02*
X40150Y-27700D01*
X40450Y-27700D02*
X40150Y-27700D01*
X40450Y-27500D02*
X40450Y-27700D01*
X41150Y-27500D02*
X40450Y-27500D01*
X40450Y-27500D02*
X40450Y-27700D01*
X41150Y-27700D02*
X40450Y-27700D01*
X41150Y-27500D02*
X41150Y-27700D01*
X39450Y-27500D02*
X39150Y-27500D01*
X39150Y-27500D02*
X39150Y-27700D01*
X39450Y-27700D02*
X39150Y-27700D01*
X39450Y-27500D02*
X39450Y-27700D01*
X38450Y-27500D02*
X37700Y-27500D01*
X37700Y-27500D02*
X37700Y-27700D01*
X38450Y-27700D02*
X37700Y-27700D01*
X38450Y-27500D02*
X38450Y-27700D01*
X40150Y-27500D02*
X39450Y-27500D01*
X39450Y-27500D02*
X39450Y-27700D01*
X40150Y-27700D02*
X39450Y-27700D01*
X40150Y-27500D02*
X40150Y-27700D01*
X39150Y-27500D02*
X38450Y-27500D01*
X38450Y-27500D02*
X38450Y-27700D01*
X39150Y-27700D02*
X38450Y-27700D01*
X39150Y-27500D02*
X39150Y-27700D01*
G54D10*
X37950Y-26300D02*
X37850Y-26400D01*
X37950Y-26300D02*
X41650Y-26300D01*
X41750Y-26400D02*
X41650Y-26300D01*
X37800Y-27550D02*
X37850Y-26400D01*
X41750Y-26400D02*
X41800Y-27550D01*
G54D18*
X41640Y-26540D02*
X41638Y-26553D01*
X41634Y-26566D01*
X41628Y-26578D01*
X41619Y-26589D01*
X41609Y-26598D01*
X41597Y-26604D01*
X41584Y-26608D01*
X41570Y-26609D01*
X41557Y-26608D01*
X41544Y-26604D01*
X41532Y-26598D01*
X41522Y-26590D01*
X41513Y-26579D01*
X41506Y-26567D01*
X41502Y-26554D01*
X41501Y-26540D01*
X41502Y-26528D01*
X41505Y-26515D01*
X41512Y-26503D01*
X41520Y-26492D01*
X41531Y-26483D01*
X41542Y-26476D01*
X41555Y-26472D01*
X41569Y-26471D01*
X41582Y-26472D01*
X41595Y-26475D01*
X41607Y-26481D01*
X41618Y-26490D01*
X41627Y-26500D01*
X41633Y-26512D01*
X41638Y-26525D01*
X41639Y-26539D01*
X41640Y-26540D01*
G54D17*
X41900Y-24000D02*
X37700Y-24000D01*
X37700Y-24000D02*
X37700Y-24300D01*
X41900Y-24300D02*
X37700Y-24300D01*
X41900Y-24000D02*
X41900Y-24300D01*
X41900Y-23800D02*
X41150Y-23800D01*
X41150Y-23800D02*
X41150Y-24000D01*
X41900Y-24000D02*
X41150Y-24000D01*
X41900Y-23800D02*
X41900Y-24000D01*
X40450Y-23800D02*
X40150Y-23800D01*
X40150Y-23800D02*
X40150Y-24000D01*
X40450Y-24000D02*
X40150Y-24000D01*
X40450Y-23800D02*
X40450Y-24000D01*
X41150Y-23800D02*
X40450Y-23800D01*
X40450Y-23800D02*
X40450Y-24000D01*
X41150Y-24000D02*
X40450Y-24000D01*
X41150Y-23800D02*
X41150Y-24000D01*
X39450Y-23800D02*
X39150Y-23800D01*
X39150Y-23800D02*
X39150Y-24000D01*
X39450Y-24000D02*
X39150Y-24000D01*
X39450Y-23800D02*
X39450Y-24000D01*
X38450Y-23800D02*
X37700Y-23800D01*
X37700Y-23800D02*
X37700Y-24000D01*
X38450Y-24000D02*
X37700Y-24000D01*
X38450Y-23800D02*
X38450Y-24000D01*
X40150Y-23800D02*
X39450Y-23800D01*
X39450Y-23800D02*
X39450Y-24000D01*
X40150Y-24000D02*
X39450Y-24000D01*
X40150Y-23800D02*
X40150Y-24000D01*
X39150Y-23800D02*
X38450Y-23800D01*
X38450Y-23800D02*
X38450Y-24000D01*
X39150Y-24000D02*
X38450Y-24000D01*
X39150Y-23800D02*
X39150Y-24000D01*
G54D10*
X37950Y-22600D02*
X37850Y-22700D01*
X37950Y-22600D02*
X41650Y-22600D01*
X41750Y-22700D02*
X41650Y-22600D01*
X37800Y-23850D02*
X37850Y-22700D01*
X41750Y-22700D02*
X41800Y-23850D01*
G54D18*
X41640Y-22840D02*
X41638Y-22853D01*
X41634Y-22866D01*
X41628Y-22878D01*
X41619Y-22889D01*
X41609Y-22898D01*
X41597Y-22904D01*
X41584Y-22908D01*
X41570Y-22909D01*
X41557Y-22908D01*
X41544Y-22904D01*
X41532Y-22898D01*
X41522Y-22890D01*
X41513Y-22879D01*
X41506Y-22867D01*
X41502Y-22854D01*
X41501Y-22840D01*
X41502Y-22828D01*
X41505Y-22815D01*
X41512Y-22803D01*
X41520Y-22792D01*
X41531Y-22783D01*
X41542Y-22776D01*
X41555Y-22772D01*
X41569Y-22771D01*
X41582Y-22772D01*
X41595Y-22775D01*
X41607Y-22781D01*
X41618Y-22790D01*
X41627Y-22800D01*
X41633Y-22812D01*
X41638Y-22825D01*
X41639Y-22839D01*
X41640Y-22840D01*
G54D17*
X47400Y-27700D02*
X43200Y-27700D01*
X43200Y-27700D02*
X43200Y-28000D01*
X47400Y-28000D02*
X43200Y-28000D01*
X47400Y-27700D02*
X47400Y-28000D01*
X47400Y-27500D02*
X46650Y-27500D01*
X46650Y-27500D02*
X46650Y-27700D01*
X47400Y-27700D02*
X46650Y-27700D01*
X47400Y-27500D02*
X47400Y-27700D01*
X45950Y-27500D02*
X45650Y-27500D01*
X45650Y-27500D02*
X45650Y-27700D01*
X45950Y-27700D02*
X45650Y-27700D01*
X45950Y-27500D02*
X45950Y-27700D01*
X46650Y-27500D02*
X45950Y-27500D01*
X45950Y-27500D02*
X45950Y-27700D01*
X46650Y-27700D02*
X45950Y-27700D01*
X46650Y-27500D02*
X46650Y-27700D01*
X44950Y-27500D02*
X44650Y-27500D01*
X44650Y-27500D02*
X44650Y-27700D01*
X44950Y-27700D02*
X44650Y-27700D01*
X44950Y-27500D02*
X44950Y-27700D01*
X43950Y-27500D02*
X43200Y-27500D01*
X43200Y-27500D02*
X43200Y-27700D01*
X43950Y-27700D02*
X43200Y-27700D01*
X43950Y-27500D02*
X43950Y-27700D01*
X45650Y-27500D02*
X44950Y-27500D01*
X44950Y-27500D02*
X44950Y-27700D01*
X45650Y-27700D02*
X44950Y-27700D01*
X45650Y-27500D02*
X45650Y-27700D01*
X44650Y-27500D02*
X43950Y-27500D01*
X43950Y-27500D02*
X43950Y-27700D01*
X44650Y-27700D02*
X43950Y-27700D01*
X44650Y-27500D02*
X44650Y-27700D01*
G54D10*
X43450Y-26300D02*
X43350Y-26400D01*
X43450Y-26300D02*
X47150Y-26300D01*
X47250Y-26400D02*
X47150Y-26300D01*
X43300Y-27550D02*
X43350Y-26400D01*
X47250Y-26400D02*
X47300Y-27550D01*
G54D18*
X47140Y-26540D02*
X47138Y-26553D01*
X47134Y-26566D01*
X47128Y-26578D01*
X47119Y-26589D01*
X47109Y-26598D01*
X47097Y-26604D01*
X47084Y-26608D01*
X47070Y-26609D01*
X47057Y-26608D01*
X47044Y-26604D01*
X47032Y-26598D01*
X47022Y-26590D01*
X47013Y-26579D01*
X47006Y-26567D01*
X47002Y-26554D01*
X47001Y-26540D01*
X47002Y-26528D01*
X47005Y-26515D01*
X47012Y-26503D01*
X47020Y-26492D01*
X47031Y-26483D01*
X47042Y-26476D01*
X47055Y-26472D01*
X47069Y-26471D01*
X47082Y-26472D01*
X47095Y-26475D01*
X47107Y-26481D01*
X47118Y-26490D01*
X47127Y-26500D01*
X47133Y-26512D01*
X47138Y-26525D01*
X47139Y-26539D01*
X47140Y-26540D01*
G54D17*
X47400Y-24000D02*
X43200Y-24000D01*
X43200Y-24000D02*
X43200Y-24300D01*
X47400Y-24300D02*
X43200Y-24300D01*
X47400Y-24000D02*
X47400Y-24300D01*
X47400Y-23800D02*
X46650Y-23800D01*
X46650Y-23800D02*
X46650Y-24000D01*
X47400Y-24000D02*
X46650Y-24000D01*
X47400Y-23800D02*
X47400Y-24000D01*
X45950Y-23800D02*
X45650Y-23800D01*
X45650Y-23800D02*
X45650Y-24000D01*
X45950Y-24000D02*
X45650Y-24000D01*
X45950Y-23800D02*
X45950Y-24000D01*
X46650Y-23800D02*
X45950Y-23800D01*
X45950Y-23800D02*
X45950Y-24000D01*
X46650Y-24000D02*
X45950Y-24000D01*
X46650Y-23800D02*
X46650Y-24000D01*
X44950Y-23800D02*
X44650Y-23800D01*
X44650Y-23800D02*
X44650Y-24000D01*
X44950Y-24000D02*
X44650Y-24000D01*
X44950Y-23800D02*
X44950Y-24000D01*
X43950Y-23800D02*
X43200Y-23800D01*
X43200Y-23800D02*
X43200Y-24000D01*
X43950Y-24000D02*
X43200Y-24000D01*
X43950Y-23800D02*
X43950Y-24000D01*
X45650Y-23800D02*
X44950Y-23800D01*
X44950Y-23800D02*
X44950Y-24000D01*
X45650Y-24000D02*
X44950Y-24000D01*
X45650Y-23800D02*
X45650Y-24000D01*
X44650Y-23800D02*
X43950Y-23800D01*
X43950Y-23800D02*
X43950Y-24000D01*
X44650Y-24000D02*
X43950Y-24000D01*
X44650Y-23800D02*
X44650Y-24000D01*
G54D10*
X43450Y-22600D02*
X43350Y-22700D01*
X43450Y-22600D02*
X47150Y-22600D01*
X47250Y-22700D02*
X47150Y-22600D01*
X43300Y-23850D02*
X43350Y-22700D01*
X47250Y-22700D02*
X47300Y-23850D01*
G54D18*
X47140Y-22840D02*
X47138Y-22853D01*
X47134Y-22866D01*
X47128Y-22878D01*
X47119Y-22889D01*
X47109Y-22898D01*
X47097Y-22904D01*
X47084Y-22908D01*
X47070Y-22909D01*
X47057Y-22908D01*
X47044Y-22904D01*
X47032Y-22898D01*
X47022Y-22890D01*
X47013Y-22879D01*
X47006Y-22867D01*
X47002Y-22854D01*
X47001Y-22840D01*
X47002Y-22828D01*
X47005Y-22815D01*
X47012Y-22803D01*
X47020Y-22792D01*
X47031Y-22783D01*
X47042Y-22776D01*
X47055Y-22772D01*
X47069Y-22771D01*
X47082Y-22772D01*
X47095Y-22775D01*
X47107Y-22781D01*
X47118Y-22790D01*
X47127Y-22800D01*
X47133Y-22812D01*
X47138Y-22825D01*
X47139Y-22839D01*
X47140Y-22840D01*
G54D12*
X22250Y-35000D02*
X22250Y-39800D01*
X22250Y-39800D02*
X28950Y-39800D01*
X28950Y-39800D02*
X28950Y-35000D01*
X28950Y-35000D02*
X22250Y-35000D01*
G54D11*
X24900Y-16496D02*
X24664Y-16496D01*
X23955Y-17441D02*
X23955Y-17205D01*
X23049Y-16496D02*
X23246Y-16496D01*
X23955Y-15551D02*
X23955Y-15787D01*
X24939Y-16496D02*
X24920Y-16687D01*
X24864Y-16870D01*
X24774Y-17040D01*
X24653Y-17189D01*
X24505Y-17311D01*
X24336Y-17403D01*
X24152Y-17459D01*
X23961Y-17479D01*
X23771Y-17462D01*
X23587Y-17408D01*
X23417Y-17319D01*
X23267Y-17199D01*
X23144Y-17051D01*
X23051Y-16883D01*
X22993Y-16700D01*
X22972Y-16509D01*
X22988Y-16319D01*
X23041Y-16134D01*
X23128Y-15963D01*
X23248Y-15813D01*
X23394Y-15688D01*
X23562Y-15595D01*
X23744Y-15535D01*
X23935Y-15513D01*
X24125Y-15527D01*
X24310Y-15579D01*
X24482Y-15666D01*
X24633Y-15784D01*
X24759Y-15929D01*
X24853Y-16096D01*
X24914Y-16278D01*
X24938Y-16469D01*
X24939Y-16496D01*
X95766Y-16496D02*
X95530Y-16496D01*
X94821Y-17441D02*
X94821Y-17205D01*
X93915Y-16496D02*
X94112Y-16496D01*
X94821Y-15551D02*
X94821Y-15787D01*
X95805Y-16496D02*
X95786Y-16687D01*
X95730Y-16870D01*
X95640Y-17040D01*
X95519Y-17189D01*
X95371Y-17311D01*
X95202Y-17403D01*
X95018Y-17459D01*
X94827Y-17479D01*
X94637Y-17462D01*
X94453Y-17408D01*
X94283Y-17319D01*
X94133Y-17199D01*
X94010Y-17051D01*
X93917Y-16883D01*
X93859Y-16700D01*
X93838Y-16509D01*
X93854Y-16319D01*
X93907Y-16134D01*
X93994Y-15963D01*
X94114Y-15813D01*
X94260Y-15688D01*
X94428Y-15595D01*
X94610Y-15535D01*
X94801Y-15513D01*
X94991Y-15527D01*
X95176Y-15579D01*
X95348Y-15666D01*
X95499Y-15784D01*
X95625Y-15929D01*
X95719Y-16096D01*
X95780Y-16278D01*
X95804Y-16469D01*
X95805Y-16496D01*
X24900Y-62559D02*
X24664Y-62559D01*
X23955Y-63504D02*
X23955Y-63268D01*
X23049Y-62559D02*
X23246Y-62559D01*
X23955Y-61614D02*
X23955Y-61850D01*
X24939Y-62559D02*
X24920Y-62750D01*
X24864Y-62933D01*
X24774Y-63103D01*
X24653Y-63252D01*
X24505Y-63374D01*
X24336Y-63466D01*
X24152Y-63522D01*
X23961Y-63542D01*
X23771Y-63525D01*
X23587Y-63471D01*
X23417Y-63382D01*
X23267Y-63262D01*
X23144Y-63114D01*
X23051Y-62946D01*
X22993Y-62763D01*
X22972Y-62572D01*
X22988Y-62382D01*
X23041Y-62197D01*
X23128Y-62026D01*
X23248Y-61876D01*
X23394Y-61751D01*
X23562Y-61658D01*
X23744Y-61598D01*
X23935Y-61576D01*
X24125Y-61590D01*
X24310Y-61642D01*
X24482Y-61729D01*
X24633Y-61847D01*
X24759Y-61992D01*
X24853Y-62159D01*
X24914Y-62341D01*
X24938Y-62532D01*
X24939Y-62559D01*
X95766Y-62559D02*
X95530Y-62559D01*
X94821Y-63504D02*
X94821Y-63268D01*
X93915Y-62559D02*
X94112Y-62559D01*
X94821Y-61614D02*
X94821Y-61850D01*
X95805Y-62559D02*
X95786Y-62750D01*
X95730Y-62933D01*
X95640Y-63103D01*
X95519Y-63252D01*
X95371Y-63374D01*
X95202Y-63466D01*
X95018Y-63522D01*
X94827Y-63542D01*
X94637Y-63525D01*
X94453Y-63471D01*
X94283Y-63382D01*
X94133Y-63262D01*
X94010Y-63114D01*
X93917Y-62946D01*
X93859Y-62763D01*
X93838Y-62572D01*
X93854Y-62382D01*
X93907Y-62197D01*
X93994Y-62026D01*
X94114Y-61876D01*
X94260Y-61751D01*
X94428Y-61658D01*
X94610Y-61598D01*
X94801Y-61576D01*
X94991Y-61590D01*
X95176Y-61642D01*
X95348Y-61729D01*
X95499Y-61847D01*
X95625Y-61992D01*
X95719Y-62159D01*
X95780Y-62341D01*
X95804Y-62532D01*
X95805Y-62559D01*
G54D14*
X47797Y-58761D02*
X47883Y-58790D01*
X48026Y-58790D01*
X48083Y-58761D01*
X48112Y-58733D01*
X48140Y-58676D01*
X48140Y-58618D01*
X48112Y-58561D01*
X48083Y-58533D01*
X48026Y-58504D01*
X47912Y-58476D01*
X47854Y-58447D01*
X47826Y-58418D01*
X47797Y-58361D01*
X47797Y-58304D01*
X47826Y-58247D01*
X47854Y-58218D01*
X47912Y-58190D01*
X48054Y-58190D01*
X48140Y-58218D01*
X48340Y-58190D02*
X48483Y-58790D01*
X48597Y-58361D01*
X48711Y-58790D01*
X48854Y-58190D01*
X49397Y-58790D02*
X49054Y-58790D01*
X49226Y-58790D02*
X49226Y-58190D01*
X49169Y-58276D01*
X49111Y-58333D01*
X49054Y-58361D01*
X45940Y-63938D02*
X46026Y-63967D01*
X46169Y-63967D01*
X46226Y-63938D01*
X46255Y-63910D01*
X46283Y-63853D01*
X46283Y-63795D01*
X46255Y-63738D01*
X46226Y-63710D01*
X46169Y-63681D01*
X46055Y-63653D01*
X45997Y-63624D01*
X45969Y-63595D01*
X45940Y-63538D01*
X45940Y-63481D01*
X45969Y-63424D01*
X45997Y-63395D01*
X46055Y-63367D01*
X46197Y-63367D01*
X46283Y-63395D01*
X46483Y-63367D02*
X46626Y-63967D01*
X46740Y-63538D01*
X46854Y-63967D01*
X46997Y-63367D01*
X47226Y-63967D02*
X47226Y-63367D01*
X47426Y-63367D02*
X47769Y-63367D01*
X47598Y-63967D02*
X47598Y-63367D01*
X48312Y-63910D02*
X48283Y-63938D01*
X48197Y-63967D01*
X48140Y-63967D01*
X48055Y-63938D01*
X47997Y-63881D01*
X47969Y-63824D01*
X47940Y-63710D01*
X47940Y-63624D01*
X47969Y-63510D01*
X47997Y-63453D01*
X48055Y-63395D01*
X48140Y-63367D01*
X48197Y-63367D01*
X48283Y-63395D01*
X48312Y-63424D01*
X48569Y-63967D02*
X48569Y-63367D01*
X48569Y-63653D02*
X48912Y-63653D01*
X48912Y-63967D02*
X48912Y-63367D01*
X49055Y-64024D02*
X49512Y-64024D01*
X49655Y-63967D02*
X49655Y-63367D01*
X49941Y-63967D02*
X49941Y-63367D01*
X50284Y-63967D01*
X50284Y-63367D01*
X50484Y-63367D02*
X50684Y-63967D01*
X50884Y-63367D01*
G54D19*
X34900Y-16061D02*
X34900Y-15561D01*
X35091Y-15561D01*
X35138Y-15585D01*
X35162Y-15609D01*
X35186Y-15657D01*
X35186Y-15728D01*
X35162Y-15776D01*
X35138Y-15799D01*
X35091Y-15823D01*
X34900Y-15823D01*
X35614Y-15728D02*
X35614Y-16061D01*
X35495Y-15538D02*
X35376Y-15895D01*
X35686Y-15895D01*
X37182Y-15864D02*
X37158Y-15888D01*
X37087Y-15911D01*
X37039Y-15911D01*
X36967Y-15888D01*
X36920Y-15840D01*
X36896Y-15792D01*
X36872Y-15697D01*
X36872Y-15626D01*
X36896Y-15530D01*
X36920Y-15483D01*
X36967Y-15435D01*
X37039Y-15411D01*
X37087Y-15411D01*
X37158Y-15435D01*
X37182Y-15459D01*
X37491Y-15411D02*
X37587Y-15411D01*
X37634Y-15435D01*
X37682Y-15483D01*
X37706Y-15578D01*
X37706Y-15745D01*
X37682Y-15840D01*
X37634Y-15888D01*
X37587Y-15911D01*
X37491Y-15911D01*
X37444Y-15888D01*
X37396Y-15840D01*
X37372Y-15745D01*
X37372Y-15578D01*
X37396Y-15483D01*
X37444Y-15435D01*
X37491Y-15411D01*
X37920Y-15911D02*
X37920Y-15411D01*
X38206Y-15911D01*
X38206Y-15411D01*
X38444Y-15721D02*
X38825Y-15721D01*
X39063Y-15911D02*
X39063Y-15411D01*
X39230Y-15769D01*
X39396Y-15411D01*
X39396Y-15911D01*
X39729Y-15411D02*
X39825Y-15411D01*
X39872Y-15435D01*
X39920Y-15483D01*
X39944Y-15578D01*
X39944Y-15745D01*
X39920Y-15840D01*
X39872Y-15888D01*
X39825Y-15911D01*
X39729Y-15911D01*
X39682Y-15888D01*
X39634Y-15840D01*
X39610Y-15745D01*
X39610Y-15578D01*
X39634Y-15483D01*
X39682Y-15435D01*
X39729Y-15411D01*
X40396Y-15911D02*
X40158Y-15911D01*
X40158Y-15411D01*
X40563Y-15649D02*
X40730Y-15649D01*
X40801Y-15911D02*
X40563Y-15911D01*
X40563Y-15411D01*
X40801Y-15411D01*
X40967Y-15411D02*
X41301Y-15911D01*
X41301Y-15411D02*
X40967Y-15911D01*
X41372Y-15959D02*
X41753Y-15959D01*
X42110Y-15411D02*
X41872Y-15411D01*
X41848Y-15649D01*
X41872Y-15626D01*
X41920Y-15602D01*
X42039Y-15602D01*
X42086Y-15626D01*
X42110Y-15649D01*
X42134Y-15697D01*
X42134Y-15816D01*
X42110Y-15864D01*
X42086Y-15888D01*
X42039Y-15911D01*
X41920Y-15911D01*
X41872Y-15888D01*
X41848Y-15864D01*
X42586Y-15411D02*
X42348Y-15411D01*
X42324Y-15649D01*
X42348Y-15626D01*
X42396Y-15602D01*
X42515Y-15602D01*
X42562Y-15626D01*
X42586Y-15649D01*
X42610Y-15697D01*
X42610Y-15816D01*
X42586Y-15864D01*
X42562Y-15888D01*
X42515Y-15911D01*
X42396Y-15911D01*
X42348Y-15888D01*
X42324Y-15864D01*
X43038Y-15411D02*
X42943Y-15411D01*
X42895Y-15435D01*
X42872Y-15459D01*
X42824Y-15530D01*
X42800Y-15626D01*
X42800Y-15816D01*
X42824Y-15864D01*
X42848Y-15888D01*
X42895Y-15911D01*
X42991Y-15911D01*
X43038Y-15888D01*
X43062Y-15864D01*
X43086Y-15816D01*
X43086Y-15697D01*
X43062Y-15649D01*
X43038Y-15626D01*
X42991Y-15602D01*
X42895Y-15602D01*
X42848Y-15626D01*
X42824Y-15649D01*
X42800Y-15697D01*
X43514Y-15411D02*
X43419Y-15411D01*
X43371Y-15435D01*
X43348Y-15459D01*
X43300Y-15530D01*
X43276Y-15626D01*
X43276Y-15816D01*
X43300Y-15864D01*
X43324Y-15888D01*
X43371Y-15911D01*
X43467Y-15911D01*
X43514Y-15888D01*
X43538Y-15864D01*
X43562Y-15816D01*
X43562Y-15697D01*
X43538Y-15649D01*
X43514Y-15626D01*
X43467Y-15602D01*
X43371Y-15602D01*
X43324Y-15626D01*
X43300Y-15649D01*
X43276Y-15697D01*
X43776Y-15721D02*
X44157Y-15721D01*
X44490Y-15411D02*
X44538Y-15411D01*
X44586Y-15435D01*
X44609Y-15459D01*
X44633Y-15507D01*
X44657Y-15602D01*
X44657Y-15721D01*
X44633Y-15816D01*
X44609Y-15864D01*
X44586Y-15888D01*
X44538Y-15911D01*
X44490Y-15911D01*
X44443Y-15888D01*
X44419Y-15864D01*
X44395Y-15816D01*
X44371Y-15721D01*
X44371Y-15602D01*
X44395Y-15507D01*
X44419Y-15459D01*
X44443Y-15435D01*
X44490Y-15411D01*
X44942Y-15626D02*
X44895Y-15602D01*
X44871Y-15578D01*
X44847Y-15530D01*
X44847Y-15507D01*
X44871Y-15459D01*
X44895Y-15435D01*
X44942Y-15411D01*
X45038Y-15411D01*
X45085Y-15435D01*
X45109Y-15459D01*
X45133Y-15507D01*
X45133Y-15530D01*
X45109Y-15578D01*
X45085Y-15602D01*
X45038Y-15626D01*
X44942Y-15626D01*
X44895Y-15649D01*
X44871Y-15673D01*
X44847Y-15721D01*
X44847Y-15816D01*
X44871Y-15864D01*
X44895Y-15888D01*
X44942Y-15911D01*
X45038Y-15911D01*
X45085Y-15888D01*
X45109Y-15864D01*
X45133Y-15816D01*
X45133Y-15721D01*
X45109Y-15673D01*
X45085Y-15649D01*
X45038Y-15626D01*
G54D14*
X43158Y-41843D02*
X43158Y-41243D01*
X43386Y-41243D01*
X43444Y-41271D01*
X43472Y-41300D01*
X43501Y-41357D01*
X43501Y-41443D01*
X43472Y-41500D01*
X43444Y-41529D01*
X43386Y-41557D01*
X43158Y-41557D01*
X43701Y-41243D02*
X44072Y-41243D01*
X43872Y-41471D01*
X43958Y-41471D01*
X44015Y-41500D01*
X44044Y-41529D01*
X44072Y-41586D01*
X44072Y-41729D01*
X44044Y-41786D01*
X44015Y-41814D01*
X43958Y-41843D01*
X43786Y-41843D01*
X43729Y-41814D01*
X43701Y-41786D01*
X48452Y-49506D02*
X48452Y-49306D01*
X48766Y-49220D02*
X48766Y-49506D01*
X48166Y-49506D01*
X48166Y-49220D01*
X48166Y-49020D02*
X48766Y-48620D01*
X48166Y-48620D02*
X48766Y-49020D01*
X48166Y-48478D02*
X48166Y-48135D01*
X48766Y-48306D02*
X48166Y-48306D01*
X48823Y-48078D02*
X48823Y-47621D01*
X48709Y-47135D02*
X48737Y-47164D01*
X48766Y-47250D01*
X48766Y-47307D01*
X48737Y-47392D01*
X48680Y-47450D01*
X48623Y-47478D01*
X48509Y-47507D01*
X48423Y-47507D01*
X48309Y-47478D01*
X48252Y-47450D01*
X48194Y-47392D01*
X48166Y-47307D01*
X48166Y-47250D01*
X48194Y-47164D01*
X48223Y-47135D01*
X48166Y-46764D02*
X48166Y-46650D01*
X48194Y-46592D01*
X48252Y-46535D01*
X48366Y-46507D01*
X48566Y-46507D01*
X48680Y-46535D01*
X48737Y-46592D01*
X48766Y-46650D01*
X48766Y-46764D01*
X48737Y-46821D01*
X48680Y-46878D01*
X48566Y-46907D01*
X48366Y-46907D01*
X48252Y-46878D01*
X48194Y-46821D01*
X48166Y-46764D01*
X48766Y-46249D02*
X48166Y-46249D01*
X48766Y-45906D01*
X48166Y-45906D01*
X48766Y-45620D02*
X48166Y-45620D01*
X48766Y-45277D01*
X48166Y-45277D01*
X48823Y-45134D02*
X48823Y-44677D01*
X48166Y-44248D02*
X48166Y-44534D01*
X48452Y-44563D01*
X48423Y-44534D01*
X48394Y-44477D01*
X48394Y-44334D01*
X48423Y-44277D01*
X48452Y-44248D01*
X48509Y-44220D01*
X48652Y-44220D01*
X48709Y-44248D01*
X48737Y-44277D01*
X48766Y-44334D01*
X48766Y-44477D01*
X48737Y-44534D01*
X48709Y-44563D01*
X48166Y-44020D02*
X48766Y-43620D01*
X48166Y-43620D02*
X48766Y-44020D01*
X48223Y-43421D02*
X48194Y-43392D01*
X48166Y-43335D01*
X48166Y-43192D01*
X48194Y-43135D01*
X48223Y-43106D01*
X48280Y-43078D01*
X48337Y-43078D01*
X48423Y-43106D01*
X48766Y-43449D01*
X48766Y-43078D01*
X23758Y-42343D02*
X23758Y-41743D01*
X23986Y-41743D01*
X24044Y-41771D01*
X24072Y-41800D01*
X24101Y-41857D01*
X24101Y-41943D01*
X24072Y-42000D01*
X24044Y-42029D01*
X23986Y-42057D01*
X23758Y-42057D01*
X24329Y-41800D02*
X24358Y-41771D01*
X24415Y-41743D01*
X24558Y-41743D01*
X24615Y-41771D01*
X24644Y-41800D01*
X24672Y-41857D01*
X24672Y-41914D01*
X24644Y-42000D01*
X24301Y-42343D01*
X24672Y-42343D01*
X23321Y-49865D02*
X22721Y-49865D01*
X22721Y-49637D01*
X22749Y-49579D01*
X22778Y-49551D01*
X22835Y-49522D01*
X22921Y-49522D01*
X22978Y-49551D01*
X23007Y-49579D01*
X23035Y-49637D01*
X23035Y-49865D01*
X23321Y-48922D02*
X23035Y-49122D01*
X23321Y-49265D02*
X22721Y-49265D01*
X22721Y-49037D01*
X22749Y-48979D01*
X22778Y-48951D01*
X22835Y-48922D01*
X22921Y-48922D01*
X22978Y-48951D01*
X23007Y-48979D01*
X23035Y-49037D01*
X23035Y-49265D01*
X22749Y-48351D02*
X22721Y-48408D01*
X22721Y-48494D01*
X22749Y-48579D01*
X22807Y-48637D01*
X22864Y-48665D01*
X22978Y-48694D01*
X23064Y-48694D01*
X23178Y-48665D01*
X23235Y-48637D01*
X23292Y-48579D01*
X23321Y-48494D01*
X23321Y-48437D01*
X23292Y-48351D01*
X23264Y-48322D01*
X23064Y-48322D01*
X23064Y-48437D01*
X23378Y-48208D02*
X23378Y-47751D01*
X23264Y-47265D02*
X23292Y-47294D01*
X23321Y-47380D01*
X23321Y-47437D01*
X23292Y-47522D01*
X23235Y-47580D01*
X23178Y-47608D01*
X23064Y-47637D01*
X22978Y-47637D01*
X22864Y-47608D01*
X22807Y-47580D01*
X22749Y-47522D01*
X22721Y-47437D01*
X22721Y-47380D01*
X22749Y-47294D01*
X22778Y-47265D01*
X22721Y-46894D02*
X22721Y-46780D01*
X22749Y-46722D01*
X22807Y-46665D01*
X22921Y-46637D01*
X23121Y-46637D01*
X23235Y-46665D01*
X23292Y-46722D01*
X23321Y-46780D01*
X23321Y-46894D01*
X23292Y-46951D01*
X23235Y-47008D01*
X23121Y-47037D01*
X22921Y-47037D01*
X22807Y-47008D01*
X22749Y-46951D01*
X22721Y-46894D01*
X23321Y-46379D02*
X22721Y-46379D01*
X23321Y-46036D01*
X22721Y-46036D01*
X23321Y-45750D02*
X22721Y-45750D01*
X23321Y-45407D01*
X22721Y-45407D01*
X23378Y-45264D02*
X23378Y-44807D01*
X22721Y-44378D02*
X22721Y-44664D01*
X23007Y-44693D01*
X22978Y-44664D01*
X22949Y-44607D01*
X22949Y-44464D01*
X22978Y-44407D01*
X23007Y-44378D01*
X23064Y-44350D01*
X23207Y-44350D01*
X23264Y-44378D01*
X23292Y-44407D01*
X23321Y-44464D01*
X23321Y-44607D01*
X23292Y-44664D01*
X23264Y-44693D01*
X22721Y-44150D02*
X23321Y-43750D01*
X22721Y-43750D02*
X23321Y-44150D01*
X22778Y-43551D02*
X22749Y-43522D01*
X22721Y-43465D01*
X22721Y-43322D01*
X22749Y-43265D01*
X22778Y-43236D01*
X22835Y-43208D01*
X22892Y-43208D01*
X22978Y-43236D01*
X23321Y-43579D01*
X23321Y-43208D01*
X92758Y-21643D02*
X92758Y-21043D01*
X92986Y-21043D01*
X93044Y-21071D01*
X93072Y-21100D01*
X93101Y-21157D01*
X93101Y-21243D01*
X93072Y-21300D01*
X93044Y-21329D01*
X92986Y-21357D01*
X92758Y-21357D01*
X93644Y-21043D02*
X93358Y-21043D01*
X93329Y-21329D01*
X93358Y-21300D01*
X93415Y-21271D01*
X93558Y-21271D01*
X93615Y-21300D01*
X93644Y-21329D01*
X93672Y-21386D01*
X93672Y-21529D01*
X93644Y-21586D01*
X93615Y-21614D01*
X93558Y-21643D01*
X93415Y-21643D01*
X93358Y-21614D01*
X93329Y-21586D01*
X87586Y-57128D02*
X87614Y-57157D01*
X87643Y-57243D01*
X87643Y-57300D01*
X87614Y-57385D01*
X87557Y-57443D01*
X87500Y-57471D01*
X87386Y-57500D01*
X87300Y-57500D01*
X87186Y-57471D01*
X87129Y-57443D01*
X87071Y-57385D01*
X87043Y-57300D01*
X87043Y-57243D01*
X87071Y-57157D01*
X87100Y-57128D01*
X87043Y-56757D02*
X87043Y-56643D01*
X87071Y-56585D01*
X87129Y-56528D01*
X87243Y-56500D01*
X87443Y-56500D01*
X87557Y-56528D01*
X87614Y-56585D01*
X87643Y-56643D01*
X87643Y-56757D01*
X87614Y-56814D01*
X87557Y-56871D01*
X87443Y-56900D01*
X87243Y-56900D01*
X87129Y-56871D01*
X87071Y-56814D01*
X87043Y-56757D01*
X87643Y-56242D02*
X87043Y-56242D01*
X87643Y-55899D01*
X87043Y-55899D01*
X87643Y-55613D02*
X87043Y-55613D01*
X87643Y-55270D01*
X87043Y-55270D01*
X87700Y-55127D02*
X87700Y-54670D01*
X87043Y-54584D02*
X87043Y-54213D01*
X87271Y-54413D01*
X87271Y-54327D01*
X87300Y-54270D01*
X87329Y-54241D01*
X87386Y-54213D01*
X87529Y-54213D01*
X87586Y-54241D01*
X87614Y-54270D01*
X87643Y-54327D01*
X87643Y-54499D01*
X87614Y-54556D01*
X87586Y-54584D01*
X87100Y-53985D02*
X87071Y-53956D01*
X87043Y-53899D01*
X87043Y-53756D01*
X87071Y-53699D01*
X87100Y-53670D01*
X87157Y-53642D01*
X87214Y-53642D01*
X87300Y-53670D01*
X87643Y-54013D01*
X87643Y-53642D01*
X87043Y-53442D02*
X87643Y-53042D01*
X87043Y-53042D02*
X87643Y-53442D01*
X87100Y-52843D02*
X87071Y-52814D01*
X87043Y-52757D01*
X87043Y-52614D01*
X87071Y-52557D01*
X87100Y-52528D01*
X87157Y-52500D01*
X87214Y-52500D01*
X87300Y-52528D01*
X87643Y-52871D01*
X87643Y-52500D01*
X36001Y-59186D02*
X35972Y-59214D01*
X35886Y-59243D01*
X35829Y-59243D01*
X35744Y-59214D01*
X35686Y-59157D01*
X35658Y-59100D01*
X35629Y-58986D01*
X35629Y-58900D01*
X35658Y-58786D01*
X35686Y-58729D01*
X35744Y-58671D01*
X35829Y-58643D01*
X35886Y-58643D01*
X35972Y-58671D01*
X36001Y-58700D01*
X36515Y-58843D02*
X36515Y-59243D01*
X36372Y-58614D02*
X36229Y-59043D01*
X36601Y-59043D01*
X34091Y-63617D02*
X33748Y-63617D01*
X33920Y-63617D02*
X33920Y-63017D01*
X33863Y-63103D01*
X33805Y-63160D01*
X33748Y-63188D01*
X34462Y-63017D02*
X34519Y-63017D01*
X34576Y-63045D01*
X34605Y-63074D01*
X34634Y-63131D01*
X34662Y-63245D01*
X34662Y-63388D01*
X34634Y-63503D01*
X34605Y-63560D01*
X34576Y-63588D01*
X34519Y-63617D01*
X34462Y-63617D01*
X34405Y-63588D01*
X34376Y-63560D01*
X34348Y-63503D01*
X34319Y-63388D01*
X34319Y-63245D01*
X34348Y-63131D01*
X34376Y-63074D01*
X34405Y-63045D01*
X34462Y-63017D01*
X35176Y-63217D02*
X35176Y-63617D01*
X34919Y-63217D02*
X34919Y-63531D01*
X34947Y-63588D01*
X35005Y-63617D01*
X35090Y-63617D01*
X35147Y-63588D01*
X35176Y-63560D01*
X35662Y-63303D02*
X35462Y-63303D01*
X35462Y-63617D02*
X35462Y-63017D01*
X35748Y-63017D01*
X46601Y-53586D02*
X46572Y-53614D01*
X46486Y-53643D01*
X46429Y-53643D01*
X46344Y-53614D01*
X46286Y-53557D01*
X46258Y-53500D01*
X46229Y-53386D01*
X46229Y-53300D01*
X46258Y-53186D01*
X46286Y-53129D01*
X46344Y-53071D01*
X46429Y-53043D01*
X46486Y-53043D01*
X46572Y-53071D01*
X46601Y-53100D01*
X47172Y-53643D02*
X46829Y-53643D01*
X47001Y-53643D02*
X47001Y-53043D01*
X46944Y-53129D01*
X46886Y-53186D01*
X46829Y-53214D01*
X45915Y-55843D02*
X45915Y-56243D01*
X45772Y-55614D02*
X45629Y-56043D01*
X46001Y-56043D01*
X46172Y-55643D02*
X46572Y-55643D01*
X46315Y-56243D01*
X46914Y-55643D02*
X46971Y-55643D01*
X47028Y-55671D01*
X47057Y-55700D01*
X47086Y-55757D01*
X47114Y-55871D01*
X47114Y-56014D01*
X47086Y-56129D01*
X47057Y-56186D01*
X47028Y-56214D01*
X46971Y-56243D01*
X46914Y-56243D01*
X46857Y-56214D01*
X46828Y-56186D01*
X46800Y-56129D01*
X46771Y-56014D01*
X46771Y-55871D01*
X46800Y-55757D01*
X46828Y-55700D01*
X46857Y-55671D01*
X46914Y-55643D01*
X47628Y-55843D02*
X47628Y-56243D01*
X47371Y-55843D02*
X47371Y-56157D01*
X47399Y-56214D01*
X47457Y-56243D01*
X47542Y-56243D01*
X47599Y-56214D01*
X47628Y-56186D01*
X48114Y-55929D02*
X47914Y-55929D01*
X47914Y-56243D02*
X47914Y-55643D01*
X48200Y-55643D01*
G54D20*
X28457Y-52143D02*
X28457Y-52629D01*
X28479Y-52686D01*
X28500Y-52714D01*
X28543Y-52743D01*
X28629Y-52743D01*
X28671Y-52714D01*
X28693Y-52686D01*
X28714Y-52629D01*
X28714Y-52143D01*
X29142Y-52143D02*
X28928Y-52143D01*
X28907Y-52429D01*
X28928Y-52400D01*
X28971Y-52371D01*
X29078Y-52371D01*
X29121Y-52400D01*
X29142Y-52429D01*
X29164Y-52486D01*
X29164Y-52629D01*
X29142Y-52686D01*
X29121Y-52714D01*
X29078Y-52743D01*
X28971Y-52743D01*
X28928Y-52714D01*
X28907Y-52686D01*
X29943Y-57658D02*
X30343Y-57658D01*
X29714Y-57765D02*
X30143Y-57872D01*
X30143Y-57594D01*
X29743Y-57336D02*
X29743Y-57293D01*
X29771Y-57250D01*
X29800Y-57229D01*
X29857Y-57208D01*
X29971Y-57186D01*
X30114Y-57186D01*
X30229Y-57208D01*
X30286Y-57229D01*
X30314Y-57250D01*
X30343Y-57293D01*
X30343Y-57336D01*
X30314Y-57379D01*
X30286Y-57400D01*
X30229Y-57422D01*
X30114Y-57443D01*
X29971Y-57443D01*
X29857Y-57422D01*
X29800Y-57400D01*
X29771Y-57379D01*
X29743Y-57336D01*
X29800Y-57014D02*
X29771Y-56993D01*
X29743Y-56950D01*
X29743Y-56843D01*
X29771Y-56800D01*
X29800Y-56779D01*
X29857Y-56757D01*
X29914Y-56757D01*
X30000Y-56779D01*
X30343Y-57036D01*
X30343Y-56757D01*
X29743Y-56607D02*
X29743Y-56328D01*
X29971Y-56478D01*
X29971Y-56414D01*
X30000Y-56371D01*
X30029Y-56350D01*
X30086Y-56328D01*
X30229Y-56328D01*
X30286Y-56350D01*
X30314Y-56371D01*
X30343Y-56414D01*
X30343Y-56542D01*
X30314Y-56585D01*
X30286Y-56607D01*
X55757Y-34643D02*
X55757Y-35129D01*
X55779Y-35186D01*
X55800Y-35214D01*
X55843Y-35243D01*
X55929Y-35243D01*
X55971Y-35214D01*
X55993Y-35186D01*
X56014Y-35129D01*
X56014Y-34643D01*
X56185Y-34643D02*
X56485Y-34643D01*
X56292Y-35243D01*
X57643Y-41340D02*
X57043Y-41340D01*
X57471Y-41190D01*
X57043Y-41040D01*
X57643Y-41040D01*
X57643Y-40826D02*
X57043Y-40826D01*
X57586Y-40355D02*
X57614Y-40376D01*
X57643Y-40440D01*
X57643Y-40483D01*
X57614Y-40548D01*
X57557Y-40590D01*
X57500Y-40612D01*
X57386Y-40633D01*
X57300Y-40633D01*
X57186Y-40612D01*
X57129Y-40590D01*
X57071Y-40548D01*
X57043Y-40483D01*
X57043Y-40440D01*
X57071Y-40376D01*
X57100Y-40355D01*
X57043Y-39948D02*
X57043Y-40162D01*
X57329Y-40183D01*
X57300Y-40162D01*
X57271Y-40119D01*
X57271Y-40012D01*
X57300Y-39969D01*
X57329Y-39948D01*
X57386Y-39926D01*
X57529Y-39926D01*
X57586Y-39948D01*
X57614Y-39969D01*
X57643Y-40012D01*
X57643Y-40119D01*
X57614Y-40162D01*
X57586Y-40183D01*
X57300Y-39669D02*
X57271Y-39711D01*
X57243Y-39733D01*
X57186Y-39754D01*
X57157Y-39754D01*
X57100Y-39733D01*
X57071Y-39711D01*
X57043Y-39669D01*
X57043Y-39583D01*
X57071Y-39540D01*
X57100Y-39519D01*
X57157Y-39497D01*
X57186Y-39497D01*
X57243Y-39519D01*
X57271Y-39540D01*
X57300Y-39583D01*
X57300Y-39669D01*
X57329Y-39711D01*
X57357Y-39733D01*
X57414Y-39754D01*
X57529Y-39754D01*
X57586Y-39733D01*
X57614Y-39711D01*
X57643Y-39669D01*
X57643Y-39583D01*
X57614Y-39540D01*
X57586Y-39519D01*
X57529Y-39497D01*
X57414Y-39497D01*
X57357Y-39519D01*
X57329Y-39540D01*
X57300Y-39583D01*
X57643Y-39282D02*
X57643Y-39197D01*
X57614Y-39154D01*
X57586Y-39132D01*
X57500Y-39090D01*
X57386Y-39068D01*
X57157Y-39068D01*
X57100Y-39090D01*
X57071Y-39111D01*
X57043Y-39154D01*
X57043Y-39240D01*
X57071Y-39282D01*
X57100Y-39304D01*
X57157Y-39325D01*
X57300Y-39325D01*
X57357Y-39304D01*
X57386Y-39282D01*
X57414Y-39240D01*
X57414Y-39154D01*
X57386Y-39111D01*
X57357Y-39090D01*
X57300Y-39068D01*
X57643Y-38639D02*
X57643Y-38896D01*
X57643Y-38768D02*
X57043Y-38768D01*
X57129Y-38811D01*
X57186Y-38853D01*
X57214Y-38896D01*
X31957Y-34543D02*
X31957Y-35029D01*
X31979Y-35086D01*
X32000Y-35114D01*
X32043Y-35143D01*
X32129Y-35143D01*
X32171Y-35114D01*
X32193Y-35086D01*
X32214Y-35029D01*
X32214Y-34543D01*
X32621Y-34743D02*
X32621Y-35143D01*
X32514Y-34514D02*
X32407Y-34943D01*
X32685Y-34943D01*
X37042Y-33543D02*
X37042Y-33943D01*
X36935Y-33314D02*
X36828Y-33743D01*
X37106Y-33743D01*
X37364Y-33343D02*
X37407Y-33343D01*
X37450Y-33371D01*
X37471Y-33400D01*
X37492Y-33457D01*
X37514Y-33571D01*
X37514Y-33714D01*
X37492Y-33829D01*
X37471Y-33886D01*
X37450Y-33914D01*
X37407Y-33943D01*
X37364Y-33943D01*
X37321Y-33914D01*
X37300Y-33886D01*
X37278Y-33829D01*
X37257Y-33714D01*
X37257Y-33571D01*
X37278Y-33457D01*
X37300Y-33400D01*
X37321Y-33371D01*
X37364Y-33343D01*
X37686Y-33400D02*
X37707Y-33371D01*
X37750Y-33343D01*
X37857Y-33343D01*
X37900Y-33371D01*
X37921Y-33400D01*
X37943Y-33457D01*
X37943Y-33514D01*
X37921Y-33600D01*
X37664Y-33943D01*
X37943Y-33943D01*
X38115Y-33400D02*
X38136Y-33371D01*
X38179Y-33343D01*
X38286Y-33343D01*
X38329Y-33371D01*
X38350Y-33400D01*
X38372Y-33457D01*
X38372Y-33514D01*
X38350Y-33600D01*
X38093Y-33943D01*
X38372Y-33943D01*
X73557Y-34643D02*
X73557Y-35129D01*
X73579Y-35186D01*
X73600Y-35214D01*
X73643Y-35243D01*
X73729Y-35243D01*
X73771Y-35214D01*
X73793Y-35186D01*
X73814Y-35129D01*
X73814Y-34643D01*
X74092Y-34900D02*
X74050Y-34871D01*
X74028Y-34843D01*
X74007Y-34786D01*
X74007Y-34757D01*
X74028Y-34700D01*
X74050Y-34671D01*
X74092Y-34643D01*
X74178Y-34643D01*
X74221Y-34671D01*
X74242Y-34700D01*
X74264Y-34757D01*
X74264Y-34786D01*
X74242Y-34843D01*
X74221Y-34871D01*
X74178Y-34900D01*
X74092Y-34900D01*
X74050Y-34929D01*
X74028Y-34957D01*
X74007Y-35014D01*
X74007Y-35129D01*
X74028Y-35186D01*
X74050Y-35214D01*
X74092Y-35243D01*
X74178Y-35243D01*
X74221Y-35214D01*
X74242Y-35186D01*
X74264Y-35129D01*
X74264Y-35014D01*
X74242Y-34957D01*
X74221Y-34929D01*
X74178Y-34900D01*
X75643Y-41340D02*
X75043Y-41340D01*
X75471Y-41190D01*
X75043Y-41040D01*
X75643Y-41040D01*
X75643Y-40826D02*
X75043Y-40826D01*
X75586Y-40355D02*
X75614Y-40376D01*
X75643Y-40440D01*
X75643Y-40483D01*
X75614Y-40548D01*
X75557Y-40590D01*
X75500Y-40612D01*
X75386Y-40633D01*
X75300Y-40633D01*
X75186Y-40612D01*
X75129Y-40590D01*
X75071Y-40548D01*
X75043Y-40483D01*
X75043Y-40440D01*
X75071Y-40376D01*
X75100Y-40355D01*
X75043Y-39948D02*
X75043Y-40162D01*
X75329Y-40183D01*
X75300Y-40162D01*
X75271Y-40119D01*
X75271Y-40012D01*
X75300Y-39969D01*
X75329Y-39948D01*
X75386Y-39926D01*
X75529Y-39926D01*
X75586Y-39948D01*
X75614Y-39969D01*
X75643Y-40012D01*
X75643Y-40119D01*
X75614Y-40162D01*
X75586Y-40183D01*
X75300Y-39669D02*
X75271Y-39711D01*
X75243Y-39733D01*
X75186Y-39754D01*
X75157Y-39754D01*
X75100Y-39733D01*
X75071Y-39711D01*
X75043Y-39669D01*
X75043Y-39583D01*
X75071Y-39540D01*
X75100Y-39519D01*
X75157Y-39497D01*
X75186Y-39497D01*
X75243Y-39519D01*
X75271Y-39540D01*
X75300Y-39583D01*
X75300Y-39669D01*
X75329Y-39711D01*
X75357Y-39733D01*
X75414Y-39754D01*
X75529Y-39754D01*
X75586Y-39733D01*
X75614Y-39711D01*
X75643Y-39669D01*
X75643Y-39583D01*
X75614Y-39540D01*
X75586Y-39519D01*
X75529Y-39497D01*
X75414Y-39497D01*
X75357Y-39519D01*
X75329Y-39540D01*
X75300Y-39583D01*
X75643Y-39282D02*
X75643Y-39197D01*
X75614Y-39154D01*
X75586Y-39132D01*
X75500Y-39090D01*
X75386Y-39068D01*
X75157Y-39068D01*
X75100Y-39090D01*
X75071Y-39111D01*
X75043Y-39154D01*
X75043Y-39240D01*
X75071Y-39282D01*
X75100Y-39304D01*
X75157Y-39325D01*
X75300Y-39325D01*
X75357Y-39304D01*
X75386Y-39282D01*
X75414Y-39240D01*
X75414Y-39154D01*
X75386Y-39111D01*
X75357Y-39090D01*
X75300Y-39068D01*
X75643Y-38639D02*
X75643Y-38896D01*
X75643Y-38768D02*
X75043Y-38768D01*
X75129Y-38811D01*
X75186Y-38853D01*
X75214Y-38896D01*
X64657Y-18943D02*
X64657Y-19429D01*
X64679Y-19486D01*
X64700Y-19514D01*
X64743Y-19543D01*
X64829Y-19543D01*
X64871Y-19514D01*
X64893Y-19486D01*
X64914Y-19429D01*
X64914Y-18943D01*
X65150Y-19543D02*
X65235Y-19543D01*
X65278Y-19514D01*
X65300Y-19486D01*
X65342Y-19400D01*
X65364Y-19286D01*
X65364Y-19057D01*
X65342Y-19000D01*
X65321Y-18971D01*
X65278Y-18943D01*
X65192Y-18943D01*
X65150Y-18971D01*
X65128Y-19000D01*
X65107Y-19057D01*
X65107Y-19200D01*
X65128Y-19257D01*
X65150Y-19286D01*
X65192Y-19314D01*
X65278Y-19314D01*
X65321Y-19286D01*
X65342Y-19257D01*
X65364Y-19200D01*
X66643Y-25740D02*
X66043Y-25740D01*
X66471Y-25590D01*
X66043Y-25440D01*
X66643Y-25440D01*
X66643Y-25226D02*
X66043Y-25226D01*
X66586Y-24755D02*
X66614Y-24776D01*
X66643Y-24840D01*
X66643Y-24883D01*
X66614Y-24948D01*
X66557Y-24990D01*
X66500Y-25012D01*
X66386Y-25033D01*
X66300Y-25033D01*
X66186Y-25012D01*
X66129Y-24990D01*
X66071Y-24948D01*
X66043Y-24883D01*
X66043Y-24840D01*
X66071Y-24776D01*
X66100Y-24755D01*
X66043Y-24348D02*
X66043Y-24562D01*
X66329Y-24583D01*
X66300Y-24562D01*
X66271Y-24519D01*
X66271Y-24412D01*
X66300Y-24369D01*
X66329Y-24348D01*
X66386Y-24326D01*
X66529Y-24326D01*
X66586Y-24348D01*
X66614Y-24369D01*
X66643Y-24412D01*
X66643Y-24519D01*
X66614Y-24562D01*
X66586Y-24583D01*
X66300Y-24069D02*
X66271Y-24111D01*
X66243Y-24133D01*
X66186Y-24154D01*
X66157Y-24154D01*
X66100Y-24133D01*
X66071Y-24111D01*
X66043Y-24069D01*
X66043Y-23983D01*
X66071Y-23940D01*
X66100Y-23919D01*
X66157Y-23897D01*
X66186Y-23897D01*
X66243Y-23919D01*
X66271Y-23940D01*
X66300Y-23983D01*
X66300Y-24069D01*
X66329Y-24111D01*
X66357Y-24133D01*
X66414Y-24154D01*
X66529Y-24154D01*
X66586Y-24133D01*
X66614Y-24111D01*
X66643Y-24069D01*
X66643Y-23983D01*
X66614Y-23940D01*
X66586Y-23919D01*
X66529Y-23897D01*
X66414Y-23897D01*
X66357Y-23919D01*
X66329Y-23940D01*
X66300Y-23983D01*
X66643Y-23682D02*
X66643Y-23597D01*
X66614Y-23554D01*
X66586Y-23532D01*
X66500Y-23490D01*
X66386Y-23468D01*
X66157Y-23468D01*
X66100Y-23490D01*
X66071Y-23511D01*
X66043Y-23554D01*
X66043Y-23640D01*
X66071Y-23682D01*
X66100Y-23704D01*
X66157Y-23725D01*
X66300Y-23725D01*
X66357Y-23704D01*
X66386Y-23682D01*
X66414Y-23640D01*
X66414Y-23554D01*
X66386Y-23511D01*
X66357Y-23490D01*
X66300Y-23468D01*
X66643Y-23039D02*
X66643Y-23296D01*
X66643Y-23168D02*
X66043Y-23168D01*
X66129Y-23211D01*
X66186Y-23253D01*
X66214Y-23296D01*
X73343Y-50243D02*
X73343Y-50729D01*
X73365Y-50786D01*
X73386Y-50814D01*
X73429Y-50843D01*
X73515Y-50843D01*
X73557Y-50814D01*
X73579Y-50786D01*
X73600Y-50729D01*
X73600Y-50243D01*
X74050Y-50843D02*
X73793Y-50843D01*
X73921Y-50843D02*
X73921Y-50243D01*
X73878Y-50329D01*
X73836Y-50386D01*
X73793Y-50414D01*
X74329Y-50243D02*
X74372Y-50243D01*
X74415Y-50271D01*
X74436Y-50300D01*
X74457Y-50357D01*
X74479Y-50471D01*
X74479Y-50614D01*
X74457Y-50729D01*
X74436Y-50786D01*
X74415Y-50814D01*
X74372Y-50843D01*
X74329Y-50843D01*
X74286Y-50814D01*
X74265Y-50786D01*
X74243Y-50729D01*
X74222Y-50614D01*
X74222Y-50471D01*
X74243Y-50357D01*
X74265Y-50300D01*
X74286Y-50271D01*
X74329Y-50243D01*
X75643Y-56940D02*
X75043Y-56940D01*
X75471Y-56790D01*
X75043Y-56640D01*
X75643Y-56640D01*
X75643Y-56426D02*
X75043Y-56426D01*
X75586Y-55955D02*
X75614Y-55976D01*
X75643Y-56040D01*
X75643Y-56083D01*
X75614Y-56148D01*
X75557Y-56190D01*
X75500Y-56212D01*
X75386Y-56233D01*
X75300Y-56233D01*
X75186Y-56212D01*
X75129Y-56190D01*
X75071Y-56148D01*
X75043Y-56083D01*
X75043Y-56040D01*
X75071Y-55976D01*
X75100Y-55955D01*
X75043Y-55548D02*
X75043Y-55762D01*
X75329Y-55783D01*
X75300Y-55762D01*
X75271Y-55719D01*
X75271Y-55612D01*
X75300Y-55569D01*
X75329Y-55548D01*
X75386Y-55526D01*
X75529Y-55526D01*
X75586Y-55548D01*
X75614Y-55569D01*
X75643Y-55612D01*
X75643Y-55719D01*
X75614Y-55762D01*
X75586Y-55783D01*
X75300Y-55269D02*
X75271Y-55311D01*
X75243Y-55333D01*
X75186Y-55354D01*
X75157Y-55354D01*
X75100Y-55333D01*
X75071Y-55311D01*
X75043Y-55269D01*
X75043Y-55183D01*
X75071Y-55140D01*
X75100Y-55119D01*
X75157Y-55097D01*
X75186Y-55097D01*
X75243Y-55119D01*
X75271Y-55140D01*
X75300Y-55183D01*
X75300Y-55269D01*
X75329Y-55311D01*
X75357Y-55333D01*
X75414Y-55354D01*
X75529Y-55354D01*
X75586Y-55333D01*
X75614Y-55311D01*
X75643Y-55269D01*
X75643Y-55183D01*
X75614Y-55140D01*
X75586Y-55119D01*
X75529Y-55097D01*
X75414Y-55097D01*
X75357Y-55119D01*
X75329Y-55140D01*
X75300Y-55183D01*
X75643Y-54882D02*
X75643Y-54797D01*
X75614Y-54754D01*
X75586Y-54732D01*
X75500Y-54690D01*
X75386Y-54668D01*
X75157Y-54668D01*
X75100Y-54690D01*
X75071Y-54711D01*
X75043Y-54754D01*
X75043Y-54840D01*
X75071Y-54882D01*
X75100Y-54904D01*
X75157Y-54925D01*
X75300Y-54925D01*
X75357Y-54904D01*
X75386Y-54882D01*
X75414Y-54840D01*
X75414Y-54754D01*
X75386Y-54711D01*
X75357Y-54690D01*
X75300Y-54668D01*
X75643Y-54239D02*
X75643Y-54496D01*
X75643Y-54368D02*
X75043Y-54368D01*
X75129Y-54411D01*
X75186Y-54453D01*
X75214Y-54496D01*
X64343Y-34643D02*
X64343Y-35129D01*
X64365Y-35186D01*
X64386Y-35214D01*
X64429Y-35243D01*
X64515Y-35243D01*
X64557Y-35214D01*
X64579Y-35186D01*
X64600Y-35129D01*
X64600Y-34643D01*
X65050Y-35243D02*
X64793Y-35243D01*
X64921Y-35243D02*
X64921Y-34643D01*
X64878Y-34729D01*
X64836Y-34786D01*
X64793Y-34814D01*
X65479Y-35243D02*
X65222Y-35243D01*
X65350Y-35243D02*
X65350Y-34643D01*
X65307Y-34729D01*
X65265Y-34786D01*
X65222Y-34814D01*
X66643Y-41340D02*
X66043Y-41340D01*
X66471Y-41190D01*
X66043Y-41040D01*
X66643Y-41040D01*
X66643Y-40826D02*
X66043Y-40826D01*
X66586Y-40355D02*
X66614Y-40376D01*
X66643Y-40440D01*
X66643Y-40483D01*
X66614Y-40548D01*
X66557Y-40590D01*
X66500Y-40612D01*
X66386Y-40633D01*
X66300Y-40633D01*
X66186Y-40612D01*
X66129Y-40590D01*
X66071Y-40548D01*
X66043Y-40483D01*
X66043Y-40440D01*
X66071Y-40376D01*
X66100Y-40355D01*
X66043Y-39948D02*
X66043Y-40162D01*
X66329Y-40183D01*
X66300Y-40162D01*
X66271Y-40119D01*
X66271Y-40012D01*
X66300Y-39969D01*
X66329Y-39948D01*
X66386Y-39926D01*
X66529Y-39926D01*
X66586Y-39948D01*
X66614Y-39969D01*
X66643Y-40012D01*
X66643Y-40119D01*
X66614Y-40162D01*
X66586Y-40183D01*
X66300Y-39669D02*
X66271Y-39711D01*
X66243Y-39733D01*
X66186Y-39754D01*
X66157Y-39754D01*
X66100Y-39733D01*
X66071Y-39711D01*
X66043Y-39669D01*
X66043Y-39583D01*
X66071Y-39540D01*
X66100Y-39519D01*
X66157Y-39497D01*
X66186Y-39497D01*
X66243Y-39519D01*
X66271Y-39540D01*
X66300Y-39583D01*
X66300Y-39669D01*
X66329Y-39711D01*
X66357Y-39733D01*
X66414Y-39754D01*
X66529Y-39754D01*
X66586Y-39733D01*
X66614Y-39711D01*
X66643Y-39669D01*
X66643Y-39583D01*
X66614Y-39540D01*
X66586Y-39519D01*
X66529Y-39497D01*
X66414Y-39497D01*
X66357Y-39519D01*
X66329Y-39540D01*
X66300Y-39583D01*
X66643Y-39282D02*
X66643Y-39197D01*
X66614Y-39154D01*
X66586Y-39132D01*
X66500Y-39090D01*
X66386Y-39068D01*
X66157Y-39068D01*
X66100Y-39090D01*
X66071Y-39111D01*
X66043Y-39154D01*
X66043Y-39240D01*
X66071Y-39282D01*
X66100Y-39304D01*
X66157Y-39325D01*
X66300Y-39325D01*
X66357Y-39304D01*
X66386Y-39282D01*
X66414Y-39240D01*
X66414Y-39154D01*
X66386Y-39111D01*
X66357Y-39090D01*
X66300Y-39068D01*
X66643Y-38639D02*
X66643Y-38896D01*
X66643Y-38768D02*
X66043Y-38768D01*
X66129Y-38811D01*
X66186Y-38853D01*
X66214Y-38896D01*
X55243Y-18943D02*
X55243Y-19429D01*
X55265Y-19486D01*
X55286Y-19514D01*
X55329Y-19543D01*
X55415Y-19543D01*
X55457Y-19514D01*
X55479Y-19486D01*
X55500Y-19429D01*
X55500Y-18943D01*
X55950Y-19543D02*
X55693Y-19543D01*
X55821Y-19543D02*
X55821Y-18943D01*
X55778Y-19029D01*
X55736Y-19086D01*
X55693Y-19114D01*
X56122Y-19000D02*
X56143Y-18971D01*
X56186Y-18943D01*
X56293Y-18943D01*
X56336Y-18971D01*
X56357Y-19000D01*
X56379Y-19057D01*
X56379Y-19114D01*
X56357Y-19200D01*
X56100Y-19543D01*
X56379Y-19543D01*
X57643Y-25740D02*
X57043Y-25740D01*
X57471Y-25590D01*
X57043Y-25440D01*
X57643Y-25440D01*
X57643Y-25226D02*
X57043Y-25226D01*
X57586Y-24755D02*
X57614Y-24776D01*
X57643Y-24840D01*
X57643Y-24883D01*
X57614Y-24948D01*
X57557Y-24990D01*
X57500Y-25012D01*
X57386Y-25033D01*
X57300Y-25033D01*
X57186Y-25012D01*
X57129Y-24990D01*
X57071Y-24948D01*
X57043Y-24883D01*
X57043Y-24840D01*
X57071Y-24776D01*
X57100Y-24755D01*
X57043Y-24348D02*
X57043Y-24562D01*
X57329Y-24583D01*
X57300Y-24562D01*
X57271Y-24519D01*
X57271Y-24412D01*
X57300Y-24369D01*
X57329Y-24348D01*
X57386Y-24326D01*
X57529Y-24326D01*
X57586Y-24348D01*
X57614Y-24369D01*
X57643Y-24412D01*
X57643Y-24519D01*
X57614Y-24562D01*
X57586Y-24583D01*
X57300Y-24069D02*
X57271Y-24111D01*
X57243Y-24133D01*
X57186Y-24154D01*
X57157Y-24154D01*
X57100Y-24133D01*
X57071Y-24111D01*
X57043Y-24069D01*
X57043Y-23983D01*
X57071Y-23940D01*
X57100Y-23919D01*
X57157Y-23897D01*
X57186Y-23897D01*
X57243Y-23919D01*
X57271Y-23940D01*
X57300Y-23983D01*
X57300Y-24069D01*
X57329Y-24111D01*
X57357Y-24133D01*
X57414Y-24154D01*
X57529Y-24154D01*
X57586Y-24133D01*
X57614Y-24111D01*
X57643Y-24069D01*
X57643Y-23983D01*
X57614Y-23940D01*
X57586Y-23919D01*
X57529Y-23897D01*
X57414Y-23897D01*
X57357Y-23919D01*
X57329Y-23940D01*
X57300Y-23983D01*
X57643Y-23682D02*
X57643Y-23597D01*
X57614Y-23554D01*
X57586Y-23532D01*
X57500Y-23490D01*
X57386Y-23468D01*
X57157Y-23468D01*
X57100Y-23490D01*
X57071Y-23511D01*
X57043Y-23554D01*
X57043Y-23640D01*
X57071Y-23682D01*
X57100Y-23704D01*
X57157Y-23725D01*
X57300Y-23725D01*
X57357Y-23704D01*
X57386Y-23682D01*
X57414Y-23640D01*
X57414Y-23554D01*
X57386Y-23511D01*
X57357Y-23490D01*
X57300Y-23468D01*
X57643Y-23039D02*
X57643Y-23296D01*
X57643Y-23168D02*
X57043Y-23168D01*
X57129Y-23211D01*
X57186Y-23253D01*
X57214Y-23296D01*
X73243Y-18943D02*
X73243Y-19429D01*
X73265Y-19486D01*
X73286Y-19514D01*
X73329Y-19543D01*
X73415Y-19543D01*
X73457Y-19514D01*
X73479Y-19486D01*
X73500Y-19429D01*
X73500Y-18943D01*
X73950Y-19543D02*
X73693Y-19543D01*
X73821Y-19543D02*
X73821Y-18943D01*
X73778Y-19029D01*
X73736Y-19086D01*
X73693Y-19114D01*
X74100Y-18943D02*
X74379Y-18943D01*
X74229Y-19171D01*
X74293Y-19171D01*
X74336Y-19200D01*
X74357Y-19229D01*
X74379Y-19286D01*
X74379Y-19429D01*
X74357Y-19486D01*
X74336Y-19514D01*
X74293Y-19543D01*
X74165Y-19543D01*
X74122Y-19514D01*
X74100Y-19486D01*
X75643Y-25740D02*
X75043Y-25740D01*
X75471Y-25590D01*
X75043Y-25440D01*
X75643Y-25440D01*
X75643Y-25226D02*
X75043Y-25226D01*
X75586Y-24755D02*
X75614Y-24776D01*
X75643Y-24840D01*
X75643Y-24883D01*
X75614Y-24948D01*
X75557Y-24990D01*
X75500Y-25012D01*
X75386Y-25033D01*
X75300Y-25033D01*
X75186Y-25012D01*
X75129Y-24990D01*
X75071Y-24948D01*
X75043Y-24883D01*
X75043Y-24840D01*
X75071Y-24776D01*
X75100Y-24755D01*
X75043Y-24348D02*
X75043Y-24562D01*
X75329Y-24583D01*
X75300Y-24562D01*
X75271Y-24519D01*
X75271Y-24412D01*
X75300Y-24369D01*
X75329Y-24348D01*
X75386Y-24326D01*
X75529Y-24326D01*
X75586Y-24348D01*
X75614Y-24369D01*
X75643Y-24412D01*
X75643Y-24519D01*
X75614Y-24562D01*
X75586Y-24583D01*
X75300Y-24069D02*
X75271Y-24111D01*
X75243Y-24133D01*
X75186Y-24154D01*
X75157Y-24154D01*
X75100Y-24133D01*
X75071Y-24111D01*
X75043Y-24069D01*
X75043Y-23983D01*
X75071Y-23940D01*
X75100Y-23919D01*
X75157Y-23897D01*
X75186Y-23897D01*
X75243Y-23919D01*
X75271Y-23940D01*
X75300Y-23983D01*
X75300Y-24069D01*
X75329Y-24111D01*
X75357Y-24133D01*
X75414Y-24154D01*
X75529Y-24154D01*
X75586Y-24133D01*
X75614Y-24111D01*
X75643Y-24069D01*
X75643Y-23983D01*
X75614Y-23940D01*
X75586Y-23919D01*
X75529Y-23897D01*
X75414Y-23897D01*
X75357Y-23919D01*
X75329Y-23940D01*
X75300Y-23983D01*
X75643Y-23682D02*
X75643Y-23597D01*
X75614Y-23554D01*
X75586Y-23532D01*
X75500Y-23490D01*
X75386Y-23468D01*
X75157Y-23468D01*
X75100Y-23490D01*
X75071Y-23511D01*
X75043Y-23554D01*
X75043Y-23640D01*
X75071Y-23682D01*
X75100Y-23704D01*
X75157Y-23725D01*
X75300Y-23725D01*
X75357Y-23704D01*
X75386Y-23682D01*
X75414Y-23640D01*
X75414Y-23554D01*
X75386Y-23511D01*
X75357Y-23490D01*
X75300Y-23468D01*
X75643Y-23039D02*
X75643Y-23296D01*
X75643Y-23168D02*
X75043Y-23168D01*
X75129Y-23211D01*
X75186Y-23253D01*
X75214Y-23296D01*
X64557Y-50243D02*
X64557Y-50729D01*
X64579Y-50786D01*
X64600Y-50814D01*
X64643Y-50843D01*
X64729Y-50843D01*
X64771Y-50814D01*
X64793Y-50786D01*
X64814Y-50729D01*
X64814Y-50243D01*
X65221Y-50243D02*
X65135Y-50243D01*
X65092Y-50271D01*
X65071Y-50300D01*
X65028Y-50386D01*
X65007Y-50500D01*
X65007Y-50729D01*
X65028Y-50786D01*
X65050Y-50814D01*
X65092Y-50843D01*
X65178Y-50843D01*
X65221Y-50814D01*
X65242Y-50786D01*
X65264Y-50729D01*
X65264Y-50586D01*
X65242Y-50529D01*
X65221Y-50500D01*
X65178Y-50471D01*
X65092Y-50471D01*
X65050Y-50500D01*
X65028Y-50529D01*
X65007Y-50586D01*
X66643Y-56940D02*
X66043Y-56940D01*
X66471Y-56790D01*
X66043Y-56640D01*
X66643Y-56640D01*
X66643Y-56426D02*
X66043Y-56426D01*
X66586Y-55955D02*
X66614Y-55976D01*
X66643Y-56040D01*
X66643Y-56083D01*
X66614Y-56148D01*
X66557Y-56190D01*
X66500Y-56212D01*
X66386Y-56233D01*
X66300Y-56233D01*
X66186Y-56212D01*
X66129Y-56190D01*
X66071Y-56148D01*
X66043Y-56083D01*
X66043Y-56040D01*
X66071Y-55976D01*
X66100Y-55955D01*
X66043Y-55548D02*
X66043Y-55762D01*
X66329Y-55783D01*
X66300Y-55762D01*
X66271Y-55719D01*
X66271Y-55612D01*
X66300Y-55569D01*
X66329Y-55548D01*
X66386Y-55526D01*
X66529Y-55526D01*
X66586Y-55548D01*
X66614Y-55569D01*
X66643Y-55612D01*
X66643Y-55719D01*
X66614Y-55762D01*
X66586Y-55783D01*
X66300Y-55269D02*
X66271Y-55311D01*
X66243Y-55333D01*
X66186Y-55354D01*
X66157Y-55354D01*
X66100Y-55333D01*
X66071Y-55311D01*
X66043Y-55269D01*
X66043Y-55183D01*
X66071Y-55140D01*
X66100Y-55119D01*
X66157Y-55097D01*
X66186Y-55097D01*
X66243Y-55119D01*
X66271Y-55140D01*
X66300Y-55183D01*
X66300Y-55269D01*
X66329Y-55311D01*
X66357Y-55333D01*
X66414Y-55354D01*
X66529Y-55354D01*
X66586Y-55333D01*
X66614Y-55311D01*
X66643Y-55269D01*
X66643Y-55183D01*
X66614Y-55140D01*
X66586Y-55119D01*
X66529Y-55097D01*
X66414Y-55097D01*
X66357Y-55119D01*
X66329Y-55140D01*
X66300Y-55183D01*
X66643Y-54882D02*
X66643Y-54797D01*
X66614Y-54754D01*
X66586Y-54732D01*
X66500Y-54690D01*
X66386Y-54668D01*
X66157Y-54668D01*
X66100Y-54690D01*
X66071Y-54711D01*
X66043Y-54754D01*
X66043Y-54840D01*
X66071Y-54882D01*
X66100Y-54904D01*
X66157Y-54925D01*
X66300Y-54925D01*
X66357Y-54904D01*
X66386Y-54882D01*
X66414Y-54840D01*
X66414Y-54754D01*
X66386Y-54711D01*
X66357Y-54690D01*
X66300Y-54668D01*
X66643Y-54239D02*
X66643Y-54496D01*
X66643Y-54368D02*
X66043Y-54368D01*
X66129Y-54411D01*
X66186Y-54453D01*
X66214Y-54496D01*
G54D13*
X65105Y-62762D02*
X65105Y-62362D01*
X65258Y-62362D01*
X65296Y-62381D01*
X65315Y-62400D01*
X65334Y-62438D01*
X65334Y-62495D01*
X65315Y-62533D01*
X65296Y-62552D01*
X65258Y-62571D01*
X65105Y-62571D01*
X65715Y-62762D02*
X65486Y-62762D01*
X65600Y-62762D02*
X65600Y-62362D01*
X65562Y-62419D01*
X65524Y-62457D01*
X65486Y-62476D01*
X65070Y-63547D02*
X65070Y-63147D01*
X65223Y-63147D01*
X65261Y-63166D01*
X65280Y-63185D01*
X65299Y-63223D01*
X65299Y-63280D01*
X65280Y-63318D01*
X65261Y-63337D01*
X65223Y-63356D01*
X65070Y-63356D01*
X65432Y-63147D02*
X65527Y-63547D01*
X65604Y-63261D01*
X65680Y-63547D01*
X65775Y-63147D01*
X66156Y-63547D02*
X66022Y-63356D01*
X65927Y-63547D02*
X65927Y-63147D01*
X66080Y-63147D01*
X66118Y-63166D01*
X66137Y-63185D01*
X66156Y-63223D01*
X66156Y-63280D01*
X66137Y-63318D01*
X66118Y-63337D01*
X66080Y-63356D01*
X65927Y-63356D01*
X66232Y-63585D02*
X66537Y-63585D01*
X66747Y-63147D02*
X66747Y-63433D01*
X66727Y-63490D01*
X66689Y-63528D01*
X66632Y-63547D01*
X66594Y-63547D01*
X66918Y-63433D02*
X67109Y-63433D01*
X66880Y-63547D02*
X67013Y-63147D01*
X67147Y-63547D01*
X67509Y-63509D02*
X67490Y-63528D01*
X67433Y-63547D01*
X67395Y-63547D01*
X67337Y-63528D01*
X67299Y-63490D01*
X67280Y-63452D01*
X67261Y-63375D01*
X67261Y-63318D01*
X67280Y-63242D01*
X67299Y-63204D01*
X67337Y-63166D01*
X67395Y-63147D01*
X67433Y-63147D01*
X67490Y-63166D01*
X67509Y-63185D01*
X67680Y-63547D02*
X67680Y-63147D01*
X67909Y-63547D02*
X67737Y-63318D01*
X67909Y-63147D02*
X67680Y-63375D01*
G54D10*
X23900Y-58607D02*
X23943Y-58621D01*
X24014Y-58621D01*
X24043Y-58607D01*
X24057Y-58593D01*
X24072Y-58564D01*
X24072Y-58536D01*
X24057Y-58507D01*
X24043Y-58493D01*
X24014Y-58479D01*
X23957Y-58464D01*
X23929Y-58450D01*
X23914Y-58436D01*
X23900Y-58407D01*
X23900Y-58379D01*
X23914Y-58350D01*
X23929Y-58336D01*
X23957Y-58321D01*
X24029Y-58321D01*
X24072Y-58336D01*
X24172Y-58321D02*
X24243Y-58621D01*
X24300Y-58407D01*
X24358Y-58621D01*
X24429Y-58321D01*
X24686Y-58321D02*
X24543Y-58321D01*
X24529Y-58464D01*
X24543Y-58450D01*
X24572Y-58436D01*
X24643Y-58436D01*
X24672Y-58450D01*
X24686Y-58464D01*
X24701Y-58493D01*
X24701Y-58564D01*
X24686Y-58593D01*
X24672Y-58607D01*
X24643Y-58621D01*
X24572Y-58621D01*
X24543Y-58607D01*
X24529Y-58593D01*
X23900Y-56007D02*
X23943Y-56021D01*
X24014Y-56021D01*
X24043Y-56007D01*
X24057Y-55993D01*
X24072Y-55964D01*
X24072Y-55936D01*
X24057Y-55907D01*
X24043Y-55893D01*
X24014Y-55879D01*
X23957Y-55864D01*
X23929Y-55850D01*
X23914Y-55836D01*
X23900Y-55807D01*
X23900Y-55779D01*
X23914Y-55750D01*
X23929Y-55736D01*
X23957Y-55721D01*
X24029Y-55721D01*
X24072Y-55736D01*
X24172Y-55721D02*
X24243Y-56021D01*
X24300Y-55807D01*
X24358Y-56021D01*
X24429Y-55721D01*
X24672Y-55821D02*
X24672Y-56021D01*
X24601Y-55707D02*
X24529Y-55921D01*
X24715Y-55921D01*
X23900Y-53407D02*
X23943Y-53421D01*
X24014Y-53421D01*
X24043Y-53407D01*
X24057Y-53393D01*
X24072Y-53364D01*
X24072Y-53336D01*
X24057Y-53307D01*
X24043Y-53293D01*
X24014Y-53279D01*
X23957Y-53264D01*
X23929Y-53250D01*
X23914Y-53236D01*
X23900Y-53207D01*
X23900Y-53179D01*
X23914Y-53150D01*
X23929Y-53136D01*
X23957Y-53121D01*
X24029Y-53121D01*
X24072Y-53136D01*
X24172Y-53121D02*
X24243Y-53421D01*
X24300Y-53207D01*
X24358Y-53421D01*
X24429Y-53121D01*
X24515Y-53121D02*
X24701Y-53121D01*
X24601Y-53236D01*
X24643Y-53236D01*
X24672Y-53250D01*
X24686Y-53264D01*
X24701Y-53293D01*
X24701Y-53364D01*
X24686Y-53393D01*
X24672Y-53407D01*
X24643Y-53421D01*
X24558Y-53421D01*
X24529Y-53407D01*
X24515Y-53393D01*
G54D15*
X38995Y-55643D02*
X38995Y-56129D01*
X39014Y-56186D01*
X39033Y-56214D01*
X39071Y-56243D01*
X39148Y-56243D01*
X39186Y-56214D01*
X39205Y-56186D01*
X39224Y-56129D01*
X39224Y-55643D01*
X39624Y-56243D02*
X39395Y-56243D01*
X39509Y-56243D02*
X39509Y-55643D01*
X39471Y-55729D01*
X39433Y-55786D01*
X39395Y-55814D01*
X40584Y-59443D02*
X40393Y-59443D01*
X40393Y-58843D01*
X40717Y-59443D02*
X40717Y-58843D01*
X40851Y-59271D01*
X40984Y-58843D01*
X40984Y-59443D01*
X41136Y-58843D02*
X41403Y-58843D01*
X41231Y-59443D01*
X41612Y-59100D02*
X41574Y-59071D01*
X41555Y-59043D01*
X41536Y-58986D01*
X41536Y-58957D01*
X41555Y-58900D01*
X41574Y-58871D01*
X41612Y-58843D01*
X41689Y-58843D01*
X41727Y-58871D01*
X41746Y-58900D01*
X41765Y-58957D01*
X41765Y-58986D01*
X41746Y-59043D01*
X41727Y-59071D01*
X41689Y-59100D01*
X41612Y-59100D01*
X41574Y-59129D01*
X41555Y-59157D01*
X41536Y-59214D01*
X41536Y-59329D01*
X41555Y-59386D01*
X41574Y-59414D01*
X41612Y-59443D01*
X41689Y-59443D01*
X41727Y-59414D01*
X41746Y-59386D01*
X41765Y-59329D01*
X41765Y-59214D01*
X41746Y-59157D01*
X41727Y-59129D01*
X41689Y-59100D01*
X42012Y-58843D02*
X42051Y-58843D01*
X42089Y-58871D01*
X42108Y-58900D01*
X42127Y-58957D01*
X42146Y-59071D01*
X42146Y-59214D01*
X42127Y-59329D01*
X42108Y-59386D01*
X42089Y-59414D01*
X42051Y-59443D01*
X42012Y-59443D01*
X41974Y-59414D01*
X41955Y-59386D01*
X41936Y-59329D01*
X41917Y-59214D01*
X41917Y-59071D01*
X41936Y-58957D01*
X41955Y-58900D01*
X41974Y-58871D01*
X42012Y-58843D01*
X42508Y-58843D02*
X42317Y-58843D01*
X42298Y-59129D01*
X42317Y-59100D01*
X42355Y-59071D01*
X42451Y-59071D01*
X42489Y-59100D01*
X42508Y-59129D01*
X42527Y-59186D01*
X42527Y-59329D01*
X42508Y-59386D01*
X42489Y-59414D01*
X42451Y-59443D01*
X42355Y-59443D01*
X42317Y-59414D01*
X42298Y-59386D01*
X33395Y-47502D02*
X33395Y-47907D01*
X33414Y-47955D01*
X33433Y-47979D01*
X33471Y-48002D01*
X33548Y-48002D01*
X33586Y-47979D01*
X33605Y-47955D01*
X33624Y-47907D01*
X33624Y-47502D01*
X33776Y-47502D02*
X34024Y-47502D01*
X33890Y-47693D01*
X33948Y-47693D01*
X33986Y-47717D01*
X34005Y-47740D01*
X34024Y-47788D01*
X34024Y-47907D01*
X34005Y-47955D01*
X33986Y-47979D01*
X33948Y-48002D01*
X33833Y-48002D01*
X33795Y-47979D01*
X33776Y-47955D01*
X35519Y-51455D02*
X35500Y-51479D01*
X35443Y-51502D01*
X35405Y-51502D01*
X35347Y-51479D01*
X35309Y-51431D01*
X35290Y-51383D01*
X35271Y-51288D01*
X35271Y-51217D01*
X35290Y-51121D01*
X35309Y-51074D01*
X35347Y-51026D01*
X35405Y-51002D01*
X35443Y-51002D01*
X35500Y-51026D01*
X35519Y-51050D01*
X35747Y-51217D02*
X35709Y-51193D01*
X35690Y-51169D01*
X35671Y-51121D01*
X35671Y-51098D01*
X35690Y-51050D01*
X35709Y-51026D01*
X35747Y-51002D01*
X35824Y-51002D01*
X35862Y-51026D01*
X35881Y-51050D01*
X35900Y-51098D01*
X35900Y-51121D01*
X35881Y-51169D01*
X35862Y-51193D01*
X35824Y-51217D01*
X35747Y-51217D01*
X35709Y-51240D01*
X35690Y-51264D01*
X35671Y-51312D01*
X35671Y-51407D01*
X35690Y-51455D01*
X35709Y-51479D01*
X35747Y-51502D01*
X35824Y-51502D01*
X35862Y-51479D01*
X35881Y-51455D01*
X35900Y-51407D01*
X35900Y-51312D01*
X35881Y-51264D01*
X35862Y-51240D01*
X35824Y-51217D01*
X36147Y-51002D02*
X36186Y-51002D01*
X36224Y-51026D01*
X36243Y-51050D01*
X36262Y-51098D01*
X36281Y-51193D01*
X36281Y-51312D01*
X36262Y-51407D01*
X36243Y-51455D01*
X36224Y-51479D01*
X36186Y-51502D01*
X36147Y-51502D01*
X36109Y-51479D01*
X36090Y-51455D01*
X36071Y-51407D01*
X36052Y-51312D01*
X36052Y-51193D01*
X36071Y-51098D01*
X36090Y-51050D01*
X36109Y-51026D01*
X36147Y-51002D01*
X36643Y-51002D02*
X36452Y-51002D01*
X36433Y-51240D01*
X36452Y-51217D01*
X36490Y-51193D01*
X36586Y-51193D01*
X36624Y-51217D01*
X36643Y-51240D01*
X36662Y-51288D01*
X36662Y-51407D01*
X36643Y-51455D01*
X36624Y-51479D01*
X36586Y-51502D01*
X36490Y-51502D01*
X36452Y-51479D01*
X36433Y-51455D01*
X37043Y-51502D02*
X36814Y-51502D01*
X36928Y-51502D02*
X36928Y-51002D01*
X36890Y-51074D01*
X36852Y-51121D01*
X36814Y-51145D01*
X37348Y-51240D02*
X37214Y-51240D01*
X37214Y-51502D02*
X37214Y-51002D01*
X37405Y-51002D01*
X37519Y-51002D02*
X37767Y-51002D01*
X37633Y-51193D01*
X37691Y-51193D01*
X37729Y-51217D01*
X37748Y-51240D01*
X37767Y-51288D01*
X37767Y-51407D01*
X37748Y-51455D01*
X37729Y-51479D01*
X37691Y-51502D01*
X37576Y-51502D01*
X37538Y-51479D01*
X37519Y-51455D01*
X37919Y-51050D02*
X37938Y-51026D01*
X37976Y-51002D01*
X38072Y-51002D01*
X38110Y-51026D01*
X38129Y-51050D01*
X38148Y-51098D01*
X38148Y-51145D01*
X38129Y-51217D01*
X37900Y-51502D01*
X38148Y-51502D01*
X38395Y-51002D02*
X38434Y-51002D01*
X38472Y-51026D01*
X38491Y-51050D01*
X38510Y-51098D01*
X38529Y-51193D01*
X38529Y-51312D01*
X38510Y-51407D01*
X38491Y-51455D01*
X38472Y-51479D01*
X38434Y-51502D01*
X38395Y-51502D01*
X38357Y-51479D01*
X38338Y-51455D01*
X38319Y-51407D01*
X38300Y-51312D01*
X38300Y-51193D01*
X38319Y-51098D01*
X38338Y-51050D01*
X38357Y-51026D01*
X38395Y-51002D01*
X43623Y-39697D02*
X43361Y-39864D01*
X43623Y-39983D02*
X43073Y-39983D01*
X43073Y-39792D01*
X43099Y-39745D01*
X43125Y-39721D01*
X43177Y-39697D01*
X43256Y-39697D01*
X43308Y-39721D01*
X43335Y-39745D01*
X43361Y-39792D01*
X43361Y-39983D01*
X43073Y-39554D02*
X43623Y-39388D01*
X43073Y-39221D01*
X43623Y-38792D02*
X43623Y-39078D01*
X43623Y-38935D02*
X43073Y-38935D01*
X43151Y-38983D01*
X43204Y-39030D01*
X43230Y-39078D01*
X39075Y-39883D02*
X39049Y-39859D01*
X39023Y-39811D01*
X39023Y-39692D01*
X39049Y-39645D01*
X39075Y-39621D01*
X39127Y-39597D01*
X39180Y-39597D01*
X39258Y-39621D01*
X39573Y-39907D01*
X39573Y-39597D01*
X39023Y-39288D02*
X39023Y-39240D01*
X39049Y-39192D01*
X39075Y-39169D01*
X39127Y-39145D01*
X39232Y-39121D01*
X39363Y-39121D01*
X39468Y-39145D01*
X39520Y-39169D01*
X39546Y-39192D01*
X39573Y-39240D01*
X39573Y-39288D01*
X39546Y-39335D01*
X39520Y-39359D01*
X39468Y-39383D01*
X39363Y-39407D01*
X39232Y-39407D01*
X39127Y-39383D01*
X39075Y-39359D01*
X39049Y-39335D01*
X39023Y-39288D01*
X39573Y-38907D02*
X39023Y-38907D01*
X39363Y-38859D02*
X39573Y-38716D01*
X39206Y-38716D02*
X39415Y-38907D01*
G54D12*
X61239Y-21477D02*
X61227Y-21489D01*
X61192Y-21501D01*
X61168Y-21501D01*
X61132Y-21489D01*
X61108Y-21465D01*
X61097Y-21442D01*
X61085Y-21394D01*
X61085Y-21358D01*
X61097Y-21311D01*
X61108Y-21287D01*
X61132Y-21263D01*
X61168Y-21251D01*
X61192Y-21251D01*
X61227Y-21263D01*
X61239Y-21275D01*
X61477Y-21501D02*
X61335Y-21501D01*
X61406Y-21501D02*
X61406Y-21251D01*
X61382Y-21287D01*
X61358Y-21311D01*
X61335Y-21323D01*
X61596Y-21501D02*
X61644Y-21501D01*
X61668Y-21489D01*
X61680Y-21477D01*
X61704Y-21442D01*
X61715Y-21394D01*
X61715Y-21299D01*
X61704Y-21275D01*
X61692Y-21263D01*
X61668Y-21251D01*
X61620Y-21251D01*
X61596Y-21263D01*
X61585Y-21275D01*
X61573Y-21299D01*
X61573Y-21358D01*
X61585Y-21382D01*
X61596Y-21394D01*
X61620Y-21406D01*
X61668Y-21406D01*
X61692Y-21394D01*
X61704Y-21382D01*
X61715Y-21358D01*
X78739Y-22277D02*
X78727Y-22289D01*
X78692Y-22301D01*
X78668Y-22301D01*
X78632Y-22289D01*
X78608Y-22265D01*
X78597Y-22242D01*
X78585Y-22194D01*
X78585Y-22158D01*
X78597Y-22111D01*
X78608Y-22087D01*
X78632Y-22063D01*
X78668Y-22051D01*
X78692Y-22051D01*
X78727Y-22063D01*
X78739Y-22075D01*
X78835Y-22075D02*
X78847Y-22063D01*
X78870Y-22051D01*
X78930Y-22051D01*
X78954Y-22063D01*
X78966Y-22075D01*
X78977Y-22099D01*
X78977Y-22123D01*
X78966Y-22158D01*
X78823Y-22301D01*
X78977Y-22301D01*
X79132Y-22051D02*
X79156Y-22051D01*
X79180Y-22063D01*
X79192Y-22075D01*
X79204Y-22099D01*
X79215Y-22146D01*
X79215Y-22206D01*
X79204Y-22254D01*
X79192Y-22277D01*
X79180Y-22289D01*
X79156Y-22301D01*
X79132Y-22301D01*
X79108Y-22289D01*
X79096Y-22277D01*
X79085Y-22254D01*
X79073Y-22206D01*
X79073Y-22146D01*
X79085Y-22099D01*
X79096Y-22075D01*
X79108Y-22063D01*
X79132Y-22051D01*
X70339Y-37177D02*
X70327Y-37189D01*
X70292Y-37201D01*
X70268Y-37201D01*
X70232Y-37189D01*
X70208Y-37165D01*
X70197Y-37142D01*
X70185Y-37094D01*
X70185Y-37058D01*
X70197Y-37011D01*
X70208Y-36987D01*
X70232Y-36963D01*
X70268Y-36951D01*
X70292Y-36951D01*
X70327Y-36963D01*
X70339Y-36975D01*
X70435Y-36975D02*
X70447Y-36963D01*
X70470Y-36951D01*
X70530Y-36951D01*
X70554Y-36963D01*
X70566Y-36975D01*
X70577Y-36999D01*
X70577Y-37023D01*
X70566Y-37058D01*
X70423Y-37201D01*
X70577Y-37201D01*
X70815Y-37201D02*
X70673Y-37201D01*
X70744Y-37201D02*
X70744Y-36951D01*
X70720Y-36987D01*
X70696Y-37011D01*
X70673Y-37023D01*
X70339Y-21477D02*
X70327Y-21489D01*
X70292Y-21501D01*
X70268Y-21501D01*
X70232Y-21489D01*
X70208Y-21465D01*
X70197Y-21442D01*
X70185Y-21394D01*
X70185Y-21358D01*
X70197Y-21311D01*
X70208Y-21287D01*
X70232Y-21263D01*
X70268Y-21251D01*
X70292Y-21251D01*
X70327Y-21263D01*
X70339Y-21275D01*
X70577Y-21501D02*
X70435Y-21501D01*
X70506Y-21501D02*
X70506Y-21251D01*
X70482Y-21287D01*
X70458Y-21311D01*
X70435Y-21323D01*
X70661Y-21251D02*
X70827Y-21251D01*
X70720Y-21501D01*
X78639Y-34777D02*
X78627Y-34789D01*
X78592Y-34801D01*
X78568Y-34801D01*
X78532Y-34789D01*
X78508Y-34765D01*
X78497Y-34742D01*
X78485Y-34694D01*
X78485Y-34658D01*
X78497Y-34611D01*
X78508Y-34587D01*
X78532Y-34563D01*
X78568Y-34551D01*
X78592Y-34551D01*
X78627Y-34563D01*
X78639Y-34575D01*
X78877Y-34801D02*
X78735Y-34801D01*
X78806Y-34801D02*
X78806Y-34551D01*
X78782Y-34587D01*
X78758Y-34611D01*
X78735Y-34623D01*
X79092Y-34551D02*
X79044Y-34551D01*
X79020Y-34563D01*
X79008Y-34575D01*
X78985Y-34611D01*
X78973Y-34658D01*
X78973Y-34754D01*
X78985Y-34777D01*
X78996Y-34789D01*
X79020Y-34801D01*
X79068Y-34801D01*
X79092Y-34789D01*
X79104Y-34777D01*
X79115Y-34754D01*
X79115Y-34694D01*
X79104Y-34670D01*
X79092Y-34658D01*
X79068Y-34646D01*
X79020Y-34646D01*
X78996Y-34658D01*
X78985Y-34670D01*
X78973Y-34694D01*
X61339Y-37177D02*
X61327Y-37189D01*
X61292Y-37201D01*
X61268Y-37201D01*
X61232Y-37189D01*
X61208Y-37165D01*
X61197Y-37142D01*
X61185Y-37094D01*
X61185Y-37058D01*
X61197Y-37011D01*
X61208Y-36987D01*
X61232Y-36963D01*
X61268Y-36951D01*
X61292Y-36951D01*
X61327Y-36963D01*
X61339Y-36975D01*
X61577Y-37201D02*
X61435Y-37201D01*
X61506Y-37201D02*
X61506Y-36951D01*
X61482Y-36987D01*
X61458Y-37011D01*
X61435Y-37023D01*
X61804Y-36951D02*
X61685Y-36951D01*
X61673Y-37070D01*
X61685Y-37058D01*
X61708Y-37046D01*
X61768Y-37046D01*
X61792Y-37058D01*
X61804Y-37070D01*
X61815Y-37094D01*
X61815Y-37154D01*
X61804Y-37177D01*
X61792Y-37189D01*
X61768Y-37201D01*
X61708Y-37201D01*
X61685Y-37189D01*
X61673Y-37177D01*
X70339Y-52677D02*
X70327Y-52689D01*
X70292Y-52701D01*
X70268Y-52701D01*
X70232Y-52689D01*
X70208Y-52665D01*
X70197Y-52642D01*
X70185Y-52594D01*
X70185Y-52558D01*
X70197Y-52511D01*
X70208Y-52487D01*
X70232Y-52463D01*
X70268Y-52451D01*
X70292Y-52451D01*
X70327Y-52463D01*
X70339Y-52475D01*
X70577Y-52701D02*
X70435Y-52701D01*
X70506Y-52701D02*
X70506Y-52451D01*
X70482Y-52487D01*
X70458Y-52511D01*
X70435Y-52523D01*
X70792Y-52535D02*
X70792Y-52701D01*
X70732Y-52439D02*
X70673Y-52618D01*
X70827Y-52618D01*
X75839Y-49577D02*
X75827Y-49589D01*
X75792Y-49601D01*
X75768Y-49601D01*
X75732Y-49589D01*
X75708Y-49565D01*
X75697Y-49542D01*
X75685Y-49494D01*
X75685Y-49458D01*
X75697Y-49411D01*
X75708Y-49387D01*
X75732Y-49363D01*
X75768Y-49351D01*
X75792Y-49351D01*
X75827Y-49363D01*
X75839Y-49375D01*
X76077Y-49601D02*
X75935Y-49601D01*
X76006Y-49601D02*
X76006Y-49351D01*
X75982Y-49387D01*
X75958Y-49411D01*
X75935Y-49423D01*
X76220Y-49458D02*
X76196Y-49446D01*
X76185Y-49435D01*
X76173Y-49411D01*
X76173Y-49399D01*
X76185Y-49375D01*
X76196Y-49363D01*
X76220Y-49351D01*
X76268Y-49351D01*
X76292Y-49363D01*
X76304Y-49375D01*
X76315Y-49399D01*
X76315Y-49411D01*
X76304Y-49435D01*
X76292Y-49446D01*
X76268Y-49458D01*
X76220Y-49458D01*
X76196Y-49470D01*
X76185Y-49482D01*
X76173Y-49506D01*
X76173Y-49554D01*
X76185Y-49577D01*
X76196Y-49589D01*
X76220Y-49601D01*
X76268Y-49601D01*
X76292Y-49589D01*
X76304Y-49577D01*
X76315Y-49554D01*
X76315Y-49506D01*
X76304Y-49482D01*
X76292Y-49470D01*
X76268Y-49458D01*
X34058Y-30677D02*
X34046Y-30689D01*
X34011Y-30701D01*
X33987Y-30701D01*
X33951Y-30689D01*
X33927Y-30665D01*
X33916Y-30642D01*
X33904Y-30594D01*
X33904Y-30558D01*
X33916Y-30511D01*
X33927Y-30487D01*
X33951Y-30463D01*
X33987Y-30451D01*
X34011Y-30451D01*
X34046Y-30463D01*
X34058Y-30475D01*
X34177Y-30701D02*
X34225Y-30701D01*
X34249Y-30689D01*
X34261Y-30677D01*
X34285Y-30642D01*
X34296Y-30594D01*
X34296Y-30499D01*
X34285Y-30475D01*
X34273Y-30463D01*
X34249Y-30451D01*
X34201Y-30451D01*
X34177Y-30463D01*
X34166Y-30475D01*
X34154Y-30499D01*
X34154Y-30558D01*
X34166Y-30582D01*
X34177Y-30594D01*
X34201Y-30606D01*
X34249Y-30606D01*
X34273Y-30594D01*
X34285Y-30582D01*
X34296Y-30558D01*
X33558Y-40477D02*
X33546Y-40489D01*
X33511Y-40501D01*
X33487Y-40501D01*
X33451Y-40489D01*
X33427Y-40465D01*
X33416Y-40442D01*
X33404Y-40394D01*
X33404Y-40358D01*
X33416Y-40311D01*
X33427Y-40287D01*
X33451Y-40263D01*
X33487Y-40251D01*
X33511Y-40251D01*
X33546Y-40263D01*
X33558Y-40275D01*
X33701Y-40358D02*
X33677Y-40346D01*
X33666Y-40335D01*
X33654Y-40311D01*
X33654Y-40299D01*
X33666Y-40275D01*
X33677Y-40263D01*
X33701Y-40251D01*
X33749Y-40251D01*
X33773Y-40263D01*
X33785Y-40275D01*
X33796Y-40299D01*
X33796Y-40311D01*
X33785Y-40335D01*
X33773Y-40346D01*
X33749Y-40358D01*
X33701Y-40358D01*
X33677Y-40370D01*
X33666Y-40382D01*
X33654Y-40406D01*
X33654Y-40454D01*
X33666Y-40477D01*
X33677Y-40489D01*
X33701Y-40501D01*
X33749Y-40501D01*
X33773Y-40489D01*
X33785Y-40477D01*
X33796Y-40454D01*
X33796Y-40406D01*
X33785Y-40382D01*
X33773Y-40370D01*
X33749Y-40358D01*
X30158Y-48077D02*
X30146Y-48089D01*
X30111Y-48101D01*
X30087Y-48101D01*
X30051Y-48089D01*
X30027Y-48065D01*
X30016Y-48042D01*
X30004Y-47994D01*
X30004Y-47958D01*
X30016Y-47911D01*
X30027Y-47887D01*
X30051Y-47863D01*
X30087Y-47851D01*
X30111Y-47851D01*
X30146Y-47863D01*
X30158Y-47875D01*
X30373Y-47851D02*
X30325Y-47851D01*
X30301Y-47863D01*
X30289Y-47875D01*
X30266Y-47911D01*
X30254Y-47958D01*
X30254Y-48054D01*
X30266Y-48077D01*
X30277Y-48089D01*
X30301Y-48101D01*
X30349Y-48101D01*
X30373Y-48089D01*
X30385Y-48077D01*
X30396Y-48054D01*
X30396Y-47994D01*
X30385Y-47970D01*
X30373Y-47958D01*
X30349Y-47946D01*
X30301Y-47946D01*
X30277Y-47958D01*
X30266Y-47970D01*
X30254Y-47994D01*
X38958Y-53777D02*
X38946Y-53789D01*
X38911Y-53801D01*
X38887Y-53801D01*
X38851Y-53789D01*
X38827Y-53765D01*
X38816Y-53742D01*
X38804Y-53694D01*
X38804Y-53658D01*
X38816Y-53611D01*
X38827Y-53587D01*
X38851Y-53563D01*
X38887Y-53551D01*
X38911Y-53551D01*
X38946Y-53563D01*
X38958Y-53575D01*
X39185Y-53551D02*
X39066Y-53551D01*
X39054Y-53670D01*
X39066Y-53658D01*
X39089Y-53646D01*
X39149Y-53646D01*
X39173Y-53658D01*
X39185Y-53670D01*
X39196Y-53694D01*
X39196Y-53754D01*
X39185Y-53777D01*
X39173Y-53789D01*
X39149Y-53801D01*
X39089Y-53801D01*
X39066Y-53789D01*
X39054Y-53777D01*
X37958Y-40977D02*
X37946Y-40989D01*
X37911Y-41001D01*
X37887Y-41001D01*
X37851Y-40989D01*
X37827Y-40965D01*
X37816Y-40942D01*
X37804Y-40894D01*
X37804Y-40858D01*
X37816Y-40811D01*
X37827Y-40787D01*
X37851Y-40763D01*
X37887Y-40751D01*
X37911Y-40751D01*
X37946Y-40763D01*
X37958Y-40775D01*
X38042Y-40751D02*
X38196Y-40751D01*
X38113Y-40846D01*
X38149Y-40846D01*
X38173Y-40858D01*
X38185Y-40870D01*
X38196Y-40894D01*
X38196Y-40954D01*
X38185Y-40977D01*
X38173Y-40989D01*
X38149Y-41001D01*
X38077Y-41001D01*
X38054Y-40989D01*
X38042Y-40977D01*
X43958Y-53777D02*
X43946Y-53789D01*
X43911Y-53801D01*
X43887Y-53801D01*
X43851Y-53789D01*
X43827Y-53765D01*
X43816Y-53742D01*
X43804Y-53694D01*
X43804Y-53658D01*
X43816Y-53611D01*
X43827Y-53587D01*
X43851Y-53563D01*
X43887Y-53551D01*
X43911Y-53551D01*
X43946Y-53563D01*
X43958Y-53575D01*
X44054Y-53575D02*
X44066Y-53563D01*
X44089Y-53551D01*
X44149Y-53551D01*
X44173Y-53563D01*
X44185Y-53575D01*
X44196Y-53599D01*
X44196Y-53623D01*
X44185Y-53658D01*
X44042Y-53801D01*
X44196Y-53801D01*
X30439Y-51877D02*
X30427Y-51889D01*
X30392Y-51901D01*
X30368Y-51901D01*
X30332Y-51889D01*
X30308Y-51865D01*
X30297Y-51842D01*
X30285Y-51794D01*
X30285Y-51758D01*
X30297Y-51711D01*
X30308Y-51687D01*
X30332Y-51663D01*
X30368Y-51651D01*
X30392Y-51651D01*
X30427Y-51663D01*
X30439Y-51675D01*
X30677Y-51901D02*
X30535Y-51901D01*
X30606Y-51901D02*
X30606Y-51651D01*
X30582Y-51687D01*
X30558Y-51711D01*
X30535Y-51723D01*
X30761Y-51651D02*
X30915Y-51651D01*
X30832Y-51746D01*
X30868Y-51746D01*
X30892Y-51758D01*
X30904Y-51770D01*
X30915Y-51794D01*
X30915Y-51854D01*
X30904Y-51877D01*
X30892Y-51889D01*
X30868Y-51901D01*
X30796Y-51901D01*
X30773Y-51889D01*
X30761Y-51877D01*
X82407Y-37121D02*
X82307Y-36979D01*
X82235Y-37121D02*
X82235Y-36821D01*
X82350Y-36821D01*
X82378Y-36836D01*
X82393Y-36850D01*
X82407Y-36879D01*
X82407Y-36921D01*
X82393Y-36950D01*
X82378Y-36964D01*
X82350Y-36979D01*
X82235Y-36979D01*
X82664Y-36821D02*
X82607Y-36821D01*
X82578Y-36836D01*
X82564Y-36850D01*
X82535Y-36893D01*
X82521Y-36950D01*
X82521Y-37064D01*
X82535Y-37093D01*
X82550Y-37107D01*
X82578Y-37121D01*
X82635Y-37121D01*
X82664Y-37107D01*
X82678Y-37093D01*
X82693Y-37064D01*
X82693Y-36993D01*
X82678Y-36964D01*
X82664Y-36950D01*
X82635Y-36936D01*
X82578Y-36936D01*
X82550Y-36950D01*
X82535Y-36964D01*
X82521Y-36993D01*
X82979Y-37121D02*
X82807Y-37121D01*
X82893Y-37121D02*
X82893Y-36821D01*
X82864Y-36864D01*
X82836Y-36893D01*
X82807Y-36907D01*
X82407Y-36121D02*
X82307Y-35979D01*
X82235Y-36121D02*
X82235Y-35821D01*
X82350Y-35821D01*
X82378Y-35836D01*
X82393Y-35850D01*
X82407Y-35879D01*
X82407Y-35921D01*
X82393Y-35950D01*
X82378Y-35964D01*
X82350Y-35979D01*
X82235Y-35979D01*
X82664Y-35821D02*
X82607Y-35821D01*
X82578Y-35836D01*
X82564Y-35850D01*
X82535Y-35893D01*
X82521Y-35950D01*
X82521Y-36064D01*
X82535Y-36093D01*
X82550Y-36107D01*
X82578Y-36121D01*
X82635Y-36121D01*
X82664Y-36107D01*
X82678Y-36093D01*
X82693Y-36064D01*
X82693Y-35993D01*
X82678Y-35964D01*
X82664Y-35950D01*
X82635Y-35936D01*
X82578Y-35936D01*
X82550Y-35950D01*
X82535Y-35964D01*
X82521Y-35993D01*
X82879Y-35821D02*
X82907Y-35821D01*
X82936Y-35836D01*
X82950Y-35850D01*
X82964Y-35879D01*
X82979Y-35936D01*
X82979Y-36007D01*
X82964Y-36064D01*
X82950Y-36093D01*
X82936Y-36107D01*
X82907Y-36121D01*
X82879Y-36121D01*
X82850Y-36107D01*
X82836Y-36093D01*
X82821Y-36064D01*
X82807Y-36007D01*
X82807Y-35936D01*
X82821Y-35879D01*
X82836Y-35850D01*
X82850Y-35836D01*
X82879Y-35821D01*
X82407Y-35121D02*
X82307Y-34979D01*
X82235Y-35121D02*
X82235Y-34821D01*
X82350Y-34821D01*
X82378Y-34836D01*
X82393Y-34850D01*
X82407Y-34879D01*
X82407Y-34921D01*
X82393Y-34950D01*
X82378Y-34964D01*
X82350Y-34979D01*
X82235Y-34979D01*
X82678Y-34821D02*
X82535Y-34821D01*
X82521Y-34964D01*
X82535Y-34950D01*
X82564Y-34936D01*
X82635Y-34936D01*
X82664Y-34950D01*
X82678Y-34964D01*
X82693Y-34993D01*
X82693Y-35064D01*
X82678Y-35093D01*
X82664Y-35107D01*
X82635Y-35121D01*
X82564Y-35121D01*
X82535Y-35107D01*
X82521Y-35093D01*
X82836Y-35121D02*
X82893Y-35121D01*
X82921Y-35107D01*
X82936Y-35093D01*
X82964Y-35050D01*
X82979Y-34993D01*
X82979Y-34879D01*
X82964Y-34850D01*
X82950Y-34836D01*
X82921Y-34821D01*
X82864Y-34821D01*
X82836Y-34836D01*
X82821Y-34850D01*
X82807Y-34879D01*
X82807Y-34950D01*
X82821Y-34979D01*
X82836Y-34993D01*
X82864Y-35007D01*
X82921Y-35007D01*
X82950Y-34993D01*
X82964Y-34979D01*
X82979Y-34950D01*
X82407Y-34121D02*
X82307Y-33979D01*
X82235Y-34121D02*
X82235Y-33821D01*
X82350Y-33821D01*
X82378Y-33836D01*
X82393Y-33850D01*
X82407Y-33879D01*
X82407Y-33921D01*
X82393Y-33950D01*
X82378Y-33964D01*
X82350Y-33979D01*
X82235Y-33979D01*
X82678Y-33821D02*
X82535Y-33821D01*
X82521Y-33964D01*
X82535Y-33950D01*
X82564Y-33936D01*
X82635Y-33936D01*
X82664Y-33950D01*
X82678Y-33964D01*
X82693Y-33993D01*
X82693Y-34064D01*
X82678Y-34093D01*
X82664Y-34107D01*
X82635Y-34121D01*
X82564Y-34121D01*
X82535Y-34107D01*
X82521Y-34093D01*
X82864Y-33950D02*
X82836Y-33936D01*
X82821Y-33921D01*
X82807Y-33893D01*
X82807Y-33879D01*
X82821Y-33850D01*
X82836Y-33836D01*
X82864Y-33821D01*
X82921Y-33821D01*
X82950Y-33836D01*
X82964Y-33850D01*
X82979Y-33879D01*
X82979Y-33893D01*
X82964Y-33921D01*
X82950Y-33936D01*
X82921Y-33950D01*
X82864Y-33950D01*
X82836Y-33964D01*
X82821Y-33979D01*
X82807Y-34007D01*
X82807Y-34064D01*
X82821Y-34093D01*
X82836Y-34107D01*
X82864Y-34121D01*
X82921Y-34121D01*
X82950Y-34107D01*
X82964Y-34093D01*
X82979Y-34064D01*
X82979Y-34007D01*
X82964Y-33979D01*
X82950Y-33964D01*
X82921Y-33950D01*
X82407Y-33121D02*
X82307Y-32979D01*
X82235Y-33121D02*
X82235Y-32821D01*
X82350Y-32821D01*
X82378Y-32836D01*
X82393Y-32850D01*
X82407Y-32879D01*
X82407Y-32921D01*
X82393Y-32950D01*
X82378Y-32964D01*
X82350Y-32979D01*
X82235Y-32979D01*
X82678Y-32821D02*
X82535Y-32821D01*
X82521Y-32964D01*
X82535Y-32950D01*
X82564Y-32936D01*
X82635Y-32936D01*
X82664Y-32950D01*
X82678Y-32964D01*
X82693Y-32993D01*
X82693Y-33064D01*
X82678Y-33093D01*
X82664Y-33107D01*
X82635Y-33121D01*
X82564Y-33121D01*
X82535Y-33107D01*
X82521Y-33093D01*
X82793Y-32821D02*
X82993Y-32821D01*
X82864Y-33121D01*
X82407Y-32121D02*
X82307Y-31979D01*
X82235Y-32121D02*
X82235Y-31821D01*
X82350Y-31821D01*
X82378Y-31836D01*
X82393Y-31850D01*
X82407Y-31879D01*
X82407Y-31921D01*
X82393Y-31950D01*
X82378Y-31964D01*
X82350Y-31979D01*
X82235Y-31979D01*
X82678Y-31821D02*
X82535Y-31821D01*
X82521Y-31964D01*
X82535Y-31950D01*
X82564Y-31936D01*
X82635Y-31936D01*
X82664Y-31950D01*
X82678Y-31964D01*
X82693Y-31993D01*
X82693Y-32064D01*
X82678Y-32093D01*
X82664Y-32107D01*
X82635Y-32121D01*
X82564Y-32121D01*
X82535Y-32107D01*
X82521Y-32093D01*
X82950Y-31821D02*
X82893Y-31821D01*
X82864Y-31836D01*
X82850Y-31850D01*
X82821Y-31893D01*
X82807Y-31950D01*
X82807Y-32064D01*
X82821Y-32093D01*
X82836Y-32107D01*
X82864Y-32121D01*
X82921Y-32121D01*
X82950Y-32107D01*
X82964Y-32093D01*
X82979Y-32064D01*
X82979Y-31993D01*
X82964Y-31964D01*
X82950Y-31950D01*
X82921Y-31936D01*
X82864Y-31936D01*
X82836Y-31950D01*
X82821Y-31964D01*
X82807Y-31993D01*
X82407Y-31121D02*
X82307Y-30979D01*
X82235Y-31121D02*
X82235Y-30821D01*
X82350Y-30821D01*
X82378Y-30836D01*
X82393Y-30850D01*
X82407Y-30879D01*
X82407Y-30921D01*
X82393Y-30950D01*
X82378Y-30964D01*
X82350Y-30979D01*
X82235Y-30979D01*
X82678Y-30821D02*
X82535Y-30821D01*
X82521Y-30964D01*
X82535Y-30950D01*
X82564Y-30936D01*
X82635Y-30936D01*
X82664Y-30950D01*
X82678Y-30964D01*
X82693Y-30993D01*
X82693Y-31064D01*
X82678Y-31093D01*
X82664Y-31107D01*
X82635Y-31121D01*
X82564Y-31121D01*
X82535Y-31107D01*
X82521Y-31093D01*
X82964Y-30821D02*
X82821Y-30821D01*
X82807Y-30964D01*
X82821Y-30950D01*
X82850Y-30936D01*
X82921Y-30936D01*
X82950Y-30950D01*
X82964Y-30964D01*
X82979Y-30993D01*
X82979Y-31064D01*
X82964Y-31093D01*
X82950Y-31107D01*
X82921Y-31121D01*
X82850Y-31121D01*
X82821Y-31107D01*
X82807Y-31093D01*
X82407Y-30121D02*
X82307Y-29979D01*
X82235Y-30121D02*
X82235Y-29821D01*
X82350Y-29821D01*
X82378Y-29836D01*
X82393Y-29850D01*
X82407Y-29879D01*
X82407Y-29921D01*
X82393Y-29950D01*
X82378Y-29964D01*
X82350Y-29979D01*
X82235Y-29979D01*
X82678Y-29821D02*
X82535Y-29821D01*
X82521Y-29964D01*
X82535Y-29950D01*
X82564Y-29936D01*
X82635Y-29936D01*
X82664Y-29950D01*
X82678Y-29964D01*
X82693Y-29993D01*
X82693Y-30064D01*
X82678Y-30093D01*
X82664Y-30107D01*
X82635Y-30121D01*
X82564Y-30121D01*
X82535Y-30107D01*
X82521Y-30093D01*
X82950Y-29921D02*
X82950Y-30121D01*
X82879Y-29807D02*
X82807Y-30021D01*
X82993Y-30021D01*
X82407Y-29121D02*
X82307Y-28979D01*
X82235Y-29121D02*
X82235Y-28821D01*
X82350Y-28821D01*
X82378Y-28836D01*
X82393Y-28850D01*
X82407Y-28879D01*
X82407Y-28921D01*
X82393Y-28950D01*
X82378Y-28964D01*
X82350Y-28979D01*
X82235Y-28979D01*
X82678Y-28821D02*
X82535Y-28821D01*
X82521Y-28964D01*
X82535Y-28950D01*
X82564Y-28936D01*
X82635Y-28936D01*
X82664Y-28950D01*
X82678Y-28964D01*
X82693Y-28993D01*
X82693Y-29064D01*
X82678Y-29093D01*
X82664Y-29107D01*
X82635Y-29121D01*
X82564Y-29121D01*
X82535Y-29107D01*
X82521Y-29093D01*
X82793Y-28821D02*
X82979Y-28821D01*
X82879Y-28936D01*
X82921Y-28936D01*
X82950Y-28950D01*
X82964Y-28964D01*
X82979Y-28993D01*
X82979Y-29064D01*
X82964Y-29093D01*
X82950Y-29107D01*
X82921Y-29121D01*
X82836Y-29121D01*
X82807Y-29107D01*
X82793Y-29093D01*
X82407Y-28121D02*
X82307Y-27979D01*
X82235Y-28121D02*
X82235Y-27821D01*
X82350Y-27821D01*
X82378Y-27836D01*
X82393Y-27850D01*
X82407Y-27879D01*
X82407Y-27921D01*
X82393Y-27950D01*
X82378Y-27964D01*
X82350Y-27979D01*
X82235Y-27979D01*
X82678Y-27821D02*
X82535Y-27821D01*
X82521Y-27964D01*
X82535Y-27950D01*
X82564Y-27936D01*
X82635Y-27936D01*
X82664Y-27950D01*
X82678Y-27964D01*
X82693Y-27993D01*
X82693Y-28064D01*
X82678Y-28093D01*
X82664Y-28107D01*
X82635Y-28121D01*
X82564Y-28121D01*
X82535Y-28107D01*
X82521Y-28093D01*
X82807Y-27850D02*
X82821Y-27836D01*
X82850Y-27821D01*
X82921Y-27821D01*
X82950Y-27836D01*
X82964Y-27850D01*
X82979Y-27879D01*
X82979Y-27907D01*
X82964Y-27950D01*
X82793Y-28121D01*
X82979Y-28121D01*
X82407Y-27121D02*
X82307Y-26979D01*
X82235Y-27121D02*
X82235Y-26821D01*
X82350Y-26821D01*
X82378Y-26836D01*
X82393Y-26850D01*
X82407Y-26879D01*
X82407Y-26921D01*
X82393Y-26950D01*
X82378Y-26964D01*
X82350Y-26979D01*
X82235Y-26979D01*
X82678Y-26821D02*
X82535Y-26821D01*
X82521Y-26964D01*
X82535Y-26950D01*
X82564Y-26936D01*
X82635Y-26936D01*
X82664Y-26950D01*
X82678Y-26964D01*
X82693Y-26993D01*
X82693Y-27064D01*
X82678Y-27093D01*
X82664Y-27107D01*
X82635Y-27121D01*
X82564Y-27121D01*
X82535Y-27107D01*
X82521Y-27093D01*
X82979Y-27121D02*
X82807Y-27121D01*
X82893Y-27121D02*
X82893Y-26821D01*
X82864Y-26864D01*
X82836Y-26893D01*
X82807Y-26907D01*
X82407Y-26121D02*
X82307Y-25979D01*
X82235Y-26121D02*
X82235Y-25821D01*
X82350Y-25821D01*
X82378Y-25836D01*
X82393Y-25850D01*
X82407Y-25879D01*
X82407Y-25921D01*
X82393Y-25950D01*
X82378Y-25964D01*
X82350Y-25979D01*
X82235Y-25979D01*
X82678Y-25821D02*
X82535Y-25821D01*
X82521Y-25964D01*
X82535Y-25950D01*
X82564Y-25936D01*
X82635Y-25936D01*
X82664Y-25950D01*
X82678Y-25964D01*
X82693Y-25993D01*
X82693Y-26064D01*
X82678Y-26093D01*
X82664Y-26107D01*
X82635Y-26121D01*
X82564Y-26121D01*
X82535Y-26107D01*
X82521Y-26093D01*
X82879Y-25821D02*
X82907Y-25821D01*
X82936Y-25836D01*
X82950Y-25850D01*
X82964Y-25879D01*
X82979Y-25936D01*
X82979Y-26007D01*
X82964Y-26064D01*
X82950Y-26093D01*
X82936Y-26107D01*
X82907Y-26121D01*
X82879Y-26121D01*
X82850Y-26107D01*
X82836Y-26093D01*
X82821Y-26064D01*
X82807Y-26007D01*
X82807Y-25936D01*
X82821Y-25879D01*
X82836Y-25850D01*
X82850Y-25836D01*
X82879Y-25821D01*
X82407Y-25121D02*
X82307Y-24979D01*
X82235Y-25121D02*
X82235Y-24821D01*
X82350Y-24821D01*
X82378Y-24836D01*
X82393Y-24850D01*
X82407Y-24879D01*
X82407Y-24921D01*
X82393Y-24950D01*
X82378Y-24964D01*
X82350Y-24979D01*
X82235Y-24979D01*
X82664Y-24921D02*
X82664Y-25121D01*
X82593Y-24807D02*
X82521Y-25021D01*
X82707Y-25021D01*
X82836Y-25121D02*
X82893Y-25121D01*
X82921Y-25107D01*
X82936Y-25093D01*
X82964Y-25050D01*
X82979Y-24993D01*
X82979Y-24879D01*
X82964Y-24850D01*
X82950Y-24836D01*
X82921Y-24821D01*
X82864Y-24821D01*
X82836Y-24836D01*
X82821Y-24850D01*
X82807Y-24879D01*
X82807Y-24950D01*
X82821Y-24979D01*
X82836Y-24993D01*
X82864Y-25007D01*
X82921Y-25007D01*
X82950Y-24993D01*
X82964Y-24979D01*
X82979Y-24950D01*
X82407Y-24121D02*
X82307Y-23979D01*
X82235Y-24121D02*
X82235Y-23821D01*
X82350Y-23821D01*
X82378Y-23836D01*
X82393Y-23850D01*
X82407Y-23879D01*
X82407Y-23921D01*
X82393Y-23950D01*
X82378Y-23964D01*
X82350Y-23979D01*
X82235Y-23979D01*
X82664Y-23921D02*
X82664Y-24121D01*
X82593Y-23807D02*
X82521Y-24021D01*
X82707Y-24021D01*
X82864Y-23950D02*
X82836Y-23936D01*
X82821Y-23921D01*
X82807Y-23893D01*
X82807Y-23879D01*
X82821Y-23850D01*
X82836Y-23836D01*
X82864Y-23821D01*
X82921Y-23821D01*
X82950Y-23836D01*
X82964Y-23850D01*
X82979Y-23879D01*
X82979Y-23893D01*
X82964Y-23921D01*
X82950Y-23936D01*
X82921Y-23950D01*
X82864Y-23950D01*
X82836Y-23964D01*
X82821Y-23979D01*
X82807Y-24007D01*
X82807Y-24064D01*
X82821Y-24093D01*
X82836Y-24107D01*
X82864Y-24121D01*
X82921Y-24121D01*
X82950Y-24107D01*
X82964Y-24093D01*
X82979Y-24064D01*
X82979Y-24007D01*
X82964Y-23979D01*
X82950Y-23964D01*
X82921Y-23950D01*
X82407Y-38121D02*
X82307Y-37979D01*
X82235Y-38121D02*
X82235Y-37821D01*
X82350Y-37821D01*
X82378Y-37836D01*
X82393Y-37850D01*
X82407Y-37879D01*
X82407Y-37921D01*
X82393Y-37950D01*
X82378Y-37964D01*
X82350Y-37979D01*
X82235Y-37979D01*
X82664Y-37821D02*
X82607Y-37821D01*
X82578Y-37836D01*
X82564Y-37850D01*
X82535Y-37893D01*
X82521Y-37950D01*
X82521Y-38064D01*
X82535Y-38093D01*
X82550Y-38107D01*
X82578Y-38121D01*
X82635Y-38121D01*
X82664Y-38107D01*
X82678Y-38093D01*
X82693Y-38064D01*
X82693Y-37993D01*
X82678Y-37964D01*
X82664Y-37950D01*
X82635Y-37936D01*
X82578Y-37936D01*
X82550Y-37950D01*
X82535Y-37964D01*
X82521Y-37993D01*
X82807Y-37850D02*
X82821Y-37836D01*
X82850Y-37821D01*
X82921Y-37821D01*
X82950Y-37836D01*
X82964Y-37850D01*
X82979Y-37879D01*
X82979Y-37907D01*
X82964Y-37950D01*
X82793Y-38121D01*
X82979Y-38121D01*
X82407Y-39121D02*
X82307Y-38979D01*
X82235Y-39121D02*
X82235Y-38821D01*
X82350Y-38821D01*
X82378Y-38836D01*
X82393Y-38850D01*
X82407Y-38879D01*
X82407Y-38921D01*
X82393Y-38950D01*
X82378Y-38964D01*
X82350Y-38979D01*
X82235Y-38979D01*
X82664Y-38821D02*
X82607Y-38821D01*
X82578Y-38836D01*
X82564Y-38850D01*
X82535Y-38893D01*
X82521Y-38950D01*
X82521Y-39064D01*
X82535Y-39093D01*
X82550Y-39107D01*
X82578Y-39121D01*
X82635Y-39121D01*
X82664Y-39107D01*
X82678Y-39093D01*
X82693Y-39064D01*
X82693Y-38993D01*
X82678Y-38964D01*
X82664Y-38950D01*
X82635Y-38936D01*
X82578Y-38936D01*
X82550Y-38950D01*
X82535Y-38964D01*
X82521Y-38993D01*
X82793Y-38821D02*
X82979Y-38821D01*
X82879Y-38936D01*
X82921Y-38936D01*
X82950Y-38950D01*
X82964Y-38964D01*
X82979Y-38993D01*
X82979Y-39064D01*
X82964Y-39093D01*
X82950Y-39107D01*
X82921Y-39121D01*
X82836Y-39121D01*
X82807Y-39107D01*
X82793Y-39093D01*
X45407Y-25021D02*
X45307Y-24879D01*
X45235Y-25021D02*
X45235Y-24721D01*
X45350Y-24721D01*
X45378Y-24736D01*
X45393Y-24750D01*
X45407Y-24779D01*
X45407Y-24821D01*
X45393Y-24850D01*
X45378Y-24864D01*
X45350Y-24879D01*
X45235Y-24879D01*
X45693Y-25021D02*
X45521Y-25021D01*
X45607Y-25021D02*
X45607Y-24721D01*
X45578Y-24764D01*
X45550Y-24793D01*
X45521Y-24807D01*
X45964Y-24721D02*
X45821Y-24721D01*
X45807Y-24864D01*
X45821Y-24850D01*
X45850Y-24836D01*
X45921Y-24836D01*
X45950Y-24850D01*
X45964Y-24864D01*
X45979Y-24893D01*
X45979Y-24964D01*
X45964Y-24993D01*
X45950Y-25007D01*
X45921Y-25021D01*
X45850Y-25021D01*
X45821Y-25007D01*
X45807Y-24993D01*
X45407Y-28721D02*
X45307Y-28579D01*
X45235Y-28721D02*
X45235Y-28421D01*
X45350Y-28421D01*
X45378Y-28436D01*
X45393Y-28450D01*
X45407Y-28479D01*
X45407Y-28521D01*
X45393Y-28550D01*
X45378Y-28564D01*
X45350Y-28579D01*
X45235Y-28579D01*
X45693Y-28721D02*
X45521Y-28721D01*
X45607Y-28721D02*
X45607Y-28421D01*
X45578Y-28464D01*
X45550Y-28493D01*
X45521Y-28507D01*
X45950Y-28521D02*
X45950Y-28721D01*
X45879Y-28407D02*
X45807Y-28621D01*
X45993Y-28621D01*
X39907Y-25021D02*
X39807Y-24879D01*
X39735Y-25021D02*
X39735Y-24721D01*
X39850Y-24721D01*
X39878Y-24736D01*
X39893Y-24750D01*
X39907Y-24779D01*
X39907Y-24821D01*
X39893Y-24850D01*
X39878Y-24864D01*
X39850Y-24879D01*
X39735Y-24879D01*
X40193Y-25021D02*
X40021Y-25021D01*
X40107Y-25021D02*
X40107Y-24721D01*
X40078Y-24764D01*
X40050Y-24793D01*
X40021Y-24807D01*
X40293Y-24721D02*
X40479Y-24721D01*
X40379Y-24836D01*
X40421Y-24836D01*
X40450Y-24850D01*
X40464Y-24864D01*
X40479Y-24893D01*
X40479Y-24964D01*
X40464Y-24993D01*
X40450Y-25007D01*
X40421Y-25021D01*
X40336Y-25021D01*
X40307Y-25007D01*
X40293Y-24993D01*
X39907Y-28721D02*
X39807Y-28579D01*
X39735Y-28721D02*
X39735Y-28421D01*
X39850Y-28421D01*
X39878Y-28436D01*
X39893Y-28450D01*
X39907Y-28479D01*
X39907Y-28521D01*
X39893Y-28550D01*
X39878Y-28564D01*
X39850Y-28579D01*
X39735Y-28579D01*
X40193Y-28721D02*
X40021Y-28721D01*
X40107Y-28721D02*
X40107Y-28421D01*
X40078Y-28464D01*
X40050Y-28493D01*
X40021Y-28507D01*
X40307Y-28450D02*
X40321Y-28436D01*
X40350Y-28421D01*
X40421Y-28421D01*
X40450Y-28436D01*
X40464Y-28450D01*
X40479Y-28479D01*
X40479Y-28507D01*
X40464Y-28550D01*
X40293Y-28721D01*
X40479Y-28721D01*
X34407Y-25021D02*
X34307Y-24879D01*
X34235Y-25021D02*
X34235Y-24721D01*
X34350Y-24721D01*
X34378Y-24736D01*
X34393Y-24750D01*
X34407Y-24779D01*
X34407Y-24821D01*
X34393Y-24850D01*
X34378Y-24864D01*
X34350Y-24879D01*
X34235Y-24879D01*
X34693Y-25021D02*
X34521Y-25021D01*
X34607Y-25021D02*
X34607Y-24721D01*
X34578Y-24764D01*
X34550Y-24793D01*
X34521Y-24807D01*
X34979Y-25021D02*
X34807Y-25021D01*
X34893Y-25021D02*
X34893Y-24721D01*
X34864Y-24764D01*
X34836Y-24793D01*
X34807Y-24807D01*
X34407Y-28721D02*
X34307Y-28579D01*
X34235Y-28721D02*
X34235Y-28421D01*
X34350Y-28421D01*
X34378Y-28436D01*
X34393Y-28450D01*
X34407Y-28479D01*
X34407Y-28521D01*
X34393Y-28550D01*
X34378Y-28564D01*
X34350Y-28579D01*
X34235Y-28579D01*
X34693Y-28721D02*
X34521Y-28721D01*
X34607Y-28721D02*
X34607Y-28421D01*
X34578Y-28464D01*
X34550Y-28493D01*
X34521Y-28507D01*
X34879Y-28421D02*
X34907Y-28421D01*
X34936Y-28436D01*
X34950Y-28450D01*
X34964Y-28479D01*
X34979Y-28536D01*
X34979Y-28607D01*
X34964Y-28664D01*
X34950Y-28693D01*
X34936Y-28707D01*
X34907Y-28721D01*
X34879Y-28721D01*
X34850Y-28707D01*
X34836Y-28693D01*
X34821Y-28664D01*
X34807Y-28607D01*
X34807Y-28536D01*
X34821Y-28479D01*
X34836Y-28450D01*
X34850Y-28436D01*
X34879Y-28421D01*
X29050Y-25021D02*
X28950Y-24879D01*
X28878Y-25021D02*
X28878Y-24721D01*
X28993Y-24721D01*
X29021Y-24736D01*
X29036Y-24750D01*
X29050Y-24779D01*
X29050Y-24821D01*
X29036Y-24850D01*
X29021Y-24864D01*
X28993Y-24879D01*
X28878Y-24879D01*
X29193Y-25021D02*
X29250Y-25021D01*
X29278Y-25007D01*
X29293Y-24993D01*
X29321Y-24950D01*
X29336Y-24893D01*
X29336Y-24779D01*
X29321Y-24750D01*
X29307Y-24736D01*
X29278Y-24721D01*
X29221Y-24721D01*
X29193Y-24736D01*
X29178Y-24750D01*
X29164Y-24779D01*
X29164Y-24850D01*
X29178Y-24879D01*
X29193Y-24893D01*
X29221Y-24907D01*
X29278Y-24907D01*
X29307Y-24893D01*
X29321Y-24879D01*
X29336Y-24850D01*
X29050Y-28721D02*
X28950Y-28579D01*
X28878Y-28721D02*
X28878Y-28421D01*
X28993Y-28421D01*
X29021Y-28436D01*
X29036Y-28450D01*
X29050Y-28479D01*
X29050Y-28521D01*
X29036Y-28550D01*
X29021Y-28564D01*
X28993Y-28579D01*
X28878Y-28579D01*
X29221Y-28550D02*
X29193Y-28536D01*
X29178Y-28521D01*
X29164Y-28493D01*
X29164Y-28479D01*
X29178Y-28450D01*
X29193Y-28436D01*
X29221Y-28421D01*
X29278Y-28421D01*
X29307Y-28436D01*
X29321Y-28450D01*
X29336Y-28479D01*
X29336Y-28493D01*
X29321Y-28521D01*
X29307Y-28536D01*
X29278Y-28550D01*
X29221Y-28550D01*
X29193Y-28564D01*
X29178Y-28579D01*
X29164Y-28607D01*
X29164Y-28664D01*
X29178Y-28693D01*
X29193Y-28707D01*
X29221Y-28721D01*
X29278Y-28721D01*
X29307Y-28707D01*
X29321Y-28693D01*
X29336Y-28664D01*
X29336Y-28607D01*
X29321Y-28579D01*
X29307Y-28564D01*
X29278Y-28550D01*
X35550Y-40521D02*
X35450Y-40379D01*
X35378Y-40521D02*
X35378Y-40221D01*
X35493Y-40221D01*
X35521Y-40236D01*
X35536Y-40250D01*
X35550Y-40279D01*
X35550Y-40321D01*
X35536Y-40350D01*
X35521Y-40364D01*
X35493Y-40379D01*
X35378Y-40379D01*
X35650Y-40221D02*
X35850Y-40221D01*
X35721Y-40521D01*
X35550Y-39121D02*
X35450Y-38979D01*
X35378Y-39121D02*
X35378Y-38821D01*
X35493Y-38821D01*
X35521Y-38836D01*
X35536Y-38850D01*
X35550Y-38879D01*
X35550Y-38921D01*
X35536Y-38950D01*
X35521Y-38964D01*
X35493Y-38979D01*
X35378Y-38979D01*
X35807Y-38821D02*
X35750Y-38821D01*
X35721Y-38836D01*
X35707Y-38850D01*
X35678Y-38893D01*
X35664Y-38950D01*
X35664Y-39064D01*
X35678Y-39093D01*
X35693Y-39107D01*
X35721Y-39121D01*
X35778Y-39121D01*
X35807Y-39107D01*
X35821Y-39093D01*
X35836Y-39064D01*
X35836Y-38993D01*
X35821Y-38964D01*
X35807Y-38950D01*
X35778Y-38936D01*
X35721Y-38936D01*
X35693Y-38950D01*
X35678Y-38964D01*
X35664Y-38993D01*
X35550Y-38021D02*
X35450Y-37879D01*
X35378Y-38021D02*
X35378Y-37721D01*
X35493Y-37721D01*
X35521Y-37736D01*
X35536Y-37750D01*
X35550Y-37779D01*
X35550Y-37821D01*
X35536Y-37850D01*
X35521Y-37864D01*
X35493Y-37879D01*
X35378Y-37879D01*
X35807Y-37821D02*
X35807Y-38021D01*
X35736Y-37707D02*
X35664Y-37921D01*
X35850Y-37921D01*
X37950Y-38021D02*
X37850Y-37879D01*
X37778Y-38021D02*
X37778Y-37721D01*
X37893Y-37721D01*
X37921Y-37736D01*
X37936Y-37750D01*
X37950Y-37779D01*
X37950Y-37821D01*
X37936Y-37850D01*
X37921Y-37864D01*
X37893Y-37879D01*
X37778Y-37879D01*
X38050Y-37721D02*
X38236Y-37721D01*
X38136Y-37836D01*
X38178Y-37836D01*
X38207Y-37850D01*
X38221Y-37864D01*
X38236Y-37893D01*
X38236Y-37964D01*
X38221Y-37993D01*
X38207Y-38007D01*
X38178Y-38021D01*
X38093Y-38021D01*
X38064Y-38007D01*
X38050Y-37993D01*
X82407Y-40121D02*
X82307Y-39979D01*
X82235Y-40121D02*
X82235Y-39821D01*
X82350Y-39821D01*
X82378Y-39836D01*
X82393Y-39850D01*
X82407Y-39879D01*
X82407Y-39921D01*
X82393Y-39950D01*
X82378Y-39964D01*
X82350Y-39979D01*
X82235Y-39979D01*
X82664Y-39821D02*
X82607Y-39821D01*
X82578Y-39836D01*
X82564Y-39850D01*
X82535Y-39893D01*
X82521Y-39950D01*
X82521Y-40064D01*
X82535Y-40093D01*
X82550Y-40107D01*
X82578Y-40121D01*
X82635Y-40121D01*
X82664Y-40107D01*
X82678Y-40093D01*
X82693Y-40064D01*
X82693Y-39993D01*
X82678Y-39964D01*
X82664Y-39950D01*
X82635Y-39936D01*
X82578Y-39936D01*
X82550Y-39950D01*
X82535Y-39964D01*
X82521Y-39993D01*
X82950Y-39921D02*
X82950Y-40121D01*
X82879Y-39807D02*
X82807Y-40021D01*
X82993Y-40021D01*
X82407Y-41121D02*
X82307Y-40979D01*
X82235Y-41121D02*
X82235Y-40821D01*
X82350Y-40821D01*
X82378Y-40836D01*
X82393Y-40850D01*
X82407Y-40879D01*
X82407Y-40921D01*
X82393Y-40950D01*
X82378Y-40964D01*
X82350Y-40979D01*
X82235Y-40979D01*
X82664Y-40821D02*
X82607Y-40821D01*
X82578Y-40836D01*
X82564Y-40850D01*
X82535Y-40893D01*
X82521Y-40950D01*
X82521Y-41064D01*
X82535Y-41093D01*
X82550Y-41107D01*
X82578Y-41121D01*
X82635Y-41121D01*
X82664Y-41107D01*
X82678Y-41093D01*
X82693Y-41064D01*
X82693Y-40993D01*
X82678Y-40964D01*
X82664Y-40950D01*
X82635Y-40936D01*
X82578Y-40936D01*
X82550Y-40950D01*
X82535Y-40964D01*
X82521Y-40993D01*
X82964Y-40821D02*
X82821Y-40821D01*
X82807Y-40964D01*
X82821Y-40950D01*
X82850Y-40936D01*
X82921Y-40936D01*
X82950Y-40950D01*
X82964Y-40964D01*
X82979Y-40993D01*
X82979Y-41064D01*
X82964Y-41093D01*
X82950Y-41107D01*
X82921Y-41121D01*
X82850Y-41121D01*
X82821Y-41107D01*
X82807Y-41093D01*
X82407Y-42121D02*
X82307Y-41979D01*
X82235Y-42121D02*
X82235Y-41821D01*
X82350Y-41821D01*
X82378Y-41836D01*
X82393Y-41850D01*
X82407Y-41879D01*
X82407Y-41921D01*
X82393Y-41950D01*
X82378Y-41964D01*
X82350Y-41979D01*
X82235Y-41979D01*
X82664Y-41821D02*
X82607Y-41821D01*
X82578Y-41836D01*
X82564Y-41850D01*
X82535Y-41893D01*
X82521Y-41950D01*
X82521Y-42064D01*
X82535Y-42093D01*
X82550Y-42107D01*
X82578Y-42121D01*
X82635Y-42121D01*
X82664Y-42107D01*
X82678Y-42093D01*
X82693Y-42064D01*
X82693Y-41993D01*
X82678Y-41964D01*
X82664Y-41950D01*
X82635Y-41936D01*
X82578Y-41936D01*
X82550Y-41950D01*
X82535Y-41964D01*
X82521Y-41993D01*
X82950Y-41821D02*
X82893Y-41821D01*
X82864Y-41836D01*
X82850Y-41850D01*
X82821Y-41893D01*
X82807Y-41950D01*
X82807Y-42064D01*
X82821Y-42093D01*
X82836Y-42107D01*
X82864Y-42121D01*
X82921Y-42121D01*
X82950Y-42107D01*
X82964Y-42093D01*
X82979Y-42064D01*
X82979Y-41993D01*
X82964Y-41964D01*
X82950Y-41950D01*
X82921Y-41936D01*
X82864Y-41936D01*
X82836Y-41950D01*
X82821Y-41964D01*
X82807Y-41993D01*
X82407Y-43121D02*
X82307Y-42979D01*
X82235Y-43121D02*
X82235Y-42821D01*
X82350Y-42821D01*
X82378Y-42836D01*
X82393Y-42850D01*
X82407Y-42879D01*
X82407Y-42921D01*
X82393Y-42950D01*
X82378Y-42964D01*
X82350Y-42979D01*
X82235Y-42979D01*
X82664Y-42821D02*
X82607Y-42821D01*
X82578Y-42836D01*
X82564Y-42850D01*
X82535Y-42893D01*
X82521Y-42950D01*
X82521Y-43064D01*
X82535Y-43093D01*
X82550Y-43107D01*
X82578Y-43121D01*
X82635Y-43121D01*
X82664Y-43107D01*
X82678Y-43093D01*
X82693Y-43064D01*
X82693Y-42993D01*
X82678Y-42964D01*
X82664Y-42950D01*
X82635Y-42936D01*
X82578Y-42936D01*
X82550Y-42950D01*
X82535Y-42964D01*
X82521Y-42993D01*
X82793Y-42821D02*
X82993Y-42821D01*
X82864Y-43121D01*
X82407Y-44121D02*
X82307Y-43979D01*
X82235Y-44121D02*
X82235Y-43821D01*
X82350Y-43821D01*
X82378Y-43836D01*
X82393Y-43850D01*
X82407Y-43879D01*
X82407Y-43921D01*
X82393Y-43950D01*
X82378Y-43964D01*
X82350Y-43979D01*
X82235Y-43979D01*
X82664Y-43821D02*
X82607Y-43821D01*
X82578Y-43836D01*
X82564Y-43850D01*
X82535Y-43893D01*
X82521Y-43950D01*
X82521Y-44064D01*
X82535Y-44093D01*
X82550Y-44107D01*
X82578Y-44121D01*
X82635Y-44121D01*
X82664Y-44107D01*
X82678Y-44093D01*
X82693Y-44064D01*
X82693Y-43993D01*
X82678Y-43964D01*
X82664Y-43950D01*
X82635Y-43936D01*
X82578Y-43936D01*
X82550Y-43950D01*
X82535Y-43964D01*
X82521Y-43993D01*
X82864Y-43950D02*
X82836Y-43936D01*
X82821Y-43921D01*
X82807Y-43893D01*
X82807Y-43879D01*
X82821Y-43850D01*
X82836Y-43836D01*
X82864Y-43821D01*
X82921Y-43821D01*
X82950Y-43836D01*
X82964Y-43850D01*
X82979Y-43879D01*
X82979Y-43893D01*
X82964Y-43921D01*
X82950Y-43936D01*
X82921Y-43950D01*
X82864Y-43950D01*
X82836Y-43964D01*
X82821Y-43979D01*
X82807Y-44007D01*
X82807Y-44064D01*
X82821Y-44093D01*
X82836Y-44107D01*
X82864Y-44121D01*
X82921Y-44121D01*
X82950Y-44107D01*
X82964Y-44093D01*
X82979Y-44064D01*
X82979Y-44007D01*
X82964Y-43979D01*
X82950Y-43964D01*
X82921Y-43950D01*
X30150Y-49093D02*
X30136Y-49107D01*
X30093Y-49121D01*
X30064Y-49121D01*
X30021Y-49107D01*
X29993Y-49079D01*
X29978Y-49050D01*
X29964Y-48993D01*
X29964Y-48950D01*
X29978Y-48893D01*
X29993Y-48864D01*
X30021Y-48836D01*
X30064Y-48821D01*
X30093Y-48821D01*
X30136Y-48836D01*
X30150Y-48850D01*
X30250Y-48821D02*
X30450Y-48821D01*
X30321Y-49121D01*
X82407Y-45121D02*
X82307Y-44979D01*
X82235Y-45121D02*
X82235Y-44821D01*
X82350Y-44821D01*
X82378Y-44836D01*
X82393Y-44850D01*
X82407Y-44879D01*
X82407Y-44921D01*
X82393Y-44950D01*
X82378Y-44964D01*
X82350Y-44979D01*
X82235Y-44979D01*
X82664Y-44821D02*
X82607Y-44821D01*
X82578Y-44836D01*
X82564Y-44850D01*
X82535Y-44893D01*
X82521Y-44950D01*
X82521Y-45064D01*
X82535Y-45093D01*
X82550Y-45107D01*
X82578Y-45121D01*
X82635Y-45121D01*
X82664Y-45107D01*
X82678Y-45093D01*
X82693Y-45064D01*
X82693Y-44993D01*
X82678Y-44964D01*
X82664Y-44950D01*
X82635Y-44936D01*
X82578Y-44936D01*
X82550Y-44950D01*
X82535Y-44964D01*
X82521Y-44993D01*
X82836Y-45121D02*
X82893Y-45121D01*
X82921Y-45107D01*
X82936Y-45093D01*
X82964Y-45050D01*
X82979Y-44993D01*
X82979Y-44879D01*
X82964Y-44850D01*
X82950Y-44836D01*
X82921Y-44821D01*
X82864Y-44821D01*
X82836Y-44836D01*
X82821Y-44850D01*
X82807Y-44879D01*
X82807Y-44950D01*
X82821Y-44979D01*
X82836Y-44993D01*
X82864Y-45007D01*
X82921Y-45007D01*
X82950Y-44993D01*
X82964Y-44979D01*
X82979Y-44950D01*
X82407Y-46121D02*
X82307Y-45979D01*
X82235Y-46121D02*
X82235Y-45821D01*
X82350Y-45821D01*
X82378Y-45836D01*
X82393Y-45850D01*
X82407Y-45879D01*
X82407Y-45921D01*
X82393Y-45950D01*
X82378Y-45964D01*
X82350Y-45979D01*
X82235Y-45979D01*
X82507Y-45821D02*
X82707Y-45821D01*
X82578Y-46121D01*
X82879Y-45821D02*
X82907Y-45821D01*
X82936Y-45836D01*
X82950Y-45850D01*
X82964Y-45879D01*
X82979Y-45936D01*
X82979Y-46007D01*
X82964Y-46064D01*
X82950Y-46093D01*
X82936Y-46107D01*
X82907Y-46121D01*
X82879Y-46121D01*
X82850Y-46107D01*
X82836Y-46093D01*
X82821Y-46064D01*
X82807Y-46007D01*
X82807Y-45936D01*
X82821Y-45879D01*
X82836Y-45850D01*
X82850Y-45836D01*
X82879Y-45821D01*
X82407Y-47121D02*
X82307Y-46979D01*
X82235Y-47121D02*
X82235Y-46821D01*
X82350Y-46821D01*
X82378Y-46836D01*
X82393Y-46850D01*
X82407Y-46879D01*
X82407Y-46921D01*
X82393Y-46950D01*
X82378Y-46964D01*
X82350Y-46979D01*
X82235Y-46979D01*
X82507Y-46821D02*
X82707Y-46821D01*
X82578Y-47121D01*
X82979Y-47121D02*
X82807Y-47121D01*
X82893Y-47121D02*
X82893Y-46821D01*
X82864Y-46864D01*
X82836Y-46893D01*
X82807Y-46907D01*
X82407Y-48121D02*
X82307Y-47979D01*
X82235Y-48121D02*
X82235Y-47821D01*
X82350Y-47821D01*
X82378Y-47836D01*
X82393Y-47850D01*
X82407Y-47879D01*
X82407Y-47921D01*
X82393Y-47950D01*
X82378Y-47964D01*
X82350Y-47979D01*
X82235Y-47979D01*
X82507Y-47821D02*
X82707Y-47821D01*
X82578Y-48121D01*
X82807Y-47850D02*
X82821Y-47836D01*
X82850Y-47821D01*
X82921Y-47821D01*
X82950Y-47836D01*
X82964Y-47850D01*
X82979Y-47879D01*
X82979Y-47907D01*
X82964Y-47950D01*
X82793Y-48121D01*
X82979Y-48121D01*
X82407Y-49121D02*
X82307Y-48979D01*
X82235Y-49121D02*
X82235Y-48821D01*
X82350Y-48821D01*
X82378Y-48836D01*
X82393Y-48850D01*
X82407Y-48879D01*
X82407Y-48921D01*
X82393Y-48950D01*
X82378Y-48964D01*
X82350Y-48979D01*
X82235Y-48979D01*
X82507Y-48821D02*
X82707Y-48821D01*
X82578Y-49121D01*
X82793Y-48821D02*
X82979Y-48821D01*
X82879Y-48936D01*
X82921Y-48936D01*
X82950Y-48950D01*
X82964Y-48964D01*
X82979Y-48993D01*
X82979Y-49064D01*
X82964Y-49093D01*
X82950Y-49107D01*
X82921Y-49121D01*
X82836Y-49121D01*
X82807Y-49107D01*
X82793Y-49093D01*
X82407Y-50121D02*
X82307Y-49979D01*
X82235Y-50121D02*
X82235Y-49821D01*
X82350Y-49821D01*
X82378Y-49836D01*
X82393Y-49850D01*
X82407Y-49879D01*
X82407Y-49921D01*
X82393Y-49950D01*
X82378Y-49964D01*
X82350Y-49979D01*
X82235Y-49979D01*
X82507Y-49821D02*
X82707Y-49821D01*
X82578Y-50121D01*
X82950Y-49921D02*
X82950Y-50121D01*
X82879Y-49807D02*
X82807Y-50021D01*
X82993Y-50021D01*
X82407Y-51121D02*
X82307Y-50979D01*
X82235Y-51121D02*
X82235Y-50821D01*
X82350Y-50821D01*
X82378Y-50836D01*
X82393Y-50850D01*
X82407Y-50879D01*
X82407Y-50921D01*
X82393Y-50950D01*
X82378Y-50964D01*
X82350Y-50979D01*
X82235Y-50979D01*
X82507Y-50821D02*
X82707Y-50821D01*
X82578Y-51121D01*
X82964Y-50821D02*
X82821Y-50821D01*
X82807Y-50964D01*
X82821Y-50950D01*
X82850Y-50936D01*
X82921Y-50936D01*
X82950Y-50950D01*
X82964Y-50964D01*
X82979Y-50993D01*
X82979Y-51064D01*
X82964Y-51093D01*
X82950Y-51107D01*
X82921Y-51121D01*
X82850Y-51121D01*
X82821Y-51107D01*
X82807Y-51093D01*
X82407Y-52121D02*
X82307Y-51979D01*
X82235Y-52121D02*
X82235Y-51821D01*
X82350Y-51821D01*
X82378Y-51836D01*
X82393Y-51850D01*
X82407Y-51879D01*
X82407Y-51921D01*
X82393Y-51950D01*
X82378Y-51964D01*
X82350Y-51979D01*
X82235Y-51979D01*
X82507Y-51821D02*
X82707Y-51821D01*
X82578Y-52121D01*
X82950Y-51821D02*
X82893Y-51821D01*
X82864Y-51836D01*
X82850Y-51850D01*
X82821Y-51893D01*
X82807Y-51950D01*
X82807Y-52064D01*
X82821Y-52093D01*
X82836Y-52107D01*
X82864Y-52121D01*
X82921Y-52121D01*
X82950Y-52107D01*
X82964Y-52093D01*
X82979Y-52064D01*
X82979Y-51993D01*
X82964Y-51964D01*
X82950Y-51950D01*
X82921Y-51936D01*
X82864Y-51936D01*
X82836Y-51950D01*
X82821Y-51964D01*
X82807Y-51993D01*
X82407Y-53121D02*
X82307Y-52979D01*
X82235Y-53121D02*
X82235Y-52821D01*
X82350Y-52821D01*
X82378Y-52836D01*
X82393Y-52850D01*
X82407Y-52879D01*
X82407Y-52921D01*
X82393Y-52950D01*
X82378Y-52964D01*
X82350Y-52979D01*
X82235Y-52979D01*
X82507Y-52821D02*
X82707Y-52821D01*
X82578Y-53121D01*
X82793Y-52821D02*
X82993Y-52821D01*
X82864Y-53121D01*
X82407Y-54121D02*
X82307Y-53979D01*
X82235Y-54121D02*
X82235Y-53821D01*
X82350Y-53821D01*
X82378Y-53836D01*
X82393Y-53850D01*
X82407Y-53879D01*
X82407Y-53921D01*
X82393Y-53950D01*
X82378Y-53964D01*
X82350Y-53979D01*
X82235Y-53979D01*
X82507Y-53821D02*
X82707Y-53821D01*
X82578Y-54121D01*
X82864Y-53950D02*
X82836Y-53936D01*
X82821Y-53921D01*
X82807Y-53893D01*
X82807Y-53879D01*
X82821Y-53850D01*
X82836Y-53836D01*
X82864Y-53821D01*
X82921Y-53821D01*
X82950Y-53836D01*
X82964Y-53850D01*
X82979Y-53879D01*
X82979Y-53893D01*
X82964Y-53921D01*
X82950Y-53936D01*
X82921Y-53950D01*
X82864Y-53950D01*
X82836Y-53964D01*
X82821Y-53979D01*
X82807Y-54007D01*
X82807Y-54064D01*
X82821Y-54093D01*
X82836Y-54107D01*
X82864Y-54121D01*
X82921Y-54121D01*
X82950Y-54107D01*
X82964Y-54093D01*
X82979Y-54064D01*
X82979Y-54007D01*
X82964Y-53979D01*
X82950Y-53964D01*
X82921Y-53950D01*
X82407Y-55121D02*
X82307Y-54979D01*
X82235Y-55121D02*
X82235Y-54821D01*
X82350Y-54821D01*
X82378Y-54836D01*
X82393Y-54850D01*
X82407Y-54879D01*
X82407Y-54921D01*
X82393Y-54950D01*
X82378Y-54964D01*
X82350Y-54979D01*
X82235Y-54979D01*
X82507Y-54821D02*
X82707Y-54821D01*
X82578Y-55121D01*
X82836Y-55121D02*
X82893Y-55121D01*
X82921Y-55107D01*
X82936Y-55093D01*
X82964Y-55050D01*
X82979Y-54993D01*
X82979Y-54879D01*
X82964Y-54850D01*
X82950Y-54836D01*
X82921Y-54821D01*
X82864Y-54821D01*
X82836Y-54836D01*
X82821Y-54850D01*
X82807Y-54879D01*
X82807Y-54950D01*
X82821Y-54979D01*
X82836Y-54993D01*
X82864Y-55007D01*
X82921Y-55007D01*
X82950Y-54993D01*
X82964Y-54979D01*
X82979Y-54950D01*
X26807Y-54921D02*
X26707Y-54779D01*
X26635Y-54921D02*
X26635Y-54621D01*
X26750Y-54621D01*
X26778Y-54636D01*
X26793Y-54650D01*
X26807Y-54679D01*
X26807Y-54721D01*
X26793Y-54750D01*
X26778Y-54764D01*
X26750Y-54779D01*
X26635Y-54779D01*
X26978Y-54750D02*
X26950Y-54736D01*
X26935Y-54721D01*
X26921Y-54693D01*
X26921Y-54679D01*
X26935Y-54650D01*
X26950Y-54636D01*
X26978Y-54621D01*
X27035Y-54621D01*
X27064Y-54636D01*
X27078Y-54650D01*
X27093Y-54679D01*
X27093Y-54693D01*
X27078Y-54721D01*
X27064Y-54736D01*
X27035Y-54750D01*
X26978Y-54750D01*
X26950Y-54764D01*
X26935Y-54779D01*
X26921Y-54807D01*
X26921Y-54864D01*
X26935Y-54893D01*
X26950Y-54907D01*
X26978Y-54921D01*
X27035Y-54921D01*
X27064Y-54907D01*
X27078Y-54893D01*
X27093Y-54864D01*
X27093Y-54807D01*
X27078Y-54779D01*
X27064Y-54764D01*
X27035Y-54750D01*
X27279Y-54621D02*
X27307Y-54621D01*
X27336Y-54636D01*
X27350Y-54650D01*
X27364Y-54679D01*
X27379Y-54736D01*
X27379Y-54807D01*
X27364Y-54864D01*
X27350Y-54893D01*
X27336Y-54907D01*
X27307Y-54921D01*
X27279Y-54921D01*
X27250Y-54907D01*
X27236Y-54893D01*
X27221Y-54864D01*
X27207Y-54807D01*
X27207Y-54736D01*
X27221Y-54679D01*
X27236Y-54650D01*
X27250Y-54636D01*
X27279Y-54621D01*
X25107Y-56721D02*
X25007Y-56579D01*
X24935Y-56721D02*
X24935Y-56421D01*
X25050Y-56421D01*
X25078Y-56436D01*
X25093Y-56450D01*
X25107Y-56479D01*
X25107Y-56521D01*
X25093Y-56550D01*
X25078Y-56564D01*
X25050Y-56579D01*
X24935Y-56579D01*
X25278Y-56550D02*
X25250Y-56536D01*
X25235Y-56521D01*
X25221Y-56493D01*
X25221Y-56479D01*
X25235Y-56450D01*
X25250Y-56436D01*
X25278Y-56421D01*
X25335Y-56421D01*
X25364Y-56436D01*
X25378Y-56450D01*
X25393Y-56479D01*
X25393Y-56493D01*
X25378Y-56521D01*
X25364Y-56536D01*
X25335Y-56550D01*
X25278Y-56550D01*
X25250Y-56564D01*
X25235Y-56579D01*
X25221Y-56607D01*
X25221Y-56664D01*
X25235Y-56693D01*
X25250Y-56707D01*
X25278Y-56721D01*
X25335Y-56721D01*
X25364Y-56707D01*
X25378Y-56693D01*
X25393Y-56664D01*
X25393Y-56607D01*
X25378Y-56579D01*
X25364Y-56564D01*
X25335Y-56550D01*
X25679Y-56721D02*
X25507Y-56721D01*
X25593Y-56721D02*
X25593Y-56421D01*
X25564Y-56464D01*
X25536Y-56493D01*
X25507Y-56507D01*
X26807Y-58621D02*
X26707Y-58479D01*
X26635Y-58621D02*
X26635Y-58321D01*
X26750Y-58321D01*
X26778Y-58336D01*
X26793Y-58350D01*
X26807Y-58379D01*
X26807Y-58421D01*
X26793Y-58450D01*
X26778Y-58464D01*
X26750Y-58479D01*
X26635Y-58479D01*
X26978Y-58450D02*
X26950Y-58436D01*
X26935Y-58421D01*
X26921Y-58393D01*
X26921Y-58379D01*
X26935Y-58350D01*
X26950Y-58336D01*
X26978Y-58321D01*
X27035Y-58321D01*
X27064Y-58336D01*
X27078Y-58350D01*
X27093Y-58379D01*
X27093Y-58393D01*
X27078Y-58421D01*
X27064Y-58436D01*
X27035Y-58450D01*
X26978Y-58450D01*
X26950Y-58464D01*
X26935Y-58479D01*
X26921Y-58507D01*
X26921Y-58564D01*
X26935Y-58593D01*
X26950Y-58607D01*
X26978Y-58621D01*
X27035Y-58621D01*
X27064Y-58607D01*
X27078Y-58593D01*
X27093Y-58564D01*
X27093Y-58507D01*
X27078Y-58479D01*
X27064Y-58464D01*
X27035Y-58450D01*
X27207Y-58350D02*
X27221Y-58336D01*
X27250Y-58321D01*
X27321Y-58321D01*
X27350Y-58336D01*
X27364Y-58350D01*
X27379Y-58379D01*
X27379Y-58407D01*
X27364Y-58450D01*
X27193Y-58621D01*
X27379Y-58621D01*
X35707Y-56721D02*
X35607Y-56579D01*
X35535Y-56721D02*
X35535Y-56421D01*
X35650Y-56421D01*
X35678Y-56436D01*
X35693Y-56450D01*
X35707Y-56479D01*
X35707Y-56521D01*
X35693Y-56550D01*
X35678Y-56564D01*
X35650Y-56579D01*
X35535Y-56579D01*
X35878Y-56550D02*
X35850Y-56536D01*
X35835Y-56521D01*
X35821Y-56493D01*
X35821Y-56479D01*
X35835Y-56450D01*
X35850Y-56436D01*
X35878Y-56421D01*
X35935Y-56421D01*
X35964Y-56436D01*
X35978Y-56450D01*
X35993Y-56479D01*
X35993Y-56493D01*
X35978Y-56521D01*
X35964Y-56536D01*
X35935Y-56550D01*
X35878Y-56550D01*
X35850Y-56564D01*
X35835Y-56579D01*
X35821Y-56607D01*
X35821Y-56664D01*
X35835Y-56693D01*
X35850Y-56707D01*
X35878Y-56721D01*
X35935Y-56721D01*
X35964Y-56707D01*
X35978Y-56693D01*
X35993Y-56664D01*
X35993Y-56607D01*
X35978Y-56579D01*
X35964Y-56564D01*
X35935Y-56550D01*
X36093Y-56421D02*
X36279Y-56421D01*
X36179Y-56536D01*
X36221Y-56536D01*
X36250Y-56550D01*
X36264Y-56564D01*
X36279Y-56593D01*
X36279Y-56664D01*
X36264Y-56693D01*
X36250Y-56707D01*
X36221Y-56721D01*
X36136Y-56721D01*
X36107Y-56707D01*
X36093Y-56693D01*
X35707Y-55721D02*
X35607Y-55579D01*
X35535Y-55721D02*
X35535Y-55421D01*
X35650Y-55421D01*
X35678Y-55436D01*
X35693Y-55450D01*
X35707Y-55479D01*
X35707Y-55521D01*
X35693Y-55550D01*
X35678Y-55564D01*
X35650Y-55579D01*
X35535Y-55579D01*
X35878Y-55550D02*
X35850Y-55536D01*
X35835Y-55521D01*
X35821Y-55493D01*
X35821Y-55479D01*
X35835Y-55450D01*
X35850Y-55436D01*
X35878Y-55421D01*
X35935Y-55421D01*
X35964Y-55436D01*
X35978Y-55450D01*
X35993Y-55479D01*
X35993Y-55493D01*
X35978Y-55521D01*
X35964Y-55536D01*
X35935Y-55550D01*
X35878Y-55550D01*
X35850Y-55564D01*
X35835Y-55579D01*
X35821Y-55607D01*
X35821Y-55664D01*
X35835Y-55693D01*
X35850Y-55707D01*
X35878Y-55721D01*
X35935Y-55721D01*
X35964Y-55707D01*
X35978Y-55693D01*
X35993Y-55664D01*
X35993Y-55607D01*
X35978Y-55579D01*
X35964Y-55564D01*
X35935Y-55550D01*
X36250Y-55521D02*
X36250Y-55721D01*
X36179Y-55407D02*
X36107Y-55621D01*
X36293Y-55621D01*
X35707Y-54721D02*
X35607Y-54579D01*
X35535Y-54721D02*
X35535Y-54421D01*
X35650Y-54421D01*
X35678Y-54436D01*
X35693Y-54450D01*
X35707Y-54479D01*
X35707Y-54521D01*
X35693Y-54550D01*
X35678Y-54564D01*
X35650Y-54579D01*
X35535Y-54579D01*
X35878Y-54550D02*
X35850Y-54536D01*
X35835Y-54521D01*
X35821Y-54493D01*
X35821Y-54479D01*
X35835Y-54450D01*
X35850Y-54436D01*
X35878Y-54421D01*
X35935Y-54421D01*
X35964Y-54436D01*
X35978Y-54450D01*
X35993Y-54479D01*
X35993Y-54493D01*
X35978Y-54521D01*
X35964Y-54536D01*
X35935Y-54550D01*
X35878Y-54550D01*
X35850Y-54564D01*
X35835Y-54579D01*
X35821Y-54607D01*
X35821Y-54664D01*
X35835Y-54693D01*
X35850Y-54707D01*
X35878Y-54721D01*
X35935Y-54721D01*
X35964Y-54707D01*
X35978Y-54693D01*
X35993Y-54664D01*
X35993Y-54607D01*
X35978Y-54579D01*
X35964Y-54564D01*
X35935Y-54550D01*
X36264Y-54421D02*
X36121Y-54421D01*
X36107Y-54564D01*
X36121Y-54550D01*
X36150Y-54536D01*
X36221Y-54536D01*
X36250Y-54550D01*
X36264Y-54564D01*
X36279Y-54593D01*
X36279Y-54664D01*
X36264Y-54693D01*
X36250Y-54707D01*
X36221Y-54721D01*
X36150Y-54721D01*
X36121Y-54707D01*
X36107Y-54693D01*
G54D21*
X36721Y-39879D02*
X36964Y-39879D01*
X36993Y-39864D01*
X37007Y-39850D01*
X37021Y-39821D01*
X37021Y-39764D01*
X37007Y-39736D01*
X36993Y-39721D01*
X36964Y-39707D01*
X36721Y-39707D01*
X36750Y-39579D02*
X36736Y-39565D01*
X36721Y-39536D01*
X36721Y-39465D01*
X36736Y-39436D01*
X36750Y-39422D01*
X36779Y-39407D01*
X36807Y-39407D01*
X36850Y-39422D01*
X37021Y-39593D01*
X37021Y-39407D01*
X38079Y-40163D02*
X38079Y-40257D01*
X37882Y-40257D01*
X37882Y-40126D02*
X37882Y-40014D01*
X38079Y-40070D02*
X37882Y-40070D01*
X38060Y-39836D02*
X38070Y-39845D01*
X38079Y-39873D01*
X38079Y-39892D01*
X38070Y-39920D01*
X38051Y-39939D01*
X38032Y-39948D01*
X37995Y-39957D01*
X37967Y-39957D01*
X37929Y-39948D01*
X37910Y-39939D01*
X37892Y-39920D01*
X37882Y-39892D01*
X37882Y-39873D01*
X37892Y-39845D01*
X37901Y-39836D01*
X37882Y-39667D02*
X37882Y-39704D01*
X37892Y-39723D01*
X37901Y-39732D01*
X37929Y-39751D01*
X37967Y-39760D01*
X38042Y-39760D01*
X38060Y-39751D01*
X38070Y-39742D01*
X38079Y-39723D01*
X38079Y-39685D01*
X38070Y-39667D01*
X38060Y-39657D01*
X38042Y-39648D01*
X37995Y-39648D01*
X37976Y-39657D01*
X37967Y-39667D01*
X37957Y-39685D01*
X37957Y-39723D01*
X37967Y-39742D01*
X37976Y-39751D01*
X37995Y-39760D01*
X38079Y-39554D02*
X38079Y-39516D01*
X38070Y-39497D01*
X38060Y-39488D01*
X38032Y-39469D01*
X37995Y-39460D01*
X37920Y-39460D01*
X37901Y-39469D01*
X37892Y-39479D01*
X37882Y-39497D01*
X37882Y-39535D01*
X37892Y-39554D01*
X37901Y-39563D01*
X37920Y-39572D01*
X37967Y-39572D01*
X37985Y-39563D01*
X37995Y-39554D01*
X38004Y-39535D01*
X38004Y-39497D01*
X37995Y-39479D01*
X37985Y-39469D01*
X37967Y-39460D01*
X38079Y-39366D02*
X38079Y-39328D01*
X38070Y-39309D01*
X38060Y-39300D01*
X38032Y-39281D01*
X37995Y-39272D01*
X37920Y-39272D01*
X37901Y-39281D01*
X37892Y-39291D01*
X37882Y-39309D01*
X37882Y-39347D01*
X37892Y-39366D01*
X37901Y-39375D01*
X37920Y-39384D01*
X37967Y-39384D01*
X37985Y-39375D01*
X37995Y-39366D01*
X38004Y-39347D01*
X38004Y-39309D01*
X37995Y-39291D01*
X37985Y-39281D01*
X37967Y-39272D01*
X37882Y-39150D02*
X37882Y-39131D01*
X37892Y-39112D01*
X37901Y-39103D01*
X37920Y-39093D01*
X37957Y-39084D01*
X38004Y-39084D01*
X38042Y-39093D01*
X38060Y-39103D01*
X38070Y-39112D01*
X38079Y-39131D01*
X38079Y-39150D01*
X38070Y-39168D01*
X38060Y-39178D01*
X38042Y-39187D01*
X38004Y-39196D01*
X37957Y-39196D01*
X37920Y-39187D01*
X37901Y-39178D01*
X37892Y-39168D01*
X37882Y-39150D01*
G54D13*
X29967Y-41843D02*
X30024Y-41862D01*
X30120Y-41862D01*
X30158Y-41843D01*
X30177Y-41824D01*
X30196Y-41786D01*
X30196Y-41748D01*
X30177Y-41710D01*
X30158Y-41690D01*
X30120Y-41671D01*
X30043Y-41652D01*
X30005Y-41633D01*
X29986Y-41614D01*
X29967Y-41576D01*
X29967Y-41538D01*
X29986Y-41500D01*
X30005Y-41481D01*
X30043Y-41462D01*
X30139Y-41462D01*
X30196Y-41481D01*
X30329Y-41462D02*
X30424Y-41862D01*
X30501Y-41576D01*
X30577Y-41862D01*
X30672Y-41462D01*
X30805Y-41500D02*
X30824Y-41481D01*
X30862Y-41462D01*
X30958Y-41462D01*
X30996Y-41481D01*
X31015Y-41500D01*
X31034Y-41538D01*
X31034Y-41576D01*
X31015Y-41633D01*
X30786Y-41862D01*
X31034Y-41862D01*
X30762Y-44219D02*
X30571Y-44353D01*
X30762Y-44448D02*
X30362Y-44448D01*
X30362Y-44295D01*
X30381Y-44257D01*
X30400Y-44238D01*
X30438Y-44219D01*
X30495Y-44219D01*
X30533Y-44238D01*
X30552Y-44257D01*
X30571Y-44295D01*
X30571Y-44448D01*
X30743Y-44067D02*
X30762Y-44010D01*
X30762Y-43914D01*
X30743Y-43876D01*
X30724Y-43857D01*
X30686Y-43838D01*
X30648Y-43838D01*
X30610Y-43857D01*
X30590Y-43876D01*
X30571Y-43914D01*
X30552Y-43991D01*
X30533Y-44029D01*
X30514Y-44048D01*
X30476Y-44067D01*
X30438Y-44067D01*
X30400Y-44048D01*
X30381Y-44029D01*
X30362Y-43991D01*
X30362Y-43895D01*
X30381Y-43838D01*
X30362Y-43724D02*
X30362Y-43495D01*
X30762Y-43610D02*
X30362Y-43610D01*
G54D19*
X29502Y-26120D02*
X29455Y-26096D01*
X29407Y-26049D01*
X29336Y-25977D01*
X29288Y-25953D01*
X29240Y-25953D01*
X29264Y-26072D02*
X29217Y-26049D01*
X29169Y-26001D01*
X29145Y-25906D01*
X29145Y-25739D01*
X29169Y-25644D01*
X29217Y-25596D01*
X29264Y-25572D01*
X29360Y-25572D01*
X29407Y-25596D01*
X29455Y-25644D01*
X29479Y-25739D01*
X29479Y-25906D01*
X29455Y-26001D01*
X29407Y-26049D01*
X29360Y-26072D01*
X29264Y-26072D01*
X29955Y-26072D02*
X29669Y-26072D01*
X29812Y-26072D02*
X29812Y-25572D01*
X29764Y-25644D01*
X29717Y-25691D01*
X29669Y-25715D01*
X23286Y-28879D02*
X23358Y-28902D01*
X23477Y-28902D01*
X23524Y-28879D01*
X23548Y-28855D01*
X23572Y-28807D01*
X23572Y-28760D01*
X23548Y-28712D01*
X23524Y-28688D01*
X23477Y-28664D01*
X23381Y-28640D01*
X23334Y-28617D01*
X23310Y-28593D01*
X23286Y-28545D01*
X23286Y-28498D01*
X23310Y-28450D01*
X23334Y-28426D01*
X23381Y-28402D01*
X23501Y-28402D01*
X23572Y-28426D01*
X23715Y-28402D02*
X24000Y-28402D01*
X23857Y-28902D02*
X23857Y-28402D01*
X24167Y-28902D02*
X24167Y-28402D01*
X24358Y-28402D01*
X24405Y-28426D01*
X24429Y-28450D01*
X24453Y-28498D01*
X24453Y-28569D01*
X24429Y-28617D01*
X24405Y-28640D01*
X24358Y-28664D01*
X24167Y-28664D01*
X24929Y-28902D02*
X24643Y-28902D01*
X24786Y-28902D02*
X24786Y-28402D01*
X24738Y-28474D01*
X24691Y-28521D01*
X24643Y-28545D01*
X25357Y-28402D02*
X25262Y-28402D01*
X25214Y-28426D01*
X25191Y-28450D01*
X25143Y-28521D01*
X25119Y-28617D01*
X25119Y-28807D01*
X25143Y-28855D01*
X25167Y-28879D01*
X25214Y-28902D01*
X25310Y-28902D01*
X25357Y-28879D01*
X25381Y-28855D01*
X25405Y-28807D01*
X25405Y-28688D01*
X25381Y-28640D01*
X25357Y-28617D01*
X25310Y-28593D01*
X25214Y-28593D01*
X25167Y-28617D01*
X25143Y-28640D01*
X25119Y-28688D01*
X25619Y-28902D02*
X25619Y-28402D01*
X25905Y-28902D01*
X25905Y-28402D01*
X26310Y-28640D02*
X26143Y-28640D01*
X26143Y-28902D02*
X26143Y-28402D01*
X26381Y-28402D01*
X26667Y-28402D02*
X26715Y-28402D01*
X26763Y-28426D01*
X26786Y-28450D01*
X26810Y-28498D01*
X26834Y-28593D01*
X26834Y-28712D01*
X26810Y-28807D01*
X26786Y-28855D01*
X26763Y-28879D01*
X26715Y-28902D01*
X26667Y-28902D01*
X26620Y-28879D01*
X26596Y-28855D01*
X26572Y-28807D01*
X26548Y-28712D01*
X26548Y-28593D01*
X26572Y-28498D01*
X26596Y-28450D01*
X26620Y-28426D01*
X26667Y-28402D01*
X27262Y-28402D02*
X27167Y-28402D01*
X27119Y-28426D01*
X27096Y-28450D01*
X27048Y-28521D01*
X27024Y-28617D01*
X27024Y-28807D01*
X27048Y-28855D01*
X27072Y-28879D01*
X27119Y-28902D01*
X27215Y-28902D01*
X27262Y-28879D01*
X27286Y-28855D01*
X27310Y-28807D01*
X27310Y-28688D01*
X27286Y-28640D01*
X27262Y-28617D01*
X27215Y-28593D01*
X27119Y-28593D01*
X27072Y-28617D01*
X27048Y-28640D01*
X27024Y-28688D01*
X27762Y-28902D02*
X27524Y-28902D01*
X27524Y-28402D01*
X29502Y-22420D02*
X29455Y-22396D01*
X29407Y-22349D01*
X29336Y-22277D01*
X29288Y-22253D01*
X29240Y-22253D01*
X29264Y-22372D02*
X29217Y-22349D01*
X29169Y-22301D01*
X29145Y-22206D01*
X29145Y-22039D01*
X29169Y-21944D01*
X29217Y-21896D01*
X29264Y-21872D01*
X29360Y-21872D01*
X29407Y-21896D01*
X29455Y-21944D01*
X29479Y-22039D01*
X29479Y-22206D01*
X29455Y-22301D01*
X29407Y-22349D01*
X29360Y-22372D01*
X29264Y-22372D01*
X29669Y-21920D02*
X29693Y-21896D01*
X29741Y-21872D01*
X29860Y-21872D01*
X29907Y-21896D01*
X29931Y-21920D01*
X29955Y-21968D01*
X29955Y-22015D01*
X29931Y-22087D01*
X29645Y-22372D01*
X29955Y-22372D01*
X28241Y-21729D02*
X28313Y-21752D01*
X28432Y-21752D01*
X28479Y-21729D01*
X28503Y-21705D01*
X28527Y-21657D01*
X28527Y-21610D01*
X28503Y-21562D01*
X28479Y-21538D01*
X28432Y-21514D01*
X28336Y-21490D01*
X28289Y-21467D01*
X28265Y-21443D01*
X28241Y-21395D01*
X28241Y-21348D01*
X28265Y-21300D01*
X28289Y-21276D01*
X28336Y-21252D01*
X28456Y-21252D01*
X28527Y-21276D01*
X28670Y-21252D02*
X28955Y-21252D01*
X28812Y-21752D02*
X28812Y-21252D01*
X29122Y-21752D02*
X29122Y-21252D01*
X29313Y-21252D01*
X29360Y-21276D01*
X29384Y-21300D01*
X29408Y-21348D01*
X29408Y-21419D01*
X29384Y-21467D01*
X29360Y-21490D01*
X29313Y-21514D01*
X29122Y-21514D01*
X29884Y-21752D02*
X29598Y-21752D01*
X29741Y-21752D02*
X29741Y-21252D01*
X29693Y-21324D01*
X29646Y-21371D01*
X29598Y-21395D01*
X30312Y-21252D02*
X30217Y-21252D01*
X30169Y-21276D01*
X30146Y-21300D01*
X30098Y-21371D01*
X30074Y-21467D01*
X30074Y-21657D01*
X30098Y-21705D01*
X30122Y-21729D01*
X30169Y-21752D01*
X30265Y-21752D01*
X30312Y-21729D01*
X30336Y-21705D01*
X30360Y-21657D01*
X30360Y-21538D01*
X30336Y-21490D01*
X30312Y-21467D01*
X30265Y-21443D01*
X30169Y-21443D01*
X30122Y-21467D01*
X30098Y-21490D01*
X30074Y-21538D01*
X35002Y-26120D02*
X34955Y-26096D01*
X34907Y-26049D01*
X34836Y-25977D01*
X34788Y-25953D01*
X34740Y-25953D01*
X34764Y-26072D02*
X34717Y-26049D01*
X34669Y-26001D01*
X34645Y-25906D01*
X34645Y-25739D01*
X34669Y-25644D01*
X34717Y-25596D01*
X34764Y-25572D01*
X34860Y-25572D01*
X34907Y-25596D01*
X34955Y-25644D01*
X34979Y-25739D01*
X34979Y-25906D01*
X34955Y-26001D01*
X34907Y-26049D01*
X34860Y-26072D01*
X34764Y-26072D01*
X35145Y-25572D02*
X35455Y-25572D01*
X35288Y-25763D01*
X35360Y-25763D01*
X35407Y-25787D01*
X35431Y-25810D01*
X35455Y-25858D01*
X35455Y-25977D01*
X35431Y-26025D01*
X35407Y-26049D01*
X35360Y-26072D01*
X35217Y-26072D01*
X35169Y-26049D01*
X35145Y-26025D01*
X31841Y-26079D02*
X31913Y-26102D01*
X32032Y-26102D01*
X32079Y-26079D01*
X32103Y-26055D01*
X32127Y-26007D01*
X32127Y-25960D01*
X32103Y-25912D01*
X32079Y-25888D01*
X32032Y-25864D01*
X31936Y-25840D01*
X31889Y-25817D01*
X31865Y-25793D01*
X31841Y-25745D01*
X31841Y-25698D01*
X31865Y-25650D01*
X31889Y-25626D01*
X31936Y-25602D01*
X32056Y-25602D01*
X32127Y-25626D01*
X32270Y-25602D02*
X32555Y-25602D01*
X32412Y-26102D02*
X32412Y-25602D01*
X32722Y-26102D02*
X32722Y-25602D01*
X32913Y-25602D01*
X32960Y-25626D01*
X32984Y-25650D01*
X33008Y-25698D01*
X33008Y-25769D01*
X32984Y-25817D01*
X32960Y-25840D01*
X32913Y-25864D01*
X32722Y-25864D01*
X33484Y-26102D02*
X33198Y-26102D01*
X33341Y-26102D02*
X33341Y-25602D01*
X33293Y-25674D01*
X33246Y-25721D01*
X33198Y-25745D01*
X33912Y-25602D02*
X33817Y-25602D01*
X33769Y-25626D01*
X33746Y-25650D01*
X33698Y-25721D01*
X33674Y-25817D01*
X33674Y-26007D01*
X33698Y-26055D01*
X33722Y-26079D01*
X33769Y-26102D01*
X33865Y-26102D01*
X33912Y-26079D01*
X33936Y-26055D01*
X33960Y-26007D01*
X33960Y-25888D01*
X33936Y-25840D01*
X33912Y-25817D01*
X33865Y-25793D01*
X33769Y-25793D01*
X33722Y-25817D01*
X33698Y-25840D01*
X33674Y-25888D01*
X35002Y-22420D02*
X34955Y-22396D01*
X34907Y-22349D01*
X34836Y-22277D01*
X34788Y-22253D01*
X34740Y-22253D01*
X34764Y-22372D02*
X34717Y-22349D01*
X34669Y-22301D01*
X34645Y-22206D01*
X34645Y-22039D01*
X34669Y-21944D01*
X34717Y-21896D01*
X34764Y-21872D01*
X34860Y-21872D01*
X34907Y-21896D01*
X34955Y-21944D01*
X34979Y-22039D01*
X34979Y-22206D01*
X34955Y-22301D01*
X34907Y-22349D01*
X34860Y-22372D01*
X34764Y-22372D01*
X35407Y-22039D02*
X35407Y-22372D01*
X35288Y-21849D02*
X35169Y-22206D01*
X35479Y-22206D01*
X33741Y-21729D02*
X33813Y-21752D01*
X33932Y-21752D01*
X33979Y-21729D01*
X34003Y-21705D01*
X34027Y-21657D01*
X34027Y-21610D01*
X34003Y-21562D01*
X33979Y-21538D01*
X33932Y-21514D01*
X33836Y-21490D01*
X33789Y-21467D01*
X33765Y-21443D01*
X33741Y-21395D01*
X33741Y-21348D01*
X33765Y-21300D01*
X33789Y-21276D01*
X33836Y-21252D01*
X33956Y-21252D01*
X34027Y-21276D01*
X34170Y-21252D02*
X34455Y-21252D01*
X34312Y-21752D02*
X34312Y-21252D01*
X34622Y-21752D02*
X34622Y-21252D01*
X34813Y-21252D01*
X34860Y-21276D01*
X34884Y-21300D01*
X34908Y-21348D01*
X34908Y-21419D01*
X34884Y-21467D01*
X34860Y-21490D01*
X34813Y-21514D01*
X34622Y-21514D01*
X35384Y-21752D02*
X35098Y-21752D01*
X35241Y-21752D02*
X35241Y-21252D01*
X35193Y-21324D01*
X35146Y-21371D01*
X35098Y-21395D01*
X35812Y-21252D02*
X35717Y-21252D01*
X35669Y-21276D01*
X35646Y-21300D01*
X35598Y-21371D01*
X35574Y-21467D01*
X35574Y-21657D01*
X35598Y-21705D01*
X35622Y-21729D01*
X35669Y-21752D01*
X35765Y-21752D01*
X35812Y-21729D01*
X35836Y-21705D01*
X35860Y-21657D01*
X35860Y-21538D01*
X35836Y-21490D01*
X35812Y-21467D01*
X35765Y-21443D01*
X35669Y-21443D01*
X35622Y-21467D01*
X35598Y-21490D01*
X35574Y-21538D01*
X40502Y-26120D02*
X40455Y-26096D01*
X40407Y-26049D01*
X40336Y-25977D01*
X40288Y-25953D01*
X40240Y-25953D01*
X40264Y-26072D02*
X40217Y-26049D01*
X40169Y-26001D01*
X40145Y-25906D01*
X40145Y-25739D01*
X40169Y-25644D01*
X40217Y-25596D01*
X40264Y-25572D01*
X40360Y-25572D01*
X40407Y-25596D01*
X40455Y-25644D01*
X40479Y-25739D01*
X40479Y-25906D01*
X40455Y-26001D01*
X40407Y-26049D01*
X40360Y-26072D01*
X40264Y-26072D01*
X40931Y-25572D02*
X40693Y-25572D01*
X40669Y-25810D01*
X40693Y-25787D01*
X40741Y-25763D01*
X40860Y-25763D01*
X40907Y-25787D01*
X40931Y-25810D01*
X40955Y-25858D01*
X40955Y-25977D01*
X40931Y-26025D01*
X40907Y-26049D01*
X40860Y-26072D01*
X40741Y-26072D01*
X40693Y-26049D01*
X40669Y-26025D01*
X37341Y-26079D02*
X37413Y-26102D01*
X37532Y-26102D01*
X37579Y-26079D01*
X37603Y-26055D01*
X37627Y-26007D01*
X37627Y-25960D01*
X37603Y-25912D01*
X37579Y-25888D01*
X37532Y-25864D01*
X37436Y-25840D01*
X37389Y-25817D01*
X37365Y-25793D01*
X37341Y-25745D01*
X37341Y-25698D01*
X37365Y-25650D01*
X37389Y-25626D01*
X37436Y-25602D01*
X37556Y-25602D01*
X37627Y-25626D01*
X37770Y-25602D02*
X38055Y-25602D01*
X37912Y-26102D02*
X37912Y-25602D01*
X38222Y-26102D02*
X38222Y-25602D01*
X38413Y-25602D01*
X38460Y-25626D01*
X38484Y-25650D01*
X38508Y-25698D01*
X38508Y-25769D01*
X38484Y-25817D01*
X38460Y-25840D01*
X38413Y-25864D01*
X38222Y-25864D01*
X38984Y-26102D02*
X38698Y-26102D01*
X38841Y-26102D02*
X38841Y-25602D01*
X38793Y-25674D01*
X38746Y-25721D01*
X38698Y-25745D01*
X39412Y-25602D02*
X39317Y-25602D01*
X39269Y-25626D01*
X39246Y-25650D01*
X39198Y-25721D01*
X39174Y-25817D01*
X39174Y-26007D01*
X39198Y-26055D01*
X39222Y-26079D01*
X39269Y-26102D01*
X39365Y-26102D01*
X39412Y-26079D01*
X39436Y-26055D01*
X39460Y-26007D01*
X39460Y-25888D01*
X39436Y-25840D01*
X39412Y-25817D01*
X39365Y-25793D01*
X39269Y-25793D01*
X39222Y-25817D01*
X39198Y-25840D01*
X39174Y-25888D01*
X40502Y-22420D02*
X40455Y-22396D01*
X40407Y-22349D01*
X40336Y-22277D01*
X40288Y-22253D01*
X40240Y-22253D01*
X40264Y-22372D02*
X40217Y-22349D01*
X40169Y-22301D01*
X40145Y-22206D01*
X40145Y-22039D01*
X40169Y-21944D01*
X40217Y-21896D01*
X40264Y-21872D01*
X40360Y-21872D01*
X40407Y-21896D01*
X40455Y-21944D01*
X40479Y-22039D01*
X40479Y-22206D01*
X40455Y-22301D01*
X40407Y-22349D01*
X40360Y-22372D01*
X40264Y-22372D01*
X40907Y-21872D02*
X40812Y-21872D01*
X40764Y-21896D01*
X40741Y-21920D01*
X40693Y-21991D01*
X40669Y-22087D01*
X40669Y-22277D01*
X40693Y-22325D01*
X40717Y-22349D01*
X40764Y-22372D01*
X40860Y-22372D01*
X40907Y-22349D01*
X40931Y-22325D01*
X40955Y-22277D01*
X40955Y-22158D01*
X40931Y-22110D01*
X40907Y-22087D01*
X40860Y-22063D01*
X40764Y-22063D01*
X40717Y-22087D01*
X40693Y-22110D01*
X40669Y-22158D01*
X39241Y-21729D02*
X39313Y-21752D01*
X39432Y-21752D01*
X39479Y-21729D01*
X39503Y-21705D01*
X39527Y-21657D01*
X39527Y-21610D01*
X39503Y-21562D01*
X39479Y-21538D01*
X39432Y-21514D01*
X39336Y-21490D01*
X39289Y-21467D01*
X39265Y-21443D01*
X39241Y-21395D01*
X39241Y-21348D01*
X39265Y-21300D01*
X39289Y-21276D01*
X39336Y-21252D01*
X39456Y-21252D01*
X39527Y-21276D01*
X39670Y-21252D02*
X39955Y-21252D01*
X39812Y-21752D02*
X39812Y-21252D01*
X40122Y-21752D02*
X40122Y-21252D01*
X40313Y-21252D01*
X40360Y-21276D01*
X40384Y-21300D01*
X40408Y-21348D01*
X40408Y-21419D01*
X40384Y-21467D01*
X40360Y-21490D01*
X40313Y-21514D01*
X40122Y-21514D01*
X40884Y-21752D02*
X40598Y-21752D01*
X40741Y-21752D02*
X40741Y-21252D01*
X40693Y-21324D01*
X40646Y-21371D01*
X40598Y-21395D01*
X41312Y-21252D02*
X41217Y-21252D01*
X41169Y-21276D01*
X41146Y-21300D01*
X41098Y-21371D01*
X41074Y-21467D01*
X41074Y-21657D01*
X41098Y-21705D01*
X41122Y-21729D01*
X41169Y-21752D01*
X41265Y-21752D01*
X41312Y-21729D01*
X41336Y-21705D01*
X41360Y-21657D01*
X41360Y-21538D01*
X41336Y-21490D01*
X41312Y-21467D01*
X41265Y-21443D01*
X41169Y-21443D01*
X41122Y-21467D01*
X41098Y-21490D01*
X41074Y-21538D01*
X46002Y-26120D02*
X45955Y-26096D01*
X45907Y-26049D01*
X45836Y-25977D01*
X45788Y-25953D01*
X45740Y-25953D01*
X45764Y-26072D02*
X45717Y-26049D01*
X45669Y-26001D01*
X45645Y-25906D01*
X45645Y-25739D01*
X45669Y-25644D01*
X45717Y-25596D01*
X45764Y-25572D01*
X45860Y-25572D01*
X45907Y-25596D01*
X45955Y-25644D01*
X45979Y-25739D01*
X45979Y-25906D01*
X45955Y-26001D01*
X45907Y-26049D01*
X45860Y-26072D01*
X45764Y-26072D01*
X46145Y-25572D02*
X46479Y-25572D01*
X46264Y-26072D01*
X42841Y-26079D02*
X42913Y-26102D01*
X43032Y-26102D01*
X43079Y-26079D01*
X43103Y-26055D01*
X43127Y-26007D01*
X43127Y-25960D01*
X43103Y-25912D01*
X43079Y-25888D01*
X43032Y-25864D01*
X42936Y-25840D01*
X42889Y-25817D01*
X42865Y-25793D01*
X42841Y-25745D01*
X42841Y-25698D01*
X42865Y-25650D01*
X42889Y-25626D01*
X42936Y-25602D01*
X43056Y-25602D01*
X43127Y-25626D01*
X43270Y-25602D02*
X43555Y-25602D01*
X43412Y-26102D02*
X43412Y-25602D01*
X43722Y-26102D02*
X43722Y-25602D01*
X43913Y-25602D01*
X43960Y-25626D01*
X43984Y-25650D01*
X44008Y-25698D01*
X44008Y-25769D01*
X43984Y-25817D01*
X43960Y-25840D01*
X43913Y-25864D01*
X43722Y-25864D01*
X44484Y-26102D02*
X44198Y-26102D01*
X44341Y-26102D02*
X44341Y-25602D01*
X44293Y-25674D01*
X44246Y-25721D01*
X44198Y-25745D01*
X44912Y-25602D02*
X44817Y-25602D01*
X44769Y-25626D01*
X44746Y-25650D01*
X44698Y-25721D01*
X44674Y-25817D01*
X44674Y-26007D01*
X44698Y-26055D01*
X44722Y-26079D01*
X44769Y-26102D01*
X44865Y-26102D01*
X44912Y-26079D01*
X44936Y-26055D01*
X44960Y-26007D01*
X44960Y-25888D01*
X44936Y-25840D01*
X44912Y-25817D01*
X44865Y-25793D01*
X44769Y-25793D01*
X44722Y-25817D01*
X44698Y-25840D01*
X44674Y-25888D01*
X46002Y-22420D02*
X45955Y-22396D01*
X45907Y-22349D01*
X45836Y-22277D01*
X45788Y-22253D01*
X45740Y-22253D01*
X45764Y-22372D02*
X45717Y-22349D01*
X45669Y-22301D01*
X45645Y-22206D01*
X45645Y-22039D01*
X45669Y-21944D01*
X45717Y-21896D01*
X45764Y-21872D01*
X45860Y-21872D01*
X45907Y-21896D01*
X45955Y-21944D01*
X45979Y-22039D01*
X45979Y-22206D01*
X45955Y-22301D01*
X45907Y-22349D01*
X45860Y-22372D01*
X45764Y-22372D01*
X46264Y-22087D02*
X46217Y-22063D01*
X46193Y-22039D01*
X46169Y-21991D01*
X46169Y-21968D01*
X46193Y-21920D01*
X46217Y-21896D01*
X46264Y-21872D01*
X46360Y-21872D01*
X46407Y-21896D01*
X46431Y-21920D01*
X46455Y-21968D01*
X46455Y-21991D01*
X46431Y-22039D01*
X46407Y-22063D01*
X46360Y-22087D01*
X46264Y-22087D01*
X46217Y-22110D01*
X46193Y-22134D01*
X46169Y-22182D01*
X46169Y-22277D01*
X46193Y-22325D01*
X46217Y-22349D01*
X46264Y-22372D01*
X46360Y-22372D01*
X46407Y-22349D01*
X46431Y-22325D01*
X46455Y-22277D01*
X46455Y-22182D01*
X46431Y-22134D01*
X46407Y-22110D01*
X46360Y-22087D01*
X44741Y-21729D02*
X44813Y-21752D01*
X44932Y-21752D01*
X44979Y-21729D01*
X45003Y-21705D01*
X45027Y-21657D01*
X45027Y-21610D01*
X45003Y-21562D01*
X44979Y-21538D01*
X44932Y-21514D01*
X44836Y-21490D01*
X44789Y-21467D01*
X44765Y-21443D01*
X44741Y-21395D01*
X44741Y-21348D01*
X44765Y-21300D01*
X44789Y-21276D01*
X44836Y-21252D01*
X44956Y-21252D01*
X45027Y-21276D01*
X45170Y-21252D02*
X45455Y-21252D01*
X45312Y-21752D02*
X45312Y-21252D01*
X45622Y-21752D02*
X45622Y-21252D01*
X45813Y-21252D01*
X45860Y-21276D01*
X45884Y-21300D01*
X45908Y-21348D01*
X45908Y-21419D01*
X45884Y-21467D01*
X45860Y-21490D01*
X45813Y-21514D01*
X45622Y-21514D01*
X46384Y-21752D02*
X46098Y-21752D01*
X46241Y-21752D02*
X46241Y-21252D01*
X46193Y-21324D01*
X46146Y-21371D01*
X46098Y-21395D01*
X46812Y-21252D02*
X46717Y-21252D01*
X46669Y-21276D01*
X46646Y-21300D01*
X46598Y-21371D01*
X46574Y-21467D01*
X46574Y-21657D01*
X46598Y-21705D01*
X46622Y-21729D01*
X46669Y-21752D01*
X46765Y-21752D01*
X46812Y-21729D01*
X46836Y-21705D01*
X46860Y-21657D01*
X46860Y-21538D01*
X46836Y-21490D01*
X46812Y-21467D01*
X46765Y-21443D01*
X46669Y-21443D01*
X46622Y-21467D01*
X46598Y-21490D01*
X46574Y-21538D01*
G54D14*
X28300Y-33943D02*
X28300Y-34371D01*
X28272Y-34457D01*
X28215Y-34514D01*
X28129Y-34543D01*
X28072Y-34543D01*
X28900Y-34543D02*
X28557Y-34543D01*
X28729Y-34543D02*
X28729Y-33943D01*
X28672Y-34029D01*
X28614Y-34086D01*
X28557Y-34114D01*
X25943Y-38157D02*
X26429Y-38157D01*
X26486Y-38129D01*
X26514Y-38100D01*
X26543Y-38043D01*
X26543Y-37929D01*
X26514Y-37871D01*
X26486Y-37843D01*
X26429Y-37814D01*
X25943Y-37814D01*
X26514Y-37557D02*
X26543Y-37471D01*
X26543Y-37328D01*
X26514Y-37271D01*
X26486Y-37242D01*
X26429Y-37214D01*
X26371Y-37214D01*
X26314Y-37242D01*
X26286Y-37271D01*
X26257Y-37328D01*
X26229Y-37442D01*
X26200Y-37500D01*
X26171Y-37528D01*
X26114Y-37557D01*
X26057Y-37557D01*
X26000Y-37528D01*
X25971Y-37500D01*
X25943Y-37442D01*
X25943Y-37300D01*
X25971Y-37214D01*
X26229Y-36757D02*
X26257Y-36671D01*
X26286Y-36643D01*
X26343Y-36614D01*
X26429Y-36614D01*
X26486Y-36643D01*
X26514Y-36671D01*
X26543Y-36729D01*
X26543Y-36957D01*
X25943Y-36957D01*
X25943Y-36757D01*
X25971Y-36700D01*
X26000Y-36671D01*
X26057Y-36643D01*
X26114Y-36643D01*
X26171Y-36671D01*
X26200Y-36700D01*
X26229Y-36757D01*
X26229Y-36957D01*
M02*
