G04 (created by PCBNEW-RS274X (2011-01-22 BZR 2754)-stable) date 24.05.2012 00:29:59*
G01*
G70*
G90*
%MOIN*%
G04 Gerber Fmt 3.4, Leading zero omitted, Abs format*
%FSLAX34Y34*%
G04 APERTURE LIST*
%ADD10C,0.006000*%
%ADD11C,0.015000*%
%ADD12C,0.005000*%
G04 APERTURE END LIST*
G54D10*
G54D11*
X22183Y-64331D02*
X96593Y-64331D01*
X96593Y-14724D02*
X22223Y-14724D01*
X96593Y-64331D02*
X96593Y-14724D01*
X22183Y-14724D02*
X22183Y-64331D01*
X22183Y-14724D02*
X22223Y-14724D01*
X22183Y-64331D02*
X22183Y-14724D01*
G54D12*
X28350Y-45550D02*
X28349Y-45559D01*
X28346Y-45569D01*
X28341Y-45577D01*
X28335Y-45585D01*
X28327Y-45591D01*
X28319Y-45596D01*
X28310Y-45598D01*
X28300Y-45599D01*
X28291Y-45599D01*
X28282Y-45596D01*
X28273Y-45591D01*
X28266Y-45585D01*
X28259Y-45578D01*
X28255Y-45569D01*
X28252Y-45560D01*
X28251Y-45550D01*
X28251Y-45541D01*
X28254Y-45532D01*
X28258Y-45523D01*
X28265Y-45516D01*
X28272Y-45509D01*
X28280Y-45505D01*
X28290Y-45502D01*
X28299Y-45501D01*
X28308Y-45501D01*
X28318Y-45504D01*
X28326Y-45508D01*
X28334Y-45514D01*
X28340Y-45522D01*
X28345Y-45530D01*
X28348Y-45539D01*
X28349Y-45549D01*
X28350Y-45550D01*
X28300Y-46000D02*
X28300Y-45600D01*
X28300Y-45600D02*
X27700Y-45600D01*
X27700Y-45600D02*
X27700Y-46000D01*
X27700Y-46400D02*
X27700Y-46800D01*
X27700Y-46800D02*
X28300Y-46800D01*
X28300Y-46800D02*
X28300Y-46400D01*
X24200Y-54300D02*
X24199Y-54309D01*
X24196Y-54319D01*
X24191Y-54327D01*
X24185Y-54335D01*
X24177Y-54341D01*
X24169Y-54346D01*
X24160Y-54348D01*
X24150Y-54349D01*
X24141Y-54349D01*
X24132Y-54346D01*
X24123Y-54341D01*
X24116Y-54335D01*
X24109Y-54328D01*
X24105Y-54319D01*
X24102Y-54310D01*
X24101Y-54300D01*
X24101Y-54291D01*
X24104Y-54282D01*
X24108Y-54273D01*
X24115Y-54266D01*
X24122Y-54259D01*
X24130Y-54255D01*
X24140Y-54252D01*
X24149Y-54251D01*
X24158Y-54251D01*
X24168Y-54254D01*
X24176Y-54258D01*
X24184Y-54264D01*
X24190Y-54272D01*
X24195Y-54280D01*
X24198Y-54289D01*
X24199Y-54299D01*
X24200Y-54300D01*
X24600Y-54300D02*
X24200Y-54300D01*
X24200Y-54300D02*
X24200Y-54900D01*
X24200Y-54900D02*
X24600Y-54900D01*
X25000Y-54900D02*
X25400Y-54900D01*
X25400Y-54900D02*
X25400Y-54300D01*
X25400Y-54300D02*
X25000Y-54300D01*
X24200Y-56900D02*
X24199Y-56909D01*
X24196Y-56919D01*
X24191Y-56927D01*
X24185Y-56935D01*
X24177Y-56941D01*
X24169Y-56946D01*
X24160Y-56948D01*
X24150Y-56949D01*
X24141Y-56949D01*
X24132Y-56946D01*
X24123Y-56941D01*
X24116Y-56935D01*
X24109Y-56928D01*
X24105Y-56919D01*
X24102Y-56910D01*
X24101Y-56900D01*
X24101Y-56891D01*
X24104Y-56882D01*
X24108Y-56873D01*
X24115Y-56866D01*
X24122Y-56859D01*
X24130Y-56855D01*
X24140Y-56852D01*
X24149Y-56851D01*
X24158Y-56851D01*
X24168Y-56854D01*
X24176Y-56858D01*
X24184Y-56864D01*
X24190Y-56872D01*
X24195Y-56880D01*
X24198Y-56889D01*
X24199Y-56899D01*
X24200Y-56900D01*
X24600Y-56900D02*
X24200Y-56900D01*
X24200Y-56900D02*
X24200Y-57500D01*
X24200Y-57500D02*
X24600Y-57500D01*
X25000Y-57500D02*
X25400Y-57500D01*
X25400Y-57500D02*
X25400Y-56900D01*
X25400Y-56900D02*
X25000Y-56900D01*
X24200Y-59500D02*
X24199Y-59509D01*
X24196Y-59519D01*
X24191Y-59527D01*
X24185Y-59535D01*
X24177Y-59541D01*
X24169Y-59546D01*
X24160Y-59548D01*
X24150Y-59549D01*
X24141Y-59549D01*
X24132Y-59546D01*
X24123Y-59541D01*
X24116Y-59535D01*
X24109Y-59528D01*
X24105Y-59519D01*
X24102Y-59510D01*
X24101Y-59500D01*
X24101Y-59491D01*
X24104Y-59482D01*
X24108Y-59473D01*
X24115Y-59466D01*
X24122Y-59459D01*
X24130Y-59455D01*
X24140Y-59452D01*
X24149Y-59451D01*
X24158Y-59451D01*
X24168Y-59454D01*
X24176Y-59458D01*
X24184Y-59464D01*
X24190Y-59472D01*
X24195Y-59480D01*
X24198Y-59489D01*
X24199Y-59499D01*
X24200Y-59500D01*
X24600Y-59500D02*
X24200Y-59500D01*
X24200Y-59500D02*
X24200Y-60100D01*
X24200Y-60100D02*
X24600Y-60100D01*
X25000Y-60100D02*
X25400Y-60100D01*
X25400Y-60100D02*
X25400Y-59500D01*
X25400Y-59500D02*
X25000Y-59500D01*
X85900Y-54550D02*
X85900Y-55450D01*
X85900Y-55450D02*
X85250Y-55450D01*
X84550Y-54550D02*
X83900Y-54550D01*
X83900Y-54550D02*
X83900Y-55450D01*
X83900Y-55450D02*
X84550Y-55450D01*
X85250Y-54550D02*
X85900Y-54550D01*
X85900Y-53550D02*
X85900Y-54450D01*
X85900Y-54450D02*
X85250Y-54450D01*
X84550Y-53550D02*
X83900Y-53550D01*
X83900Y-53550D02*
X83900Y-54450D01*
X83900Y-54450D02*
X84550Y-54450D01*
X85250Y-53550D02*
X85900Y-53550D01*
X85900Y-52550D02*
X85900Y-53450D01*
X85900Y-53450D02*
X85250Y-53450D01*
X84550Y-52550D02*
X83900Y-52550D01*
X83900Y-52550D02*
X83900Y-53450D01*
X83900Y-53450D02*
X84550Y-53450D01*
X85250Y-52550D02*
X85900Y-52550D01*
X85900Y-51550D02*
X85900Y-52450D01*
X85900Y-52450D02*
X85250Y-52450D01*
X84550Y-51550D02*
X83900Y-51550D01*
X83900Y-51550D02*
X83900Y-52450D01*
X83900Y-52450D02*
X84550Y-52450D01*
X85250Y-51550D02*
X85900Y-51550D01*
X85900Y-50550D02*
X85900Y-51450D01*
X85900Y-51450D02*
X85250Y-51450D01*
X84550Y-50550D02*
X83900Y-50550D01*
X83900Y-50550D02*
X83900Y-51450D01*
X83900Y-51450D02*
X84550Y-51450D01*
X85250Y-50550D02*
X85900Y-50550D01*
X85900Y-49550D02*
X85900Y-50450D01*
X85900Y-50450D02*
X85250Y-50450D01*
X84550Y-49550D02*
X83900Y-49550D01*
X83900Y-49550D02*
X83900Y-50450D01*
X83900Y-50450D02*
X84550Y-50450D01*
X85250Y-49550D02*
X85900Y-49550D01*
X85900Y-48550D02*
X85900Y-49450D01*
X85900Y-49450D02*
X85250Y-49450D01*
X84550Y-48550D02*
X83900Y-48550D01*
X83900Y-48550D02*
X83900Y-49450D01*
X83900Y-49450D02*
X84550Y-49450D01*
X85250Y-48550D02*
X85900Y-48550D01*
X85900Y-47550D02*
X85900Y-48450D01*
X85900Y-48450D02*
X85250Y-48450D01*
X84550Y-47550D02*
X83900Y-47550D01*
X83900Y-47550D02*
X83900Y-48450D01*
X83900Y-48450D02*
X84550Y-48450D01*
X85250Y-47550D02*
X85900Y-47550D01*
X85900Y-46550D02*
X85900Y-47450D01*
X85900Y-47450D02*
X85250Y-47450D01*
X84550Y-46550D02*
X83900Y-46550D01*
X83900Y-46550D02*
X83900Y-47450D01*
X83900Y-47450D02*
X84550Y-47450D01*
X85250Y-46550D02*
X85900Y-46550D01*
X85900Y-45550D02*
X85900Y-46450D01*
X85900Y-46450D02*
X85250Y-46450D01*
X84550Y-45550D02*
X83900Y-45550D01*
X83900Y-45550D02*
X83900Y-46450D01*
X83900Y-46450D02*
X84550Y-46450D01*
X85250Y-45550D02*
X85900Y-45550D01*
X85900Y-44550D02*
X85900Y-45450D01*
X85900Y-45450D02*
X85250Y-45450D01*
X84550Y-44550D02*
X83900Y-44550D01*
X83900Y-44550D02*
X83900Y-45450D01*
X83900Y-45450D02*
X84550Y-45450D01*
X85250Y-44550D02*
X85900Y-44550D01*
X85900Y-43550D02*
X85900Y-44450D01*
X85900Y-44450D02*
X85250Y-44450D01*
X84550Y-43550D02*
X83900Y-43550D01*
X83900Y-43550D02*
X83900Y-44450D01*
X83900Y-44450D02*
X84550Y-44450D01*
X85250Y-43550D02*
X85900Y-43550D01*
X85900Y-42550D02*
X85900Y-43450D01*
X85900Y-43450D02*
X85250Y-43450D01*
X84550Y-42550D02*
X83900Y-42550D01*
X83900Y-42550D02*
X83900Y-43450D01*
X83900Y-43450D02*
X84550Y-43450D01*
X85250Y-42550D02*
X85900Y-42550D01*
X85900Y-40550D02*
X85900Y-41450D01*
X85900Y-41450D02*
X85250Y-41450D01*
X84550Y-40550D02*
X83900Y-40550D01*
X83900Y-40550D02*
X83900Y-41450D01*
X83900Y-41450D02*
X84550Y-41450D01*
X85250Y-40550D02*
X85900Y-40550D01*
X85900Y-38550D02*
X85900Y-39450D01*
X85900Y-39450D02*
X85250Y-39450D01*
X84550Y-38550D02*
X83900Y-38550D01*
X83900Y-38550D02*
X83900Y-39450D01*
X83900Y-39450D02*
X84550Y-39450D01*
X85250Y-38550D02*
X85900Y-38550D01*
X85900Y-37550D02*
X85900Y-38450D01*
X85900Y-38450D02*
X85250Y-38450D01*
X84550Y-37550D02*
X83900Y-37550D01*
X83900Y-37550D02*
X83900Y-38450D01*
X83900Y-38450D02*
X84550Y-38450D01*
X85250Y-37550D02*
X85900Y-37550D01*
X85900Y-36550D02*
X85900Y-37450D01*
X85900Y-37450D02*
X85250Y-37450D01*
X84550Y-36550D02*
X83900Y-36550D01*
X83900Y-36550D02*
X83900Y-37450D01*
X83900Y-37450D02*
X84550Y-37450D01*
X85250Y-36550D02*
X85900Y-36550D01*
X85900Y-35550D02*
X85900Y-36450D01*
X85900Y-36450D02*
X85250Y-36450D01*
X84550Y-35550D02*
X83900Y-35550D01*
X83900Y-35550D02*
X83900Y-36450D01*
X83900Y-36450D02*
X84550Y-36450D01*
X85250Y-35550D02*
X85900Y-35550D01*
X85900Y-34550D02*
X85900Y-35450D01*
X85900Y-35450D02*
X85250Y-35450D01*
X84550Y-34550D02*
X83900Y-34550D01*
X83900Y-34550D02*
X83900Y-35450D01*
X83900Y-35450D02*
X84550Y-35450D01*
X85250Y-34550D02*
X85900Y-34550D01*
X85900Y-41550D02*
X85900Y-42450D01*
X85900Y-42450D02*
X85250Y-42450D01*
X84550Y-41550D02*
X83900Y-41550D01*
X83900Y-41550D02*
X83900Y-42450D01*
X83900Y-42450D02*
X84550Y-42450D01*
X85250Y-41550D02*
X85900Y-41550D01*
X85900Y-32550D02*
X85900Y-33450D01*
X85900Y-33450D02*
X85250Y-33450D01*
X84550Y-32550D02*
X83900Y-32550D01*
X83900Y-32550D02*
X83900Y-33450D01*
X83900Y-33450D02*
X84550Y-33450D01*
X85250Y-32550D02*
X85900Y-32550D01*
X85900Y-31550D02*
X85900Y-32450D01*
X85900Y-32450D02*
X85250Y-32450D01*
X84550Y-31550D02*
X83900Y-31550D01*
X83900Y-31550D02*
X83900Y-32450D01*
X83900Y-32450D02*
X84550Y-32450D01*
X85250Y-31550D02*
X85900Y-31550D01*
X85900Y-30550D02*
X85900Y-31450D01*
X85900Y-31450D02*
X85250Y-31450D01*
X84550Y-30550D02*
X83900Y-30550D01*
X83900Y-30550D02*
X83900Y-31450D01*
X83900Y-31450D02*
X84550Y-31450D01*
X85250Y-30550D02*
X85900Y-30550D01*
X85900Y-29550D02*
X85900Y-30450D01*
X85900Y-30450D02*
X85250Y-30450D01*
X84550Y-29550D02*
X83900Y-29550D01*
X83900Y-29550D02*
X83900Y-30450D01*
X83900Y-30450D02*
X84550Y-30450D01*
X85250Y-29550D02*
X85900Y-29550D01*
X85900Y-28550D02*
X85900Y-29450D01*
X85900Y-29450D02*
X85250Y-29450D01*
X84550Y-28550D02*
X83900Y-28550D01*
X83900Y-28550D02*
X83900Y-29450D01*
X83900Y-29450D02*
X84550Y-29450D01*
X85250Y-28550D02*
X85900Y-28550D01*
X85900Y-27550D02*
X85900Y-28450D01*
X85900Y-28450D02*
X85250Y-28450D01*
X84550Y-27550D02*
X83900Y-27550D01*
X83900Y-27550D02*
X83900Y-28450D01*
X83900Y-28450D02*
X84550Y-28450D01*
X85250Y-27550D02*
X85900Y-27550D01*
X85900Y-26550D02*
X85900Y-27450D01*
X85900Y-27450D02*
X85250Y-27450D01*
X84550Y-26550D02*
X83900Y-26550D01*
X83900Y-26550D02*
X83900Y-27450D01*
X83900Y-27450D02*
X84550Y-27450D01*
X85250Y-26550D02*
X85900Y-26550D01*
X85900Y-25550D02*
X85900Y-26450D01*
X85900Y-26450D02*
X85250Y-26450D01*
X84550Y-25550D02*
X83900Y-25550D01*
X83900Y-25550D02*
X83900Y-26450D01*
X83900Y-26450D02*
X84550Y-26450D01*
X85250Y-25550D02*
X85900Y-25550D01*
X85900Y-24550D02*
X85900Y-25450D01*
X85900Y-25450D02*
X85250Y-25450D01*
X84550Y-24550D02*
X83900Y-24550D01*
X83900Y-24550D02*
X83900Y-25450D01*
X83900Y-25450D02*
X84550Y-25450D01*
X85250Y-24550D02*
X85900Y-24550D01*
X85900Y-23550D02*
X85900Y-24450D01*
X85900Y-24450D02*
X85250Y-24450D01*
X84550Y-23550D02*
X83900Y-23550D01*
X83900Y-23550D02*
X83900Y-24450D01*
X83900Y-24450D02*
X84550Y-24450D01*
X85250Y-23550D02*
X85900Y-23550D01*
X23750Y-48200D02*
X22850Y-48200D01*
X22850Y-48200D02*
X22850Y-47550D01*
X23750Y-46850D02*
X23750Y-46200D01*
X23750Y-46200D02*
X22850Y-46200D01*
X22850Y-46200D02*
X22850Y-46850D01*
X23750Y-47550D02*
X23750Y-48200D01*
X27550Y-43200D02*
X28450Y-43200D01*
X28450Y-43200D02*
X28450Y-43850D01*
X27550Y-44550D02*
X27550Y-45200D01*
X27550Y-45200D02*
X28450Y-45200D01*
X28450Y-45200D02*
X28450Y-44550D01*
X27550Y-43850D02*
X27550Y-43200D01*
X28450Y-49200D02*
X27550Y-49200D01*
X27550Y-49200D02*
X27550Y-48550D01*
X28450Y-47850D02*
X28450Y-47200D01*
X28450Y-47200D02*
X27550Y-47200D01*
X27550Y-47200D02*
X27550Y-47850D01*
X28450Y-48550D02*
X28450Y-49200D01*
X85900Y-39550D02*
X85900Y-40450D01*
X85900Y-40450D02*
X85250Y-40450D01*
X84550Y-39550D02*
X83900Y-39550D01*
X83900Y-39550D02*
X83900Y-40450D01*
X83900Y-40450D02*
X84550Y-40450D01*
X85250Y-39550D02*
X85900Y-39550D01*
X85900Y-33550D02*
X85900Y-34450D01*
X85900Y-34450D02*
X85250Y-34450D01*
X84550Y-33550D02*
X83900Y-33550D01*
X83900Y-33550D02*
X83900Y-34450D01*
X83900Y-34450D02*
X84550Y-34450D01*
X85250Y-33550D02*
X85900Y-33550D01*
X29119Y-46726D02*
X29131Y-46738D01*
X29166Y-46750D01*
X29190Y-46750D01*
X29226Y-46738D01*
X29250Y-46714D01*
X29261Y-46691D01*
X29273Y-46643D01*
X29273Y-46607D01*
X29261Y-46560D01*
X29250Y-46536D01*
X29226Y-46512D01*
X29190Y-46500D01*
X29166Y-46500D01*
X29131Y-46512D01*
X29119Y-46524D01*
X29023Y-46524D02*
X29011Y-46512D01*
X28988Y-46500D01*
X28928Y-46500D01*
X28904Y-46512D01*
X28892Y-46524D01*
X28881Y-46548D01*
X28881Y-46572D01*
X28892Y-46607D01*
X29035Y-46750D01*
X28881Y-46750D01*
X28785Y-46524D02*
X28773Y-46512D01*
X28750Y-46500D01*
X28690Y-46500D01*
X28666Y-46512D01*
X28654Y-46524D01*
X28643Y-46548D01*
X28643Y-46572D01*
X28654Y-46607D01*
X28797Y-46750D01*
X28643Y-46750D01*
X24961Y-54077D02*
X24973Y-54089D01*
X25008Y-54101D01*
X25032Y-54101D01*
X25068Y-54089D01*
X25092Y-54065D01*
X25103Y-54042D01*
X25115Y-53994D01*
X25115Y-53958D01*
X25103Y-53911D01*
X25092Y-53887D01*
X25068Y-53863D01*
X25032Y-53851D01*
X25008Y-53851D01*
X24973Y-53863D01*
X24961Y-53875D01*
X24723Y-54101D02*
X24865Y-54101D01*
X24794Y-54101D02*
X24794Y-53851D01*
X24818Y-53887D01*
X24842Y-53911D01*
X24865Y-53923D01*
X24568Y-53851D02*
X24544Y-53851D01*
X24520Y-53863D01*
X24508Y-53875D01*
X24496Y-53899D01*
X24485Y-53946D01*
X24485Y-54006D01*
X24496Y-54054D01*
X24508Y-54077D01*
X24520Y-54089D01*
X24544Y-54101D01*
X24568Y-54101D01*
X24592Y-54089D01*
X24604Y-54077D01*
X24615Y-54054D01*
X24627Y-54006D01*
X24627Y-53946D01*
X24615Y-53899D01*
X24604Y-53875D01*
X24592Y-53863D01*
X24568Y-53851D01*
X24961Y-56677D02*
X24973Y-56689D01*
X25008Y-56701D01*
X25032Y-56701D01*
X25068Y-56689D01*
X25092Y-56665D01*
X25103Y-56642D01*
X25115Y-56594D01*
X25115Y-56558D01*
X25103Y-56511D01*
X25092Y-56487D01*
X25068Y-56463D01*
X25032Y-56451D01*
X25008Y-56451D01*
X24973Y-56463D01*
X24961Y-56475D01*
X24723Y-56701D02*
X24865Y-56701D01*
X24794Y-56701D02*
X24794Y-56451D01*
X24818Y-56487D01*
X24842Y-56511D01*
X24865Y-56523D01*
X24485Y-56701D02*
X24627Y-56701D01*
X24556Y-56701D02*
X24556Y-56451D01*
X24580Y-56487D01*
X24604Y-56511D01*
X24627Y-56523D01*
X24961Y-59277D02*
X24973Y-59289D01*
X25008Y-59301D01*
X25032Y-59301D01*
X25068Y-59289D01*
X25092Y-59265D01*
X25103Y-59242D01*
X25115Y-59194D01*
X25115Y-59158D01*
X25103Y-59111D01*
X25092Y-59087D01*
X25068Y-59063D01*
X25032Y-59051D01*
X25008Y-59051D01*
X24973Y-59063D01*
X24961Y-59075D01*
X24723Y-59301D02*
X24865Y-59301D01*
X24794Y-59301D02*
X24794Y-59051D01*
X24818Y-59087D01*
X24842Y-59111D01*
X24865Y-59123D01*
X24627Y-59075D02*
X24615Y-59063D01*
X24592Y-59051D01*
X24532Y-59051D01*
X24508Y-59063D01*
X24496Y-59075D01*
X24485Y-59099D01*
X24485Y-59123D01*
X24496Y-59158D01*
X24639Y-59301D01*
X24485Y-59301D01*
X85093Y-55121D02*
X85193Y-54979D01*
X85265Y-55121D02*
X85265Y-54821D01*
X85150Y-54821D01*
X85122Y-54836D01*
X85107Y-54850D01*
X85093Y-54879D01*
X85093Y-54921D01*
X85107Y-54950D01*
X85122Y-54964D01*
X85150Y-54979D01*
X85265Y-54979D01*
X84836Y-54921D02*
X84836Y-55121D01*
X84907Y-54807D02*
X84979Y-55021D01*
X84793Y-55021D01*
X84707Y-54821D02*
X84507Y-54821D01*
X84636Y-55121D01*
X85093Y-54121D02*
X85193Y-53979D01*
X85265Y-54121D02*
X85265Y-53821D01*
X85150Y-53821D01*
X85122Y-53836D01*
X85107Y-53850D01*
X85093Y-53879D01*
X85093Y-53921D01*
X85107Y-53950D01*
X85122Y-53964D01*
X85150Y-53979D01*
X85265Y-53979D01*
X84836Y-53921D02*
X84836Y-54121D01*
X84907Y-53807D02*
X84979Y-54021D01*
X84793Y-54021D01*
X84550Y-53821D02*
X84607Y-53821D01*
X84636Y-53836D01*
X84650Y-53850D01*
X84679Y-53893D01*
X84693Y-53950D01*
X84693Y-54064D01*
X84679Y-54093D01*
X84664Y-54107D01*
X84636Y-54121D01*
X84579Y-54121D01*
X84550Y-54107D01*
X84536Y-54093D01*
X84521Y-54064D01*
X84521Y-53993D01*
X84536Y-53964D01*
X84550Y-53950D01*
X84579Y-53936D01*
X84636Y-53936D01*
X84664Y-53950D01*
X84679Y-53964D01*
X84693Y-53993D01*
X85093Y-53121D02*
X85193Y-52979D01*
X85265Y-53121D02*
X85265Y-52821D01*
X85150Y-52821D01*
X85122Y-52836D01*
X85107Y-52850D01*
X85093Y-52879D01*
X85093Y-52921D01*
X85107Y-52950D01*
X85122Y-52964D01*
X85150Y-52979D01*
X85265Y-52979D01*
X84836Y-52921D02*
X84836Y-53121D01*
X84907Y-52807D02*
X84979Y-53021D01*
X84793Y-53021D01*
X84536Y-52821D02*
X84679Y-52821D01*
X84693Y-52964D01*
X84679Y-52950D01*
X84650Y-52936D01*
X84579Y-52936D01*
X84550Y-52950D01*
X84536Y-52964D01*
X84521Y-52993D01*
X84521Y-53064D01*
X84536Y-53093D01*
X84550Y-53107D01*
X84579Y-53121D01*
X84650Y-53121D01*
X84679Y-53107D01*
X84693Y-53093D01*
X85093Y-52121D02*
X85193Y-51979D01*
X85265Y-52121D02*
X85265Y-51821D01*
X85150Y-51821D01*
X85122Y-51836D01*
X85107Y-51850D01*
X85093Y-51879D01*
X85093Y-51921D01*
X85107Y-51950D01*
X85122Y-51964D01*
X85150Y-51979D01*
X85265Y-51979D01*
X84836Y-51921D02*
X84836Y-52121D01*
X84907Y-51807D02*
X84979Y-52021D01*
X84793Y-52021D01*
X84550Y-51921D02*
X84550Y-52121D01*
X84621Y-51807D02*
X84693Y-52021D01*
X84507Y-52021D01*
X85093Y-51121D02*
X85193Y-50979D01*
X85265Y-51121D02*
X85265Y-50821D01*
X85150Y-50821D01*
X85122Y-50836D01*
X85107Y-50850D01*
X85093Y-50879D01*
X85093Y-50921D01*
X85107Y-50950D01*
X85122Y-50964D01*
X85150Y-50979D01*
X85265Y-50979D01*
X84836Y-50921D02*
X84836Y-51121D01*
X84907Y-50807D02*
X84979Y-51021D01*
X84793Y-51021D01*
X84707Y-50821D02*
X84521Y-50821D01*
X84621Y-50936D01*
X84579Y-50936D01*
X84550Y-50950D01*
X84536Y-50964D01*
X84521Y-50993D01*
X84521Y-51064D01*
X84536Y-51093D01*
X84550Y-51107D01*
X84579Y-51121D01*
X84664Y-51121D01*
X84693Y-51107D01*
X84707Y-51093D01*
X85093Y-50121D02*
X85193Y-49979D01*
X85265Y-50121D02*
X85265Y-49821D01*
X85150Y-49821D01*
X85122Y-49836D01*
X85107Y-49850D01*
X85093Y-49879D01*
X85093Y-49921D01*
X85107Y-49950D01*
X85122Y-49964D01*
X85150Y-49979D01*
X85265Y-49979D01*
X84836Y-49921D02*
X84836Y-50121D01*
X84907Y-49807D02*
X84979Y-50021D01*
X84793Y-50021D01*
X84693Y-49850D02*
X84679Y-49836D01*
X84650Y-49821D01*
X84579Y-49821D01*
X84550Y-49836D01*
X84536Y-49850D01*
X84521Y-49879D01*
X84521Y-49907D01*
X84536Y-49950D01*
X84707Y-50121D01*
X84521Y-50121D01*
X85093Y-49121D02*
X85193Y-48979D01*
X85265Y-49121D02*
X85265Y-48821D01*
X85150Y-48821D01*
X85122Y-48836D01*
X85107Y-48850D01*
X85093Y-48879D01*
X85093Y-48921D01*
X85107Y-48950D01*
X85122Y-48964D01*
X85150Y-48979D01*
X85265Y-48979D01*
X84836Y-48921D02*
X84836Y-49121D01*
X84907Y-48807D02*
X84979Y-49021D01*
X84793Y-49021D01*
X84521Y-49121D02*
X84693Y-49121D01*
X84607Y-49121D02*
X84607Y-48821D01*
X84636Y-48864D01*
X84664Y-48893D01*
X84693Y-48907D01*
X85093Y-48121D02*
X85193Y-47979D01*
X85265Y-48121D02*
X85265Y-47821D01*
X85150Y-47821D01*
X85122Y-47836D01*
X85107Y-47850D01*
X85093Y-47879D01*
X85093Y-47921D01*
X85107Y-47950D01*
X85122Y-47964D01*
X85150Y-47979D01*
X85265Y-47979D01*
X84836Y-47921D02*
X84836Y-48121D01*
X84907Y-47807D02*
X84979Y-48021D01*
X84793Y-48021D01*
X84621Y-47821D02*
X84593Y-47821D01*
X84564Y-47836D01*
X84550Y-47850D01*
X84536Y-47879D01*
X84521Y-47936D01*
X84521Y-48007D01*
X84536Y-48064D01*
X84550Y-48093D01*
X84564Y-48107D01*
X84593Y-48121D01*
X84621Y-48121D01*
X84650Y-48107D01*
X84664Y-48093D01*
X84679Y-48064D01*
X84693Y-48007D01*
X84693Y-47936D01*
X84679Y-47879D01*
X84664Y-47850D01*
X84650Y-47836D01*
X84621Y-47821D01*
X85093Y-47121D02*
X85193Y-46979D01*
X85265Y-47121D02*
X85265Y-46821D01*
X85150Y-46821D01*
X85122Y-46836D01*
X85107Y-46850D01*
X85093Y-46879D01*
X85093Y-46921D01*
X85107Y-46950D01*
X85122Y-46964D01*
X85150Y-46979D01*
X85265Y-46979D01*
X84993Y-46821D02*
X84807Y-46821D01*
X84907Y-46936D01*
X84865Y-46936D01*
X84836Y-46950D01*
X84822Y-46964D01*
X84807Y-46993D01*
X84807Y-47064D01*
X84822Y-47093D01*
X84836Y-47107D01*
X84865Y-47121D01*
X84950Y-47121D01*
X84979Y-47107D01*
X84993Y-47093D01*
X84664Y-47121D02*
X84607Y-47121D01*
X84579Y-47107D01*
X84564Y-47093D01*
X84536Y-47050D01*
X84521Y-46993D01*
X84521Y-46879D01*
X84536Y-46850D01*
X84550Y-46836D01*
X84579Y-46821D01*
X84636Y-46821D01*
X84664Y-46836D01*
X84679Y-46850D01*
X84693Y-46879D01*
X84693Y-46950D01*
X84679Y-46979D01*
X84664Y-46993D01*
X84636Y-47007D01*
X84579Y-47007D01*
X84550Y-46993D01*
X84536Y-46979D01*
X84521Y-46950D01*
X85093Y-46121D02*
X85193Y-45979D01*
X85265Y-46121D02*
X85265Y-45821D01*
X85150Y-45821D01*
X85122Y-45836D01*
X85107Y-45850D01*
X85093Y-45879D01*
X85093Y-45921D01*
X85107Y-45950D01*
X85122Y-45964D01*
X85150Y-45979D01*
X85265Y-45979D01*
X84993Y-45821D02*
X84807Y-45821D01*
X84907Y-45936D01*
X84865Y-45936D01*
X84836Y-45950D01*
X84822Y-45964D01*
X84807Y-45993D01*
X84807Y-46064D01*
X84822Y-46093D01*
X84836Y-46107D01*
X84865Y-46121D01*
X84950Y-46121D01*
X84979Y-46107D01*
X84993Y-46093D01*
X84636Y-45950D02*
X84664Y-45936D01*
X84679Y-45921D01*
X84693Y-45893D01*
X84693Y-45879D01*
X84679Y-45850D01*
X84664Y-45836D01*
X84636Y-45821D01*
X84579Y-45821D01*
X84550Y-45836D01*
X84536Y-45850D01*
X84521Y-45879D01*
X84521Y-45893D01*
X84536Y-45921D01*
X84550Y-45936D01*
X84579Y-45950D01*
X84636Y-45950D01*
X84664Y-45964D01*
X84679Y-45979D01*
X84693Y-46007D01*
X84693Y-46064D01*
X84679Y-46093D01*
X84664Y-46107D01*
X84636Y-46121D01*
X84579Y-46121D01*
X84550Y-46107D01*
X84536Y-46093D01*
X84521Y-46064D01*
X84521Y-46007D01*
X84536Y-45979D01*
X84550Y-45964D01*
X84579Y-45950D01*
X85093Y-45121D02*
X85193Y-44979D01*
X85265Y-45121D02*
X85265Y-44821D01*
X85150Y-44821D01*
X85122Y-44836D01*
X85107Y-44850D01*
X85093Y-44879D01*
X85093Y-44921D01*
X85107Y-44950D01*
X85122Y-44964D01*
X85150Y-44979D01*
X85265Y-44979D01*
X84993Y-44821D02*
X84807Y-44821D01*
X84907Y-44936D01*
X84865Y-44936D01*
X84836Y-44950D01*
X84822Y-44964D01*
X84807Y-44993D01*
X84807Y-45064D01*
X84822Y-45093D01*
X84836Y-45107D01*
X84865Y-45121D01*
X84950Y-45121D01*
X84979Y-45107D01*
X84993Y-45093D01*
X84707Y-44821D02*
X84507Y-44821D01*
X84636Y-45121D01*
X85093Y-44121D02*
X85193Y-43979D01*
X85265Y-44121D02*
X85265Y-43821D01*
X85150Y-43821D01*
X85122Y-43836D01*
X85107Y-43850D01*
X85093Y-43879D01*
X85093Y-43921D01*
X85107Y-43950D01*
X85122Y-43964D01*
X85150Y-43979D01*
X85265Y-43979D01*
X84993Y-43821D02*
X84807Y-43821D01*
X84907Y-43936D01*
X84865Y-43936D01*
X84836Y-43950D01*
X84822Y-43964D01*
X84807Y-43993D01*
X84807Y-44064D01*
X84822Y-44093D01*
X84836Y-44107D01*
X84865Y-44121D01*
X84950Y-44121D01*
X84979Y-44107D01*
X84993Y-44093D01*
X84550Y-43821D02*
X84607Y-43821D01*
X84636Y-43836D01*
X84650Y-43850D01*
X84679Y-43893D01*
X84693Y-43950D01*
X84693Y-44064D01*
X84679Y-44093D01*
X84664Y-44107D01*
X84636Y-44121D01*
X84579Y-44121D01*
X84550Y-44107D01*
X84536Y-44093D01*
X84521Y-44064D01*
X84521Y-43993D01*
X84536Y-43964D01*
X84550Y-43950D01*
X84579Y-43936D01*
X84636Y-43936D01*
X84664Y-43950D01*
X84679Y-43964D01*
X84693Y-43993D01*
X85093Y-43121D02*
X85193Y-42979D01*
X85265Y-43121D02*
X85265Y-42821D01*
X85150Y-42821D01*
X85122Y-42836D01*
X85107Y-42850D01*
X85093Y-42879D01*
X85093Y-42921D01*
X85107Y-42950D01*
X85122Y-42964D01*
X85150Y-42979D01*
X85265Y-42979D01*
X84993Y-42821D02*
X84807Y-42821D01*
X84907Y-42936D01*
X84865Y-42936D01*
X84836Y-42950D01*
X84822Y-42964D01*
X84807Y-42993D01*
X84807Y-43064D01*
X84822Y-43093D01*
X84836Y-43107D01*
X84865Y-43121D01*
X84950Y-43121D01*
X84979Y-43107D01*
X84993Y-43093D01*
X84536Y-42821D02*
X84679Y-42821D01*
X84693Y-42964D01*
X84679Y-42950D01*
X84650Y-42936D01*
X84579Y-42936D01*
X84550Y-42950D01*
X84536Y-42964D01*
X84521Y-42993D01*
X84521Y-43064D01*
X84536Y-43093D01*
X84550Y-43107D01*
X84579Y-43121D01*
X84650Y-43121D01*
X84679Y-43107D01*
X84693Y-43093D01*
X85093Y-41121D02*
X85193Y-40979D01*
X85265Y-41121D02*
X85265Y-40821D01*
X85150Y-40821D01*
X85122Y-40836D01*
X85107Y-40850D01*
X85093Y-40879D01*
X85093Y-40921D01*
X85107Y-40950D01*
X85122Y-40964D01*
X85150Y-40979D01*
X85265Y-40979D01*
X84993Y-40821D02*
X84807Y-40821D01*
X84907Y-40936D01*
X84865Y-40936D01*
X84836Y-40950D01*
X84822Y-40964D01*
X84807Y-40993D01*
X84807Y-41064D01*
X84822Y-41093D01*
X84836Y-41107D01*
X84865Y-41121D01*
X84950Y-41121D01*
X84979Y-41107D01*
X84993Y-41093D01*
X84707Y-40821D02*
X84521Y-40821D01*
X84621Y-40936D01*
X84579Y-40936D01*
X84550Y-40950D01*
X84536Y-40964D01*
X84521Y-40993D01*
X84521Y-41064D01*
X84536Y-41093D01*
X84550Y-41107D01*
X84579Y-41121D01*
X84664Y-41121D01*
X84693Y-41107D01*
X84707Y-41093D01*
X85093Y-39121D02*
X85193Y-38979D01*
X85265Y-39121D02*
X85265Y-38821D01*
X85150Y-38821D01*
X85122Y-38836D01*
X85107Y-38850D01*
X85093Y-38879D01*
X85093Y-38921D01*
X85107Y-38950D01*
X85122Y-38964D01*
X85150Y-38979D01*
X85265Y-38979D01*
X84993Y-38821D02*
X84807Y-38821D01*
X84907Y-38936D01*
X84865Y-38936D01*
X84836Y-38950D01*
X84822Y-38964D01*
X84807Y-38993D01*
X84807Y-39064D01*
X84822Y-39093D01*
X84836Y-39107D01*
X84865Y-39121D01*
X84950Y-39121D01*
X84979Y-39107D01*
X84993Y-39093D01*
X84521Y-39121D02*
X84693Y-39121D01*
X84607Y-39121D02*
X84607Y-38821D01*
X84636Y-38864D01*
X84664Y-38893D01*
X84693Y-38907D01*
X85093Y-38121D02*
X85193Y-37979D01*
X85265Y-38121D02*
X85265Y-37821D01*
X85150Y-37821D01*
X85122Y-37836D01*
X85107Y-37850D01*
X85093Y-37879D01*
X85093Y-37921D01*
X85107Y-37950D01*
X85122Y-37964D01*
X85150Y-37979D01*
X85265Y-37979D01*
X84993Y-37821D02*
X84807Y-37821D01*
X84907Y-37936D01*
X84865Y-37936D01*
X84836Y-37950D01*
X84822Y-37964D01*
X84807Y-37993D01*
X84807Y-38064D01*
X84822Y-38093D01*
X84836Y-38107D01*
X84865Y-38121D01*
X84950Y-38121D01*
X84979Y-38107D01*
X84993Y-38093D01*
X84621Y-37821D02*
X84593Y-37821D01*
X84564Y-37836D01*
X84550Y-37850D01*
X84536Y-37879D01*
X84521Y-37936D01*
X84521Y-38007D01*
X84536Y-38064D01*
X84550Y-38093D01*
X84564Y-38107D01*
X84593Y-38121D01*
X84621Y-38121D01*
X84650Y-38107D01*
X84664Y-38093D01*
X84679Y-38064D01*
X84693Y-38007D01*
X84693Y-37936D01*
X84679Y-37879D01*
X84664Y-37850D01*
X84650Y-37836D01*
X84621Y-37821D01*
X85093Y-37121D02*
X85193Y-36979D01*
X85265Y-37121D02*
X85265Y-36821D01*
X85150Y-36821D01*
X85122Y-36836D01*
X85107Y-36850D01*
X85093Y-36879D01*
X85093Y-36921D01*
X85107Y-36950D01*
X85122Y-36964D01*
X85150Y-36979D01*
X85265Y-36979D01*
X84979Y-36850D02*
X84965Y-36836D01*
X84936Y-36821D01*
X84865Y-36821D01*
X84836Y-36836D01*
X84822Y-36850D01*
X84807Y-36879D01*
X84807Y-36907D01*
X84822Y-36950D01*
X84993Y-37121D01*
X84807Y-37121D01*
X84664Y-37121D02*
X84607Y-37121D01*
X84579Y-37107D01*
X84564Y-37093D01*
X84536Y-37050D01*
X84521Y-36993D01*
X84521Y-36879D01*
X84536Y-36850D01*
X84550Y-36836D01*
X84579Y-36821D01*
X84636Y-36821D01*
X84664Y-36836D01*
X84679Y-36850D01*
X84693Y-36879D01*
X84693Y-36950D01*
X84679Y-36979D01*
X84664Y-36993D01*
X84636Y-37007D01*
X84579Y-37007D01*
X84550Y-36993D01*
X84536Y-36979D01*
X84521Y-36950D01*
X85093Y-36121D02*
X85193Y-35979D01*
X85265Y-36121D02*
X85265Y-35821D01*
X85150Y-35821D01*
X85122Y-35836D01*
X85107Y-35850D01*
X85093Y-35879D01*
X85093Y-35921D01*
X85107Y-35950D01*
X85122Y-35964D01*
X85150Y-35979D01*
X85265Y-35979D01*
X84979Y-35850D02*
X84965Y-35836D01*
X84936Y-35821D01*
X84865Y-35821D01*
X84836Y-35836D01*
X84822Y-35850D01*
X84807Y-35879D01*
X84807Y-35907D01*
X84822Y-35950D01*
X84993Y-36121D01*
X84807Y-36121D01*
X84636Y-35950D02*
X84664Y-35936D01*
X84679Y-35921D01*
X84693Y-35893D01*
X84693Y-35879D01*
X84679Y-35850D01*
X84664Y-35836D01*
X84636Y-35821D01*
X84579Y-35821D01*
X84550Y-35836D01*
X84536Y-35850D01*
X84521Y-35879D01*
X84521Y-35893D01*
X84536Y-35921D01*
X84550Y-35936D01*
X84579Y-35950D01*
X84636Y-35950D01*
X84664Y-35964D01*
X84679Y-35979D01*
X84693Y-36007D01*
X84693Y-36064D01*
X84679Y-36093D01*
X84664Y-36107D01*
X84636Y-36121D01*
X84579Y-36121D01*
X84550Y-36107D01*
X84536Y-36093D01*
X84521Y-36064D01*
X84521Y-36007D01*
X84536Y-35979D01*
X84550Y-35964D01*
X84579Y-35950D01*
X85093Y-35121D02*
X85193Y-34979D01*
X85265Y-35121D02*
X85265Y-34821D01*
X85150Y-34821D01*
X85122Y-34836D01*
X85107Y-34850D01*
X85093Y-34879D01*
X85093Y-34921D01*
X85107Y-34950D01*
X85122Y-34964D01*
X85150Y-34979D01*
X85265Y-34979D01*
X84979Y-34850D02*
X84965Y-34836D01*
X84936Y-34821D01*
X84865Y-34821D01*
X84836Y-34836D01*
X84822Y-34850D01*
X84807Y-34879D01*
X84807Y-34907D01*
X84822Y-34950D01*
X84993Y-35121D01*
X84807Y-35121D01*
X84707Y-34821D02*
X84507Y-34821D01*
X84636Y-35121D01*
X85093Y-42121D02*
X85193Y-41979D01*
X85265Y-42121D02*
X85265Y-41821D01*
X85150Y-41821D01*
X85122Y-41836D01*
X85107Y-41850D01*
X85093Y-41879D01*
X85093Y-41921D01*
X85107Y-41950D01*
X85122Y-41964D01*
X85150Y-41979D01*
X85265Y-41979D01*
X84993Y-41821D02*
X84807Y-41821D01*
X84907Y-41936D01*
X84865Y-41936D01*
X84836Y-41950D01*
X84822Y-41964D01*
X84807Y-41993D01*
X84807Y-42064D01*
X84822Y-42093D01*
X84836Y-42107D01*
X84865Y-42121D01*
X84950Y-42121D01*
X84979Y-42107D01*
X84993Y-42093D01*
X84550Y-41921D02*
X84550Y-42121D01*
X84621Y-41807D02*
X84693Y-42021D01*
X84507Y-42021D01*
X85093Y-33121D02*
X85193Y-32979D01*
X85265Y-33121D02*
X85265Y-32821D01*
X85150Y-32821D01*
X85122Y-32836D01*
X85107Y-32850D01*
X85093Y-32879D01*
X85093Y-32921D01*
X85107Y-32950D01*
X85122Y-32964D01*
X85150Y-32979D01*
X85265Y-32979D01*
X84979Y-32850D02*
X84965Y-32836D01*
X84936Y-32821D01*
X84865Y-32821D01*
X84836Y-32836D01*
X84822Y-32850D01*
X84807Y-32879D01*
X84807Y-32907D01*
X84822Y-32950D01*
X84993Y-33121D01*
X84807Y-33121D01*
X84536Y-32821D02*
X84679Y-32821D01*
X84693Y-32964D01*
X84679Y-32950D01*
X84650Y-32936D01*
X84579Y-32936D01*
X84550Y-32950D01*
X84536Y-32964D01*
X84521Y-32993D01*
X84521Y-33064D01*
X84536Y-33093D01*
X84550Y-33107D01*
X84579Y-33121D01*
X84650Y-33121D01*
X84679Y-33107D01*
X84693Y-33093D01*
X85093Y-32121D02*
X85193Y-31979D01*
X85265Y-32121D02*
X85265Y-31821D01*
X85150Y-31821D01*
X85122Y-31836D01*
X85107Y-31850D01*
X85093Y-31879D01*
X85093Y-31921D01*
X85107Y-31950D01*
X85122Y-31964D01*
X85150Y-31979D01*
X85265Y-31979D01*
X84979Y-31850D02*
X84965Y-31836D01*
X84936Y-31821D01*
X84865Y-31821D01*
X84836Y-31836D01*
X84822Y-31850D01*
X84807Y-31879D01*
X84807Y-31907D01*
X84822Y-31950D01*
X84993Y-32121D01*
X84807Y-32121D01*
X84550Y-31921D02*
X84550Y-32121D01*
X84621Y-31807D02*
X84693Y-32021D01*
X84507Y-32021D01*
X85093Y-31121D02*
X85193Y-30979D01*
X85265Y-31121D02*
X85265Y-30821D01*
X85150Y-30821D01*
X85122Y-30836D01*
X85107Y-30850D01*
X85093Y-30879D01*
X85093Y-30921D01*
X85107Y-30950D01*
X85122Y-30964D01*
X85150Y-30979D01*
X85265Y-30979D01*
X84979Y-30850D02*
X84965Y-30836D01*
X84936Y-30821D01*
X84865Y-30821D01*
X84836Y-30836D01*
X84822Y-30850D01*
X84807Y-30879D01*
X84807Y-30907D01*
X84822Y-30950D01*
X84993Y-31121D01*
X84807Y-31121D01*
X84707Y-30821D02*
X84521Y-30821D01*
X84621Y-30936D01*
X84579Y-30936D01*
X84550Y-30950D01*
X84536Y-30964D01*
X84521Y-30993D01*
X84521Y-31064D01*
X84536Y-31093D01*
X84550Y-31107D01*
X84579Y-31121D01*
X84664Y-31121D01*
X84693Y-31107D01*
X84707Y-31093D01*
X85093Y-30121D02*
X85193Y-29979D01*
X85265Y-30121D02*
X85265Y-29821D01*
X85150Y-29821D01*
X85122Y-29836D01*
X85107Y-29850D01*
X85093Y-29879D01*
X85093Y-29921D01*
X85107Y-29950D01*
X85122Y-29964D01*
X85150Y-29979D01*
X85265Y-29979D01*
X84979Y-29850D02*
X84965Y-29836D01*
X84936Y-29821D01*
X84865Y-29821D01*
X84836Y-29836D01*
X84822Y-29850D01*
X84807Y-29879D01*
X84807Y-29907D01*
X84822Y-29950D01*
X84993Y-30121D01*
X84807Y-30121D01*
X84693Y-29850D02*
X84679Y-29836D01*
X84650Y-29821D01*
X84579Y-29821D01*
X84550Y-29836D01*
X84536Y-29850D01*
X84521Y-29879D01*
X84521Y-29907D01*
X84536Y-29950D01*
X84707Y-30121D01*
X84521Y-30121D01*
X85093Y-29121D02*
X85193Y-28979D01*
X85265Y-29121D02*
X85265Y-28821D01*
X85150Y-28821D01*
X85122Y-28836D01*
X85107Y-28850D01*
X85093Y-28879D01*
X85093Y-28921D01*
X85107Y-28950D01*
X85122Y-28964D01*
X85150Y-28979D01*
X85265Y-28979D01*
X84979Y-28850D02*
X84965Y-28836D01*
X84936Y-28821D01*
X84865Y-28821D01*
X84836Y-28836D01*
X84822Y-28850D01*
X84807Y-28879D01*
X84807Y-28907D01*
X84822Y-28950D01*
X84993Y-29121D01*
X84807Y-29121D01*
X84521Y-29121D02*
X84693Y-29121D01*
X84607Y-29121D02*
X84607Y-28821D01*
X84636Y-28864D01*
X84664Y-28893D01*
X84693Y-28907D01*
X85093Y-28121D02*
X85193Y-27979D01*
X85265Y-28121D02*
X85265Y-27821D01*
X85150Y-27821D01*
X85122Y-27836D01*
X85107Y-27850D01*
X85093Y-27879D01*
X85093Y-27921D01*
X85107Y-27950D01*
X85122Y-27964D01*
X85150Y-27979D01*
X85265Y-27979D01*
X84979Y-27850D02*
X84965Y-27836D01*
X84936Y-27821D01*
X84865Y-27821D01*
X84836Y-27836D01*
X84822Y-27850D01*
X84807Y-27879D01*
X84807Y-27907D01*
X84822Y-27950D01*
X84993Y-28121D01*
X84807Y-28121D01*
X84621Y-27821D02*
X84593Y-27821D01*
X84564Y-27836D01*
X84550Y-27850D01*
X84536Y-27879D01*
X84521Y-27936D01*
X84521Y-28007D01*
X84536Y-28064D01*
X84550Y-28093D01*
X84564Y-28107D01*
X84593Y-28121D01*
X84621Y-28121D01*
X84650Y-28107D01*
X84664Y-28093D01*
X84679Y-28064D01*
X84693Y-28007D01*
X84693Y-27936D01*
X84679Y-27879D01*
X84664Y-27850D01*
X84650Y-27836D01*
X84621Y-27821D01*
X85093Y-27121D02*
X85193Y-26979D01*
X85265Y-27121D02*
X85265Y-26821D01*
X85150Y-26821D01*
X85122Y-26836D01*
X85107Y-26850D01*
X85093Y-26879D01*
X85093Y-26921D01*
X85107Y-26950D01*
X85122Y-26964D01*
X85150Y-26979D01*
X85265Y-26979D01*
X84807Y-27121D02*
X84979Y-27121D01*
X84893Y-27121D02*
X84893Y-26821D01*
X84922Y-26864D01*
X84950Y-26893D01*
X84979Y-26907D01*
X84664Y-27121D02*
X84607Y-27121D01*
X84579Y-27107D01*
X84564Y-27093D01*
X84536Y-27050D01*
X84521Y-26993D01*
X84521Y-26879D01*
X84536Y-26850D01*
X84550Y-26836D01*
X84579Y-26821D01*
X84636Y-26821D01*
X84664Y-26836D01*
X84679Y-26850D01*
X84693Y-26879D01*
X84693Y-26950D01*
X84679Y-26979D01*
X84664Y-26993D01*
X84636Y-27007D01*
X84579Y-27007D01*
X84550Y-26993D01*
X84536Y-26979D01*
X84521Y-26950D01*
X85093Y-26121D02*
X85193Y-25979D01*
X85265Y-26121D02*
X85265Y-25821D01*
X85150Y-25821D01*
X85122Y-25836D01*
X85107Y-25850D01*
X85093Y-25879D01*
X85093Y-25921D01*
X85107Y-25950D01*
X85122Y-25964D01*
X85150Y-25979D01*
X85265Y-25979D01*
X84807Y-26121D02*
X84979Y-26121D01*
X84893Y-26121D02*
X84893Y-25821D01*
X84922Y-25864D01*
X84950Y-25893D01*
X84979Y-25907D01*
X84636Y-25950D02*
X84664Y-25936D01*
X84679Y-25921D01*
X84693Y-25893D01*
X84693Y-25879D01*
X84679Y-25850D01*
X84664Y-25836D01*
X84636Y-25821D01*
X84579Y-25821D01*
X84550Y-25836D01*
X84536Y-25850D01*
X84521Y-25879D01*
X84521Y-25893D01*
X84536Y-25921D01*
X84550Y-25936D01*
X84579Y-25950D01*
X84636Y-25950D01*
X84664Y-25964D01*
X84679Y-25979D01*
X84693Y-26007D01*
X84693Y-26064D01*
X84679Y-26093D01*
X84664Y-26107D01*
X84636Y-26121D01*
X84579Y-26121D01*
X84550Y-26107D01*
X84536Y-26093D01*
X84521Y-26064D01*
X84521Y-26007D01*
X84536Y-25979D01*
X84550Y-25964D01*
X84579Y-25950D01*
X85093Y-25121D02*
X85193Y-24979D01*
X85265Y-25121D02*
X85265Y-24821D01*
X85150Y-24821D01*
X85122Y-24836D01*
X85107Y-24850D01*
X85093Y-24879D01*
X85093Y-24921D01*
X85107Y-24950D01*
X85122Y-24964D01*
X85150Y-24979D01*
X85265Y-24979D01*
X84807Y-25121D02*
X84979Y-25121D01*
X84893Y-25121D02*
X84893Y-24821D01*
X84922Y-24864D01*
X84950Y-24893D01*
X84979Y-24907D01*
X84707Y-24821D02*
X84507Y-24821D01*
X84636Y-25121D01*
X85093Y-24121D02*
X85193Y-23979D01*
X85265Y-24121D02*
X85265Y-23821D01*
X85150Y-23821D01*
X85122Y-23836D01*
X85107Y-23850D01*
X85093Y-23879D01*
X85093Y-23921D01*
X85107Y-23950D01*
X85122Y-23964D01*
X85150Y-23979D01*
X85265Y-23979D01*
X84807Y-24121D02*
X84979Y-24121D01*
X84893Y-24121D02*
X84893Y-23821D01*
X84922Y-23864D01*
X84950Y-23893D01*
X84979Y-23907D01*
X84550Y-23821D02*
X84607Y-23821D01*
X84636Y-23836D01*
X84650Y-23850D01*
X84679Y-23893D01*
X84693Y-23950D01*
X84693Y-24064D01*
X84679Y-24093D01*
X84664Y-24107D01*
X84636Y-24121D01*
X84579Y-24121D01*
X84550Y-24107D01*
X84536Y-24093D01*
X84521Y-24064D01*
X84521Y-23993D01*
X84536Y-23964D01*
X84550Y-23950D01*
X84579Y-23936D01*
X84636Y-23936D01*
X84664Y-23950D01*
X84679Y-23964D01*
X84693Y-23993D01*
X23383Y-45995D02*
X23483Y-45853D01*
X23555Y-45995D02*
X23555Y-45695D01*
X23440Y-45695D01*
X23412Y-45710D01*
X23397Y-45724D01*
X23383Y-45753D01*
X23383Y-45795D01*
X23397Y-45824D01*
X23412Y-45838D01*
X23440Y-45853D01*
X23555Y-45853D01*
X23112Y-45695D02*
X23255Y-45695D01*
X23269Y-45838D01*
X23255Y-45824D01*
X23226Y-45810D01*
X23155Y-45810D01*
X23126Y-45824D01*
X23112Y-45838D01*
X23097Y-45867D01*
X23097Y-45938D01*
X23112Y-45967D01*
X23126Y-45981D01*
X23155Y-45995D01*
X23226Y-45995D01*
X23255Y-45981D01*
X23269Y-45967D01*
X28058Y-42970D02*
X28158Y-42828D01*
X28230Y-42970D02*
X28230Y-42670D01*
X28115Y-42670D01*
X28087Y-42685D01*
X28072Y-42699D01*
X28058Y-42728D01*
X28058Y-42770D01*
X28072Y-42799D01*
X28087Y-42813D01*
X28115Y-42828D01*
X28230Y-42828D01*
X27944Y-42699D02*
X27930Y-42685D01*
X27901Y-42670D01*
X27830Y-42670D01*
X27801Y-42685D01*
X27787Y-42699D01*
X27772Y-42728D01*
X27772Y-42756D01*
X27787Y-42799D01*
X27958Y-42970D01*
X27772Y-42970D01*
X28983Y-47545D02*
X29083Y-47403D01*
X29155Y-47545D02*
X29155Y-47245D01*
X29040Y-47245D01*
X29012Y-47260D01*
X28997Y-47274D01*
X28983Y-47303D01*
X28983Y-47345D01*
X28997Y-47374D01*
X29012Y-47388D01*
X29040Y-47403D01*
X29155Y-47403D01*
X28697Y-47545D02*
X28869Y-47545D01*
X28783Y-47545D02*
X28783Y-47245D01*
X28812Y-47288D01*
X28840Y-47317D01*
X28869Y-47331D01*
X85093Y-40121D02*
X85193Y-39979D01*
X85265Y-40121D02*
X85265Y-39821D01*
X85150Y-39821D01*
X85122Y-39836D01*
X85107Y-39850D01*
X85093Y-39879D01*
X85093Y-39921D01*
X85107Y-39950D01*
X85122Y-39964D01*
X85150Y-39979D01*
X85265Y-39979D01*
X84993Y-39821D02*
X84807Y-39821D01*
X84907Y-39936D01*
X84865Y-39936D01*
X84836Y-39950D01*
X84822Y-39964D01*
X84807Y-39993D01*
X84807Y-40064D01*
X84822Y-40093D01*
X84836Y-40107D01*
X84865Y-40121D01*
X84950Y-40121D01*
X84979Y-40107D01*
X84993Y-40093D01*
X84693Y-39850D02*
X84679Y-39836D01*
X84650Y-39821D01*
X84579Y-39821D01*
X84550Y-39836D01*
X84536Y-39850D01*
X84521Y-39879D01*
X84521Y-39907D01*
X84536Y-39950D01*
X84707Y-40121D01*
X84521Y-40121D01*
X85093Y-34121D02*
X85193Y-33979D01*
X85265Y-34121D02*
X85265Y-33821D01*
X85150Y-33821D01*
X85122Y-33836D01*
X85107Y-33850D01*
X85093Y-33879D01*
X85093Y-33921D01*
X85107Y-33950D01*
X85122Y-33964D01*
X85150Y-33979D01*
X85265Y-33979D01*
X84979Y-33850D02*
X84965Y-33836D01*
X84936Y-33821D01*
X84865Y-33821D01*
X84836Y-33836D01*
X84822Y-33850D01*
X84807Y-33879D01*
X84807Y-33907D01*
X84822Y-33950D01*
X84993Y-34121D01*
X84807Y-34121D01*
X84550Y-33821D02*
X84607Y-33821D01*
X84636Y-33836D01*
X84650Y-33850D01*
X84679Y-33893D01*
X84693Y-33950D01*
X84693Y-34064D01*
X84679Y-34093D01*
X84664Y-34107D01*
X84636Y-34121D01*
X84579Y-34121D01*
X84550Y-34107D01*
X84536Y-34093D01*
X84521Y-34064D01*
X84521Y-33993D01*
X84536Y-33964D01*
X84550Y-33950D01*
X84579Y-33936D01*
X84636Y-33936D01*
X84664Y-33950D01*
X84679Y-33964D01*
X84693Y-33993D01*
M02*
