M48
;DRILL file {PCBnew (2011-01-22 BZR 2754)-stable} date 08.05.2012 16:39:43
;FORMAT={-:-/ absolute / metric / decimal}
FMAT,2
METRIC,TZ
T1C0.800
T2C0.813
T3C1.001
T4C1.016
T5C1.143
T6C1.300
T7C1.801
T8C1.999
T9C3.048
T10C3.500
%
G90
G05
M71
T1
X91.948Y153.698
X91.948Y157.198
X118.618Y139.741
X118.618Y144.739
T2
X69.502Y93.726
X69.502Y96.266
X71.501Y93.726
X71.501Y96.266
X73.914Y136.144
X73.914Y138.684
X73.914Y141.224
X73.914Y143.764
X73.914Y146.304
X73.914Y148.844
X73.914Y151.384
X81.534Y136.144
X81.534Y138.684
X81.534Y141.224
X81.534Y143.764
X81.534Y146.304
X81.534Y148.844
X81.534Y151.384
X85.344Y80.518
X85.344Y88.138
X87.884Y80.518
X87.884Y88.138
X90.424Y80.518
X90.424Y88.138
X92.964Y80.518
X92.964Y88.138
X95.504Y80.518
X95.504Y88.138
X98.044Y80.518
X98.044Y88.138
X100.584Y80.518
X100.584Y88.138
X103.124Y80.518
X103.124Y88.138
X103.886Y97.536
X103.886Y102.616
X106.426Y100.076
X143.256Y51.816
X143.256Y54.356
X143.256Y56.896
X143.256Y59.436
X143.256Y61.976
X143.256Y64.516
X143.256Y67.056
X143.256Y69.596
X143.256Y91.440
X143.256Y93.980
X143.256Y96.520
X143.256Y99.060
X143.256Y101.600
X143.256Y104.140
X143.256Y106.680
X143.256Y109.220
X150.876Y51.816
X150.876Y54.356
X150.876Y56.896
X150.876Y59.436
X150.876Y61.976
X150.876Y64.516
X150.876Y67.056
X150.876Y69.596
X150.876Y91.440
X150.876Y93.980
X150.876Y96.520
X150.876Y99.060
X150.876Y101.600
X150.876Y104.140
X150.876Y106.680
X150.876Y109.220
X166.116Y51.816
X166.116Y54.356
X166.116Y56.896
X166.116Y59.436
X166.116Y61.976
X166.116Y64.516
X166.116Y67.056
X166.116Y69.596
X166.116Y91.440
X166.116Y93.980
X166.116Y96.520
X166.116Y99.060
X166.116Y101.600
X166.116Y104.140
X166.116Y106.680
X166.116Y109.220
X166.116Y131.064
X166.116Y133.604
X166.116Y136.144
X166.116Y138.684
X166.116Y141.224
X166.116Y143.764
X166.116Y146.304
X166.116Y148.844
X173.736Y51.816
X173.736Y54.356
X173.736Y56.896
X173.736Y59.436
X173.736Y61.976
X173.736Y64.516
X173.736Y67.056
X173.736Y69.596
X173.736Y91.440
X173.736Y93.980
X173.736Y96.520
X173.736Y99.060
X173.736Y101.600
X173.736Y104.140
X173.736Y106.680
X173.736Y109.220
X173.736Y131.064
X173.736Y133.604
X173.736Y136.144
X173.736Y138.684
X173.736Y141.224
X173.736Y143.764
X173.736Y146.304
X173.736Y148.844
X188.976Y51.816
X188.976Y54.356
X188.976Y56.896
X188.976Y59.436
X188.976Y61.976
X188.976Y64.516
X188.976Y67.056
X188.976Y69.596
X188.976Y91.440
X188.976Y93.980
X188.976Y96.520
X188.976Y99.060
X188.976Y101.600
X188.976Y104.140
X188.976Y106.680
X188.976Y109.220
X188.976Y131.064
X188.976Y133.604
X188.976Y136.144
X188.976Y138.684
X188.976Y141.224
X188.976Y143.764
X188.976Y146.304
X188.976Y148.844
X196.596Y51.816
X196.596Y54.356
X196.596Y56.896
X196.596Y59.436
X196.596Y61.976
X196.596Y64.516
X196.596Y67.056
X196.596Y69.596
X196.596Y91.440
X196.596Y93.980
X196.596Y96.520
X196.596Y99.060
X196.596Y101.600
X196.596Y104.140
X196.596Y106.680
X196.596Y109.220
X196.596Y131.064
X196.596Y133.604
X196.596Y136.144
X196.596Y138.684
X196.596Y141.224
X196.596Y143.764
X196.596Y146.304
X196.596Y148.844
T3
X62.992Y113.538
X62.992Y116.078
X62.992Y118.618
X62.992Y121.158
X62.992Y123.698
X65.532Y113.538
X65.532Y116.078
X65.532Y118.618
X65.532Y121.158
X65.532Y123.698
X68.580Y104.394
X70.866Y104.394
X70.866Y126.746
X70.866Y129.032
X70.866Y131.572
X75.474Y108.763
X75.474Y115.265
X79.756Y99.060
X79.974Y108.763
X79.974Y115.265
X80.010Y118.872
X82.550Y99.060
X85.598Y126.746
X85.598Y129.032
X87.630Y105.918
X87.630Y110.744
X87.630Y113.538
X87.630Y116.586
X87.630Y118.872
X87.884Y129.032
X91.948Y135.128
X93.726Y105.918
X93.726Y114.808
X94.234Y64.008
X100.584Y105.918
X101.854Y114.808
X101.854Y117.094
X101.854Y119.380
X103.124Y124.460
X103.124Y127.508
X103.124Y130.048
X103.124Y132.588
X105.410Y110.490
X107.442Y120.904
X112.268Y113.030
X112.268Y115.570
X112.268Y118.110
X112.268Y120.650
X112.268Y123.190
X114.808Y113.030
X114.808Y115.570
X114.808Y118.110
X114.808Y120.650
X114.808Y123.190
X117.348Y82.296
X119.634Y112.014
X126.492Y83.312
X131.318Y88.138
X132.588Y131.318
X134.112Y93.980
X134.112Y96.520
X134.112Y107.696
X136.398Y55.626
X136.398Y59.436
X136.398Y96.520
X138.430Y46.482
X138.684Y55.626
X138.684Y93.980
X138.684Y96.520
X140.208Y100.838
X147.066Y42.164
X147.066Y83.312
X150.876Y46.482
X150.876Y86.360
X157.734Y127.508
X157.734Y131.064
X157.734Y134.620
X162.306Y51.816
X162.306Y91.440
X169.926Y42.164
X169.926Y83.312
X169.926Y120.650
X173.736Y46.482
X173.736Y123.698
X173.990Y86.360
X185.166Y91.440
X185.166Y131.064
X192.786Y42.164
X192.786Y83.312
X192.786Y120.650
X199.136Y46.482
X199.136Y86.360
X199.136Y123.698
X211.582Y39.878
X211.582Y42.164
X211.582Y44.450
X211.582Y46.736
X211.582Y49.022
X211.582Y51.308
X211.582Y53.594
X211.582Y55.880
X211.582Y58.166
X211.582Y142.494
X211.582Y144.780
X211.582Y147.066
X211.582Y149.352
X211.582Y151.638
X211.582Y153.924
X211.582Y156.210
X211.582Y158.496
X211.582Y160.782
X214.376Y39.878
X214.376Y160.782
X217.170Y39.878
X217.170Y160.782
X219.964Y39.878
X219.964Y160.782
X222.758Y39.878
X222.758Y160.782
X225.552Y39.878
X225.552Y160.782
X228.346Y39.878
X228.346Y60.960
X228.346Y63.500
X228.346Y66.040
X228.346Y68.580
X228.346Y71.120
X228.346Y73.660
X228.346Y76.200
X228.346Y78.740
X228.346Y81.280
X228.346Y83.820
X228.346Y86.360
X228.346Y88.900
X228.346Y91.440
X228.346Y93.980
X228.346Y96.520
X228.346Y99.060
X228.346Y101.600
X228.346Y104.140
X228.346Y106.680
X228.346Y109.220
X228.346Y111.760
X228.346Y114.300
X228.346Y116.840
X228.346Y119.380
X228.346Y121.920
X228.346Y124.460
X228.346Y127.000
X228.346Y129.540
X228.346Y132.080
X228.346Y134.620
X228.346Y137.160
X228.346Y139.700
X228.346Y160.782
X230.886Y60.960
X230.886Y63.500
X230.886Y66.040
X230.886Y68.580
X230.886Y71.120
X230.886Y73.660
X230.886Y76.200
X230.886Y78.740
X230.886Y81.280
X230.886Y83.820
X230.886Y86.360
X230.886Y88.900
X230.886Y91.440
X230.886Y93.980
X230.886Y96.520
X230.886Y99.060
X230.886Y101.600
X230.886Y104.140
X230.886Y106.680
X230.886Y109.220
X230.886Y111.760
X230.886Y114.300
X230.886Y116.840
X230.886Y119.380
X230.886Y121.920
X230.886Y124.460
X230.886Y127.000
X230.886Y129.540
X230.886Y132.080
X230.886Y134.620
X230.886Y137.160
X230.886Y139.700
X231.140Y39.878
X231.140Y160.782
T4
X58.674Y136.144
X58.674Y138.684
X58.674Y142.748
X58.674Y145.288
X58.674Y149.352
X58.674Y151.892
X70.612Y59.182
X70.612Y68.580
X73.152Y59.182
X73.152Y68.580
X75.692Y59.182
X75.692Y68.580
X84.582Y59.182
X84.582Y68.580
X87.122Y59.182
X87.122Y68.580
X89.662Y59.182
X89.662Y68.580
X98.552Y59.182
X98.552Y68.580
X101.092Y59.182
X101.092Y68.580
X103.632Y59.182
X103.632Y68.580
X112.522Y59.182
X112.522Y68.580
X115.062Y59.182
X115.062Y68.580
X117.602Y59.182
X117.602Y68.580
T5
X102.870Y139.700
X105.410Y139.700
X107.950Y139.700
T6
X117.937Y156.210
X122.939Y156.210
X127.937Y156.210
T7
X66.802Y88.997
X66.802Y100.995
X87.935Y43.731
X87.935Y49.233
X92.133Y43.731
X92.133Y49.233
X96.335Y43.731
X96.335Y49.233
X100.533Y43.731
X100.533Y49.233
T8
X126.492Y131.318
X147.828Y140.462
X147.828Y149.098
T9
X105.410Y156.210
T10
X60.846Y41.900
X60.846Y158.900
X240.845Y41.900
X240.845Y158.900
T0
M30
