G04 (created by PCBNEW-RS274X (2011-01-22 BZR 2754)-stable) date 24.05.2012 00:25:01*
G01*
G70*
G90*
%MOIN*%
G04 Gerber Fmt 3.4, Leading zero omitted, Abs format*
%FSLAX34Y34*%
G04 APERTURE LIST*
%ADD10C,0.006000*%
%ADD11C,0.012000*%
%ADD12C,0.015000*%
G04 APERTURE END LIST*
G54D10*
G54D11*
X18624Y-40949D02*
X18624Y-41292D01*
X18624Y-41120D02*
X17824Y-41120D01*
X17938Y-41177D01*
X18014Y-41235D01*
X18052Y-41292D01*
X17900Y-40721D02*
X17862Y-40692D01*
X17824Y-40635D01*
X17824Y-40492D01*
X17862Y-40435D01*
X17900Y-40406D01*
X17976Y-40378D01*
X18052Y-40378D01*
X18167Y-40406D01*
X18624Y-40749D01*
X18624Y-40378D01*
X17824Y-39864D02*
X17824Y-39978D01*
X17862Y-40035D01*
X17900Y-40064D01*
X18014Y-40121D01*
X18167Y-40150D01*
X18471Y-40150D01*
X18548Y-40121D01*
X18586Y-40093D01*
X18624Y-40035D01*
X18624Y-39921D01*
X18586Y-39864D01*
X18548Y-39835D01*
X18471Y-39807D01*
X18281Y-39807D01*
X18205Y-39835D01*
X18167Y-39864D01*
X18129Y-39921D01*
X18129Y-40035D01*
X18167Y-40093D01*
X18205Y-40121D01*
X18281Y-40150D01*
X18624Y-39093D02*
X18090Y-39093D01*
X18167Y-39093D02*
X18129Y-39065D01*
X18090Y-39007D01*
X18090Y-38922D01*
X18129Y-38865D01*
X18205Y-38836D01*
X18624Y-38836D01*
X18205Y-38836D02*
X18129Y-38807D01*
X18090Y-38750D01*
X18090Y-38665D01*
X18129Y-38607D01*
X18205Y-38579D01*
X18624Y-38579D01*
X18624Y-38293D02*
X18090Y-38293D01*
X18167Y-38293D02*
X18129Y-38265D01*
X18090Y-38207D01*
X18090Y-38122D01*
X18129Y-38065D01*
X18205Y-38036D01*
X18624Y-38036D01*
X18205Y-38036D02*
X18129Y-38007D01*
X18090Y-37950D01*
X18090Y-37865D01*
X18129Y-37807D01*
X18205Y-37779D01*
X18624Y-37779D01*
X18940Y-64322D02*
X18940Y-14720D01*
X22181Y-64322D02*
X17660Y-64322D01*
X22181Y-14720D02*
X17660Y-14720D01*
X18940Y-14720D02*
X19170Y-15163D01*
X18940Y-14720D02*
X18710Y-15163D01*
X18940Y-64322D02*
X19170Y-63879D01*
X18940Y-64322D02*
X18710Y-63879D01*
X57957Y-11464D02*
X57614Y-11464D01*
X57786Y-11464D02*
X57786Y-10664D01*
X57729Y-10778D01*
X57671Y-10854D01*
X57614Y-10892D01*
X58300Y-11007D02*
X58242Y-10969D01*
X58214Y-10930D01*
X58185Y-10854D01*
X58185Y-10816D01*
X58214Y-10740D01*
X58242Y-10702D01*
X58300Y-10664D01*
X58414Y-10664D01*
X58471Y-10702D01*
X58500Y-10740D01*
X58528Y-10816D01*
X58528Y-10854D01*
X58500Y-10930D01*
X58471Y-10969D01*
X58414Y-11007D01*
X58300Y-11007D01*
X58242Y-11045D01*
X58214Y-11083D01*
X58185Y-11159D01*
X58185Y-11311D01*
X58214Y-11388D01*
X58242Y-11426D01*
X58300Y-11464D01*
X58414Y-11464D01*
X58471Y-11426D01*
X58500Y-11388D01*
X58528Y-11311D01*
X58528Y-11159D01*
X58500Y-11083D01*
X58471Y-11045D01*
X58414Y-11007D01*
X58813Y-11464D02*
X58928Y-11464D01*
X58985Y-11426D01*
X59013Y-11388D01*
X59071Y-11273D01*
X59099Y-11121D01*
X59099Y-10816D01*
X59071Y-10740D01*
X59042Y-10702D01*
X58985Y-10664D01*
X58871Y-10664D01*
X58813Y-10702D01*
X58785Y-10740D01*
X58756Y-10816D01*
X58756Y-11007D01*
X58785Y-11083D01*
X58813Y-11121D01*
X58871Y-11159D01*
X58985Y-11159D01*
X59042Y-11121D01*
X59071Y-11083D01*
X59099Y-11007D01*
X59813Y-11464D02*
X59813Y-10930D01*
X59813Y-11007D02*
X59841Y-10969D01*
X59899Y-10930D01*
X59984Y-10930D01*
X60041Y-10969D01*
X60070Y-11045D01*
X60070Y-11464D01*
X60070Y-11045D02*
X60099Y-10969D01*
X60156Y-10930D01*
X60241Y-10930D01*
X60299Y-10969D01*
X60327Y-11045D01*
X60327Y-11464D01*
X60613Y-11464D02*
X60613Y-10930D01*
X60613Y-11007D02*
X60641Y-10969D01*
X60699Y-10930D01*
X60784Y-10930D01*
X60841Y-10969D01*
X60870Y-11045D01*
X60870Y-11464D01*
X60870Y-11045D02*
X60899Y-10969D01*
X60956Y-10930D01*
X61041Y-10930D01*
X61099Y-10969D01*
X61127Y-11045D01*
X61127Y-11464D01*
X22189Y-11778D02*
X96582Y-11782D01*
X22189Y-14732D02*
X22189Y-10498D01*
X96582Y-14736D02*
X96582Y-10502D01*
X96582Y-11782D02*
X96139Y-12012D01*
X96582Y-11782D02*
X96139Y-11552D01*
X22189Y-11778D02*
X22632Y-12008D01*
X22189Y-11778D02*
X22632Y-11548D01*
G54D12*
X22183Y-64331D02*
X96593Y-64331D01*
X96593Y-14724D02*
X22223Y-14724D01*
X96593Y-64331D02*
X96593Y-14724D01*
X22183Y-14724D02*
X22183Y-64331D01*
X22183Y-14724D02*
X22223Y-14724D01*
X22183Y-64331D02*
X22183Y-14724D01*
M02*
